<svg width="44" height="44" viewBox="0 0 44 44" fill="none" xmlns="http://www.w3.org/2000/svg">
<path fill-rule="evenodd" clip-rule="evenodd" d="M34.375 40.2187C33.9889 40.1156 31.9189 37.8915 31.4746 37.4473C31.2005 37.1731 30.694 36.8128 30.5938 36.4375C31.4081 36.2478 34.1265 34.2627 34.9561 33.4952L36.4122 32.0294C36.598 31.8074 36.9353 31.3343 37.125 31.1953C37.4651 31.4231 38.9681 32.9954 39.4668 33.4942C39.7333 33.7606 40.1161 33.9904 40.2187 34.375L37.4925 35.2581C37.2801 35.3332 37.1178 35.3643 36.8975 35.4366C35.9343 35.7529 35.751 35.9715 35.4375 36.8985C35.2071 37.5798 34.4065 39.8396 34.375 40.2187ZM21.053 0H23.0313C25.6057 0.125877 28.1392 0.74308 30.3646 1.86191C32.5609 2.96605 33.9697 4.03031 35.6856 5.73626C36.0752 6.12354 36.4322 6.5448 36.7701 6.97203C38.3165 8.92671 39.2763 10.555 40.122 12.9014C40.3328 13.4864 40.5049 14.0115 40.6786 14.6651C41.2572 16.8425 41.25 18.0191 41.25 20.1953C41.25 22.3035 40.4659 25.3538 39.6185 27.0716L38.6719 28.961L41.4433 31.7754C41.9624 32.2944 44 34.0754 44 34.7188C44 35.4663 43.88 35.8861 42.9169 36.2138C42.1089 36.4887 38.0862 37.7589 37.9225 37.9225C37.7554 38.0897 36.9234 40.7795 36.7703 41.2391C36.4157 42.3031 36.113 44 35.0625 44C33.984 44 33.7486 43.4165 32.8496 42.5176C32.1784 41.8464 28.1759 37.9223 27.9297 37.5547C27.3897 37.8138 25.8246 38.1344 25.1807 38.2432C23.2237 38.574 20.7072 38.6064 18.7563 38.2203C18.0939 38.0892 16.6664 37.8407 16.0703 37.5547C15.8263 37.919 11.7745 41.8934 11.1074 42.5605C10.7252 42.9428 9.89329 44 9.28125 44C8.53369 44 8.11389 43.88 7.78622 42.9169C7.51134 42.1089 6.24113 38.0862 6.07748 37.9225C5.91034 37.7554 3.22047 36.9234 2.76095 36.7703C1.69689 36.4157 0 36.113 0 35.0625C0 34.0331 0.397771 33.9342 1.2246 33.1074L5.32812 28.961C5.27352 28.7266 4.07767 26.6951 3.59037 25.0268C2.74259 22.1246 2.75 21.543 2.75 18.5625C2.75 17.2725 3.05821 15.5578 3.36149 14.5334C4.08888 12.0761 4.86815 10.2715 6.30779 8.19841C7.61961 6.30935 8.06224 6.0036 9.56058 4.57621L10.8446 3.53989C11.3296 3.21053 11.7192 2.93464 12.2394 2.61438C14.8144 1.02907 17.9133 0.152027 21.053 0ZM6.875 31.1953L8.27147 32.7207C8.53398 32.9832 8.73298 33.1957 9.00023 33.4529C9.58787 34.0185 10.8445 34.9285 11.4811 35.3548C11.8376 35.5936 12.997 36.3422 13.4062 36.4375C13.3031 36.8236 11.079 38.8936 10.6348 39.3379C10.3606 39.612 10.0003 40.1185 9.625 40.2187C9.60505 39.9792 8.51822 36.3924 8.06292 35.9371C7.60759 35.4818 4.02082 34.3949 3.78125 34.375C3.88156 33.9993 6.64667 31.3482 6.875 31.1953ZM22 2.66408C22.465 2.66408 23.3719 2.71605 23.8555 2.78515C24.5226 2.88046 25.0783 2.96138 25.6315 3.07166C28.2566 3.59502 30.5923 4.74763 32.6452 6.37045C33.6787 7.1875 34.8615 8.45615 35.5784 9.53875C36.1231 10.3611 36.6439 11.1975 37.0639 12.1783C37.5009 13.1986 37.7889 14.1111 38.1006 15.2666C39.4135 20.1335 38.1688 25.7288 35.0428 29.5428C33.3623 31.5933 31.807 32.909 29.3906 34.1172C28.3807 34.6221 27.5545 34.9486 26.4206 35.2722C23.1579 36.2033 19.2463 36.0149 16.0953 34.7797C11.7598 33.08 8.53102 29.9737 6.67811 25.7203C5.30883 22.5772 5.01728 18.7559 5.88153 15.3347C6.43818 13.1309 7.40768 10.7214 8.82468 8.99656C9.38101 8.31935 9.04252 8.62818 9.77706 7.88643C9.99311 7.6683 10.0514 7.50922 10.2508 7.32897L12.4954 5.53443C14.2421 4.36993 16.1796 3.51254 18.2966 3.08566C19.3818 2.86688 20.8479 2.66405 22 2.66408Z" fill="#123751"/>
<path fill-rule="evenodd" clip-rule="evenodd" d="M10.9141 19.7656C10.9141 15.0981 13.1746 10.8044 17.4451 9.10918C21.8028 7.37938 26.6073 8.08686 29.8418 11.3222C34.0959 15.5774 34.2732 22.6576 29.7988 27.1347C29.1152 27.8188 28.4076 28.3758 27.5595 28.8485C21.7471 32.0875 14.8988 29.8877 11.9729 24.0348C11.4693 23.0274 10.9141 21.2325 10.9141 19.7656ZM8.25 18.9922C8.25 21.0754 8.79522 23.1844 9.40232 24.7148C9.8825 25.9253 10.5471 26.9139 11.3189 27.9545C11.6086 28.3451 11.8042 28.519 12.1387 28.8535C15.9393 32.6536 21.488 33.8764 26.5245 32.1963C27.5397 31.8576 27.981 31.6057 28.905 31.1393C29.1675 31.0068 29.2075 30.9708 29.4418 30.8168C29.6523 30.6784 29.7734 30.6258 29.9692 30.4848C31.3253 29.5084 32.4225 28.4266 33.3798 27.0204C33.8114 26.3865 34.2608 25.5166 34.573 24.7761C36.5156 20.1672 35.9464 15.4036 33.2758 11.4116C32.6214 10.4334 32.1147 9.92561 31.3017 9.17483L28.8458 7.3338C28.3946 7.08955 28.2205 6.96485 27.7088 6.75211C23.4025 4.96192 19.3961 5.03056 15.2673 7.27507C14.1811 7.86554 13.2193 8.65832 12.3133 9.47735C12.1144 9.65722 12.1416 9.70318 11.9661 9.90352C11.2336 10.7396 10.7444 11.2054 10.1125 12.3468C9.10242 14.1709 8.25 16.56 8.25 18.9922Z" fill="#123751"/>
<path fill-rule="evenodd" clip-rule="evenodd" d="M17.7031 17.7891C18.1524 17.779 20.1525 17.213 20.4686 16.9452C20.638 16.8016 21.0508 16.1192 21.2094 15.8813C21.3958 15.6017 21.7834 14.9399 22 14.7813C22.2142 14.9382 22.5741 15.5563 22.7563 15.8296C23.6144 17.1169 23.287 16.9834 24.7798 17.4155C25.1589 17.5252 25.9303 17.7809 26.2969 17.7891C26.1262 18.1116 26.0699 18.125 25.8663 18.3898C24.0278 20.7803 24.6641 19.7986 24.6641 22.8594C24.0904 22.8117 22.6663 22 22 22C21.4087 22 19.8986 22.8125 19.3359 22.8594L19.4219 20.3672C19.4219 19.7279 18.0293 18.4054 17.7031 17.7891ZM17.7891 26.125C18.8146 26.125 21.4571 24.75 22 24.75C22.5675 24.75 25.1608 26.125 26.2109 26.125C26.6277 26.125 27.0266 25.7716 27.1903 25.4711C27.6274 24.6688 27.0045 21.5463 27.2857 20.8404L29.528 18.0124C29.7954 17.6668 29.9676 17.2342 29.8305 16.7537C29.5424 15.7432 27.8097 15.5239 26.3828 15.125C26.1228 15.0523 25.9984 15.0064 25.711 14.9374C25.0163 14.7706 25.1522 14.697 24.475 13.6812C23.7086 12.5314 23.0181 11 22 11C21.0069 11 20.3153 12.4958 19.5937 13.5781C18.53 15.1736 19.3009 14.6609 16.4141 15.4688C15.5236 15.7179 14.4725 15.8421 14.19 16.6864C13.8459 17.7151 15.0588 18.6616 15.9231 19.8269C16.0693 20.0241 16.1479 20.1206 16.3011 20.3082C16.3554 20.3747 16.6779 20.7685 16.6856 20.7831C17.1868 21.7334 15.7068 26.125 17.7891 26.125Z" fill="white"/>
</svg>
