<svg width="39" height="48" viewBox="0 0 39 48" fill="none" xmlns="http://www.w3.org/2000/svg">
<path fill-rule="evenodd" clip-rule="evenodd" d="M2.81251 28.7813C2.81251 27.7442 3.01713 26.1716 3.24382 25.1813C3.83184 22.6126 4.96045 20.451 6.49447 18.4007C6.65437 18.187 6.80058 18.0083 6.93663 17.8116C7.09486 17.5828 7.17084 17.4077 7.40625 17.25C8.11826 17.7268 9.06448 19.125 11.3437 19.125C13.9791 19.125 15.8955 17.2768 16.3557 14.762C16.7132 12.8093 15.984 10.6297 18.2986 7.23617C18.9735 6.24679 20.4209 4.67946 21.4687 4.125L22.4373 6.34392C22.8298 7.12259 23.1592 7.74392 23.5624 8.50008L26.7451 13.4736C26.9946 13.8071 27.1605 14.0579 27.4151 14.3975L30.3499 18.0251C31.3447 19.0493 31.7593 19.6015 32.5715 20.6785C33.465 21.8632 34.3439 23.4647 34.8617 24.8571C35.2712 25.9586 35.6956 27.908 35.6267 29.0617C35.3006 34.5244 32.9328 39.0887 28.9292 41.9604C26.8632 43.4424 24.6428 44.4667 22.113 44.8942C20.4396 45.177 19.2981 45.215 17.6301 45.0887C11.5079 44.6248 5.83247 40.1578 3.80746 34.3488C3.22146 32.6677 2.81251 30.5713 2.81251 28.7813ZM11.5312 16.2188C9.50606 16.2188 8.4518 13.795 7.03125 12.8438C6.59746 13.1616 3.06947 18.314 2.45545 19.3304C1.26308 21.3042 1.52588e-05 24.8959 1.52588e-05 28.0313C1.52588e-05 31.4424 0.374909 34.1534 1.78089 36.9379C4.03589 41.4039 6.52697 43.933 10.9998 46.1877C13.8538 47.6263 16.5059 48 19.9687 48C23.5024 48 28.1982 46.288 30.9163 44.0413L32.8397 42.4022L34.9148 39.8835C35.5441 39.0113 36.1702 37.9824 36.6255 37.0005C39.2626 31.3128 39.1222 25.5025 35.7007 20.1742C35.3299 19.5966 34.9832 19.1131 34.5808 18.5754C33.211 16.7447 31.4241 14.9629 29.6651 12.6162L27.4497 9.39403C26.503 7.9833 25.2487 5.65172 24.5635 4.12397C23.8646 2.56539 23.2498 0.195048 23.1562 0C22.8658 0.0676857 22.8245 0.125448 22.5619 0.249373C20.5799 1.18471 20.5601 1.1239 18.7621 2.54335C17.6164 3.44779 16.3065 4.95126 15.5322 6.25097C14.1143 8.63099 13.8036 10.1894 13.5885 12.9323C13.5609 13.2851 13.5077 13.2574 13.4976 13.6851C13.4901 13.999 13.5293 14.2882 13.4648 14.5898C13.2862 15.4255 12.4939 16.2188 11.5312 16.2188Z" fill="#123751"/>
<path fill-rule="evenodd" clip-rule="evenodd" d="M13.2188 36.8439H16.4063C16.8489 36.0074 23.7528 26.0374 24.7874 24.5056C24.8727 24.3793 25.003 24.228 25.0757 24.1161C25.1828 23.9512 25.3015 23.8126 24.9375 23.8126C21.664 23.8126 22.3034 23.4513 21.0751 25.2939L13.2188 36.8439Z" fill="white"/>
<path fill-rule="evenodd" clip-rule="evenodd" d="M23.1563 33.4689C23.1563 31.2013 24.75 31.3117 24.75 33.3751C24.75 35.586 23.1563 35.4244 23.1563 33.4689ZM20.5313 33.0001V33.8439C20.5313 36.8249 24.3745 37.9725 26.3228 36.1666C27.3973 35.1707 27.375 34.1858 27.375 32.9064C27.375 31.0652 25.7373 29.7162 23.9179 29.7573C22.9442 29.7792 22.1423 30.1403 21.5456 30.6394C21.0632 31.0429 20.5313 32.1227 20.5313 33.0001Z" fill="white"/>
<path fill-rule="evenodd" clip-rule="evenodd" d="M13.6875 27.2813C13.6875 25.2178 15.2812 25.1074 15.2812 27.375C15.2812 29.2956 13.6875 29.5188 13.6875 27.2813ZM11.0625 26.8125V27.75C11.0625 30.731 14.9058 31.8786 16.854 30.0727C18.4248 28.6168 18.4234 24.9595 15.9 23.9437C13.6219 23.0267 11.0625 24.4734 11.0625 26.8125Z" fill="white"/>
</svg>
