<svg width="44" height="44" viewBox="0 0 44 44" fill="none" xmlns="http://www.w3.org/2000/svg">
<path fill-rule="evenodd" clip-rule="evenodd" d="M12.7617 15.0184L12.7566 15.0242V14.6886C12.7566 13.0672 12.2751 11.6998 10.7633 10.9268C10.2234 10.6507 9.68433 10.4802 9.07371 10.5052C8.61982 10.5239 8.18273 10.6472 7.73141 10.6848L7.59555 10.6961V10.5597C7.59555 10.1664 7.60122 9.77251 7.59567 9.37921C7.59125 9.06537 7.57952 8.74784 7.53685 8.43662C7.45496 7.83943 7.26555 7.36876 6.89908 6.8844C5.87349 5.52891 4.25298 5.00984 2.64052 5.55866C1.22054 6.04195 0.104868 7.29296 0.104868 8.83939V23.5484C0.104868 25.2618 1.4265 27.1667 2.28614 28.5961C2.61949 29.1504 2.9636 29.7002 3.30179 30.2517C3.8944 31.2181 4.48433 32.1863 5.06755 33.1584C5.65117 34.1313 6.23214 35.109 6.78744 36.0983C6.99179 36.4623 7.19467 36.8298 7.3827 37.2025C7.48053 37.3964 7.62212 37.6689 7.67479 37.8788C7.78856 38.3321 7.82799 38.8296 7.84698 39.2958C7.86843 39.823 7.86142 40.3524 7.84948 40.8798C7.83887 41.3491 7.82098 41.8201 7.82223 42.2895C7.82287 42.5224 7.82129 42.9319 7.89504 43.1516C8.01448 43.5072 8.4501 43.8953 8.83925 43.8953H35.1607C35.536 43.8953 35.9468 43.5379 36.0835 43.2054C36.1607 43.0175 36.1653 42.587 36.1683 42.382C36.1752 41.9106 36.1608 41.4364 36.1524 40.9649C36.1428 40.4316 36.1363 39.8967 36.1549 39.3635C36.1712 38.8999 36.2038 38.4029 36.3073 37.9501C36.3807 37.6291 36.5815 37.2352 36.7325 36.9422C36.9686 36.4838 37.2278 36.034 37.4903 35.5902C37.9624 34.7919 38.4616 34.013 38.9403 33.2199C39.6261 32.0839 40.3226 30.954 41.009 29.8182C41.4344 29.1142 41.8585 28.4091 42.2754 27.7001C42.4369 27.4254 42.5976 27.1502 42.7546 26.873C42.8552 26.6955 42.958 26.5147 43.0487 26.332C43.4998 25.4225 43.8951 24.5924 43.8951 23.5484V8.83939C43.8951 7.10922 42.138 5.35209 40.4078 5.35209C38.9822 5.35209 37.9729 5.73194 37.1009 6.8844C36.7344 7.36876 36.545 7.83943 36.4631 8.43662C36.4205 8.74784 36.4087 9.06537 36.4043 9.37921C36.3988 9.77251 36.4044 10.1664 36.4044 10.5597V10.6961L36.2686 10.6848C35.8173 10.6472 35.3802 10.5239 34.9263 10.5052C34.3157 10.4802 33.7765 10.6507 33.2367 10.9268C32.4536 11.3272 31.7477 12.1413 31.4596 12.9743C31.3707 13.2315 31.2951 13.4814 31.2659 13.7527V18.4409L30.5504 18.7157L30.4996 18.7497C29.686 19.2945 29.0341 20.0034 28.3465 20.6911C27.2484 21.7892 26.162 22.9001 25.0661 24.0008C24.4217 24.648 23.7762 25.2948 23.1242 25.9343C22.8977 26.1565 22.6703 26.3785 22.4393 26.596C22.3345 26.6946 22.1882 26.8421 22.0698 26.9214L22 26.9681L21.9302 26.9214C21.7461 26.7981 21.5404 26.5948 21.3791 26.4416C21.0699 26.1481 20.7676 25.846 20.4669 25.5438C19.6309 24.7035 18.8054 23.8524 17.9752 23.0064C17.1078 22.1226 16.2373 21.2387 15.3466 20.3784C14.9926 20.0364 14.6343 19.6964 14.2661 19.3696C14.0276 19.1579 13.7655 18.9272 13.5004 18.7497L13.4152 18.6926L12.7617 18.4409V15.0184ZM8.08128 20.384C7.66598 20.1059 7.59555 19.6273 7.59555 19.1616V14.5166C7.59555 12.3079 10.427 12.3079 10.427 14.5166V18.1293C10.427 18.4088 10.2089 18.5087 9.9875 18.6092C9.66321 18.7565 9.42162 18.8889 9.16135 19.142C8.84023 19.4544 8.3787 19.8558 8.27331 20.3082L8.23211 20.485L8.08128 20.384ZM35.7267 20.3082C35.6213 19.8558 35.1598 19.4544 34.8386 19.142C34.5807 18.8911 34.3375 18.7594 34.017 18.6114C33.7982 18.5104 33.573 18.4069 33.573 18.1293V14.5166C33.573 12.3079 36.4044 12.3079 36.4044 14.5166V19.1616C36.4044 19.6273 36.334 20.1059 35.9187 20.384L35.7679 20.485L35.7267 20.3082ZM6.42557 22.1873L12.863 28.6428C13.2179 28.9988 13.6848 29.4606 14.2335 29.4237C14.5177 29.4045 14.7912 29.2776 14.9916 29.0755C15.2274 28.8377 15.3372 28.5255 15.3372 28.1934C15.3372 27.7818 15.0151 27.3695 14.7529 27.0788C14.3894 26.6758 13.9721 26.3221 13.589 25.9381L10.4458 22.7879L10.44 22.7799C10.0722 22.2728 10.1377 21.6073 10.5209 21.131C10.9347 20.6165 11.5864 20.464 12.1872 20.7398C12.5447 20.904 13.0438 21.5104 13.3355 21.8031L15.4859 23.8674C16.1893 24.5708 16.8918 25.2733 17.5943 25.9758C18.0158 26.3972 18.4533 26.7997 18.8822 27.2131C19.2444 27.5623 19.6041 27.9243 19.9088 28.3255C20.5964 29.2309 20.8352 30.1561 20.8352 31.2901V41.5657H10.1761V41.4402C10.1761 40.6953 10.1951 39.9498 10.1915 39.2054C10.189 38.7074 10.1733 38.2042 10.0817 37.7135C9.99022 37.224 9.82494 36.7737 9.61502 36.3232C9.30551 35.6592 8.92017 35.0093 8.54342 34.3815L4.12395 27.0165C3.1815 25.4459 2.43447 24.6312 2.43447 22.6883V9.3555C2.43447 8.63383 2.76958 7.93824 3.51201 7.74502C4.134 7.5831 4.7755 7.86781 5.07852 8.43701C5.21743 8.69795 5.24888 9.69056 5.26144 9.99886C5.29944 10.9321 5.30459 11.8711 5.3052 12.8051C5.30584 13.7809 5.29731 14.7568 5.28606 15.7325C5.27884 16.3588 5.26595 16.987 5.26595 17.6132C5.26595 18.1755 5.25479 18.74 5.26403 19.302C5.26973 19.6492 5.28326 20.0136 5.35729 20.3538C5.51 21.0558 5.98625 21.6385 6.42557 22.1873ZM28.6628 28.1934C28.6628 28.6515 28.8766 29.0657 29.288 29.2826C29.6609 29.4792 30.111 29.4599 30.4629 29.2244C30.6632 29.0902 30.8378 28.9497 31.0053 28.7764C31.1616 28.6146 31.3061 28.4435 31.4664 28.2823L32.2568 27.5239C33.2523 26.5337 34.2577 25.5525 35.251 24.5583C35.8302 23.9785 36.4079 23.3961 36.9751 22.8046C37.1952 22.575 37.4143 22.3439 37.6282 22.1085C37.7673 21.9554 37.9118 21.796 38.0376 21.6317C38.4231 21.1282 38.6082 20.6282 38.6855 20.0048C38.7263 19.6761 38.7356 19.3413 38.7381 19.0104C38.7411 18.6021 38.734 18.1936 38.734 17.7852C38.734 17.1516 38.7215 16.5163 38.7143 15.8826C38.703 14.897 38.6941 13.9113 38.6934 12.9256C38.6927 11.9806 38.6961 11.0318 38.729 10.0874C38.7407 9.75096 38.7553 9.41118 38.7864 9.07591C38.801 8.91933 38.8251 8.64477 38.8898 8.50208C39.1595 7.90636 39.8108 7.59584 40.4432 7.73588C41.2153 7.90685 41.5655 8.6142 41.5655 9.3555V22.6883C41.5655 24.627 40.847 25.399 39.9085 26.9629L35.4892 34.328C35.1069 34.9651 34.7142 35.6233 34.3963 36.2952C34.1836 36.7448 34.0141 37.1944 33.9204 37.6841C33.8266 38.1744 33.8109 38.6779 33.8083 39.1758C33.8045 39.93 33.8239 40.6855 33.8239 41.4402V41.5657H23.1648V31.2901C23.1648 30.171 23.3895 29.2534 24.0658 28.3562C24.3653 27.9589 24.7202 27.6007 25.0774 27.2555C25.5052 26.8421 25.9418 26.4397 26.3627 26.0188L29.5023 22.8791C29.8619 22.5195 30.2621 22.2077 30.6204 21.8472C30.7972 21.6694 30.9676 21.4837 31.1432 21.3042C31.2894 21.1548 31.5117 20.9181 31.686 20.8083C32.8544 20.0724 34.3051 21.4205 33.6364 22.6608L33.6278 22.6767L29.4222 26.9269C29.0378 27.3153 28.6628 27.5891 28.6628 28.1934Z" fill="#123751"/>
<path fill-rule="evenodd" clip-rule="evenodd" d="M17.5857 11.3588C16.9768 11.681 16.3417 11.9682 15.749 12.3181C15.083 12.7113 14.525 13.173 13.9817 13.7227C13.6411 14.0672 13.2949 14.405 12.9768 14.7709L12.7617 15.0184V18.4408L13.4152 18.6926L13.4101 18.6892L13.4571 18.5911C13.5422 18.4137 13.6093 18.2417 13.6851 18.0618C13.7783 17.8407 13.9035 17.6298 14.0273 17.4247C15.4634 15.0445 18.304 13.0431 21.134 12.9281C21.4715 12.9145 21.8022 12.8582 22.1371 12.845C22.6199 12.8261 23.1127 12.9099 23.5838 13.0073C24.0774 13.1094 24.5434 13.2335 25.0201 13.3968C27.2321 14.155 29.2088 15.8316 30.2573 17.9277C30.3662 18.1455 30.4385 18.3736 30.5429 18.5911L30.5899 18.6892L30.5504 18.7157L31.2659 18.4408V13.7527L31.2657 13.754C31.2332 14.057 31.2434 14.3836 31.2434 14.6886V15.0242L31.0232 14.7709C29.9351 13.5191 28.6327 12.4035 27.1305 11.6813C26.8938 11.5675 26.6469 11.4818 26.4143 11.3588L26.2912 11.2937L26.3687 11.178C26.5312 10.9354 26.7425 10.7073 26.9335 10.486C27.1753 10.206 27.4053 9.92322 27.607 9.61236C28.1724 8.74117 28.4119 7.8114 28.4119 6.77494V6.25882C28.4119 3.0726 25.4443 0.10498 22.258 0.10498H21.742C18.5557 0.10498 15.5881 3.07257 15.5881 6.25882C15.5881 7.94111 15.8577 8.95179 16.8648 10.3013C17.0987 10.6147 17.4156 10.8559 17.6313 11.178L17.7088 11.2937L17.5857 11.3588ZM17.9192 6.6221C17.8713 6.31274 18.1342 5.30343 18.2602 4.99604C18.4437 4.54829 18.7413 4.12424 19.0505 3.75505C19.2087 3.56616 19.389 3.45346 19.5765 3.30102C20.3778 2.64947 21.4117 2.36503 22.4337 2.49428C23.5435 2.63463 24.5153 3.23175 25.2159 4.09337C25.3891 4.30643 25.4912 4.51476 25.6206 4.75315C26.5477 6.46198 25.9815 8.42806 24.4985 9.59819C23.7898 10.1574 22.9176 10.4873 22.0115 10.4926C20.9598 10.4987 20.0115 10.0724 19.2292 9.38513C18.3561 8.61814 18.0905 7.72903 17.9192 6.6221Z" fill="white"/>
</svg>
