<svg width="36" height="36" viewBox="0 0 36 36" fill="none" xmlns="http://www.w3.org/2000/svg">
<path fill-rule="evenodd" clip-rule="evenodd" d="M5.90625 2.81251H4.0078C1.93283 2.81251 0 4.74531 0 6.82031V31.9922C0 33.3169 0.771242 34.4284 1.52455 35.038C2.62388 35.9276 3.22697 36 5.13281 36H5.27563H5.41845H5.56127H5.70411H5.84693H5.98975H6.13257H6.27539H6.41821H6.56103H6.70387H6.84669H6.98951H7.13233H7.27515H7.41797H7.56079H7.70363H7.84645H7.98927H8.13209H8.27491H8.41772H8.56054H8.70336H8.84621H8.98903H9.13184H9.27466H9.41748H9.5603H9.70312H9.84596H9.98878H10.1316H10.2744H10.4172H10.5601H10.7029H10.8457H10.9885H11.1314H11.2742H11.417H11.5598H11.7026H11.8455H11.9883H12.1311H12.2739H12.4168H12.5596H12.7024H12.8452H12.988H13.1309H13.2737H13.4165H13.5593H13.7021H13.845H13.9878H14.1306H14.2734L13.1691 35.1356C12.7417 34.7755 12.0319 34.1087 11.6824 33.6692C11.1073 32.9463 10.9578 33.1875 9.14061 33.1875C7.8047 33.1875 6.46876 33.1872 5.13281 33.1875C3.99771 33.1878 2.81251 33.213 2.81251 31.5V13.1484H11.1094C11.4131 13.1484 11.9248 12.235 12.6156 11.7015L14.2734 10.3359H2.81251V7.31249C2.81251 5.35117 4.40855 5.62499 5.90625 5.62499V8.4375H8.71876V5.62499H27.2812V8.4375H30.0937V5.62499C33.4242 5.62499 33.1875 5.72539 33.1875 9.56249H36V6.82031C36 4.74531 34.0672 2.81251 31.9922 2.81251H30.0937V0H27.2812V2.81251H8.71876V0H5.90625V2.81251Z" fill="#123751"/>
<path fill-rule="evenodd" clip-rule="evenodd" d="M10.4062 22.7109C10.4062 24.9662 10.6726 26.7782 11.6013 28.6174C12.3396 30.0796 13.0119 31.1174 14.1503 32.2559C14.2773 32.3828 14.3685 32.49 14.5051 32.6042C16.2199 34.0377 17.6811 35.0258 20.0108 35.6063C21.2793 35.9223 21.9557 35.9885 22.8624 35.9999H24.1875C24.5399 35.9999 24.2752 35.3593 24.2578 34.664C24.2454 34.1658 24.1172 33.5851 24.1172 33.1171C23.7754 33.1171 23.6273 33.1388 23.3924 33.1706C23.1088 33.2091 21.4103 33.004 21.1235 32.9468C19.1923 32.5614 17.7379 31.6549 16.2954 30.392L15.127 29.0291C13.178 26.4542 12.7845 23.0229 13.8076 19.9248C14.1383 18.9235 14.8789 17.5021 15.6266 16.7515C16.4383 15.9366 16.3208 15.9241 17.337 15.1572C17.965 14.6832 18.6864 14.2971 19.4551 13.9706C20.2314 13.6409 21.1714 13.4245 22.0965 13.3074C24.1568 13.0464 25.8002 13.4784 27.5839 14.252L28.6143 14.8388C29.413 15.316 30.2582 16.1013 30.8451 16.8267C30.9725 16.9841 31.1247 17.1564 31.2187 17.2968H28.2656V20.1093H36V12.3749H33.1875V15.1171C33.1351 15.0821 31.8384 13.6987 31.4206 13.3684C31.0816 13.1004 30.7935 12.8635 30.4176 12.6136C29.7108 12.1436 28.8953 11.6677 28.0962 11.3491C27.6466 11.1698 27.2135 11.0045 26.7336 10.8835C23.7237 10.1249 20.5833 10.1902 17.7888 11.6012C16.9554 12.022 15.6275 12.7575 14.9581 13.4112C14.6714 13.6913 14.4398 13.8609 14.1503 14.1503C13.0564 15.2443 12.341 16.3214 11.6249 17.742C10.963 19.0551 10.4062 21.1561 10.4062 22.7109Z" fill="white"/>
<path fill-rule="evenodd" clip-rule="evenodd" d="M21.7969 22.4297C21.7969 22.6454 21.6198 22.6786 21.4674 22.8034C21.177 23.0412 19.0047 24.8612 18.8438 25.1016C18.941 25.2468 19.1517 25.4978 19.2837 25.646L20.6719 27.2109C20.8028 27.1233 21.044 26.9234 21.1797 26.8047L24.1349 24.2756C24.2985 24.1244 24.6094 23.9904 24.6094 23.7656V16.4531H21.7969V22.4297Z" fill="white"/>
<path fill-rule="evenodd" clip-rule="evenodd" d="M30.5859 29.9531C30.6506 30.0496 31.4557 30.7964 31.6 30.9078C31.8363 31.0903 31.9133 31.1724 32.1149 31.3772C32.3533 31.6194 32.4225 31.6688 32.6953 31.8516C33.039 31.3383 34.2751 30.014 34.4531 29.25L31.9922 27.9141C31.7568 28.2656 31.609 28.59 31.3401 28.9494C31.2053 29.1296 31.1215 29.2511 30.9788 29.4319C30.7769 29.6879 30.7468 29.6491 30.5859 29.9531Z" fill="#123751"/>
<path fill-rule="evenodd" clip-rule="evenodd" d="M26.5078 32.625L27.4219 35.2969C28.4249 35.0632 30.0088 34.0212 30.2344 33.9609C30.2132 33.7069 28.9114 31.7202 28.6875 31.5703C28.503 31.6196 28.3454 31.7382 28.1824 31.8386C27.5453 32.231 27.015 32.3567 26.5078 32.625Z" fill="#123751"/>
<path fill-rule="evenodd" clip-rule="evenodd" d="M32.9062 25.6641C33.8328 25.8799 34.7363 26.1547 35.6484 26.3672C35.6571 25.9798 36 25.0674 36 23.2031H33.1875C33.1875 24.2074 32.9062 25.217 32.9062 25.6641Z" fill="#123751"/>
</svg>
