<svg width="38" height="48" viewBox="0 0 38 48" fill="none" xmlns="http://www.w3.org/2000/svg">
<path fill-rule="evenodd" clip-rule="evenodd" d="M3.79967 23.3854V8.45256C7.37492 8.45256 10.4465 8.35437 13.6819 6.79347C14.6739 6.31491 15.6811 5.88183 16.6342 5.24083C17.0668 4.94989 17.593 4.64742 17.9812 4.33527C18.4202 3.98234 18.8147 3.59874 19.2796 3.2871C19.7136 3.57804 20.1123 3.94087 20.5269 4.29255C21.6559 5.25033 23.4853 6.11532 24.8148 6.76205C28.0768 8.3488 31.1307 8.45256 34.7595 8.45256V23.3854C34.7595 28.6872 33.1982 33.2137 29.8099 36.8383C28.923 37.7871 28.6234 38.2006 27.5079 39.1358C26.6695 39.8387 25.8422 40.5461 24.9283 41.1554L22.9338 42.5398C22.6689 42.7086 22.4417 42.8439 22.188 43.0141C21.9659 43.1631 19.5164 44.7986 19.2796 44.7986C18.9145 44.7986 14.2368 41.5576 13.6875 41.1927C12.9881 40.728 10.6662 38.8485 9.91945 38.1088C7.84296 36.0521 6.40739 33.9967 5.20835 31.2731C4.8418 30.4405 4.61831 29.5625 4.40052 28.7007C4.30199 28.3109 4.23772 28.0934 4.173 27.7076C3.94743 26.3632 3.79967 24.962 3.79967 23.3854ZM0.985153 6.85596V24.7942C0.985153 27.9233 1.77649 30.4954 2.90101 33.2072C3.36331 34.322 4.13251 35.4784 4.7939 36.4778L7.10672 39.3279C7.55267 39.7729 7.9271 40.1496 8.37193 40.5972L11.1983 42.9332C11.6746 43.315 12.2111 43.6832 12.731 44.0286C12.9928 44.2025 13.2231 44.3468 13.4626 44.5172C14.7131 45.4068 16.1065 46.213 17.3842 47.0716C19.5655 48.5375 19.3016 48.3124 22.7122 46.0747L24.2563 45.0847C24.8423 44.7345 25.2689 44.4001 25.8272 44.0276C26.3414 43.6846 26.8183 43.3588 27.3084 42.9745L29.7734 40.9342C31.6291 39.4386 33.5048 36.9792 34.7415 34.9192C36.4589 32.0586 37.574 28.1967 37.574 24.7942V6.85596C37.574 4.97024 34.3496 5.84566 32.6274 5.60937C31.6919 5.48105 31.4459 5.60326 29.8265 5.31392C29.0509 5.17533 28.0147 4.93037 27.3611 4.68268C27.0237 4.55479 26.6475 4.43695 26.2601 4.28214C24.8082 3.70191 22.6022 2.39517 21.4145 1.33781C21.0996 1.05746 20.9948 0.899558 20.6327 0.617709C19.8498 0.00818837 20.3684 0.00010669 18.9723 0H18.9043C18.4107 0 17.6503 0.887742 17.1447 1.33781C16.3237 2.06872 14.3523 3.37808 13.3823 3.7699L11.1981 4.68268C10.1769 5.06968 8.56062 5.371 7.43418 5.51671C6.23924 5.67128 4.06296 5.64215 2.86083 5.63439C2.01581 5.62892 0.985153 5.80749 0.985153 6.85596Z" fill="#123751"/>
<path fill-rule="evenodd" clip-rule="evenodd" d="M9.42884 24.2308C9.27971 23.4593 9.8494 21.0578 10.2174 20.1365C10.4368 19.587 10.7693 19.0327 11.0787 18.5569C11.2619 18.275 11.4047 18.0796 11.5847 17.8425C12.83 16.2024 14.7991 14.9658 16.82 14.443C19.5427 13.7386 22.3184 14.2098 24.6662 15.7393C26.1655 16.7161 27.3236 18.0767 28.1309 19.6904C29.8147 23.0559 29.2099 27.1116 26.9747 30.0556C26.5234 30.65 25.6902 31.4349 25.057 31.8926C24.5692 32.2452 24.0897 32.531 23.5339 32.8097C22.9707 33.0921 22.398 33.2848 21.7394 33.4552C18.6609 34.2516 15.6775 33.5528 13.1796 31.6522C12.0434 30.7877 11.0739 29.4979 10.4285 28.2077C10.0278 27.4068 9.72515 26.3585 9.57299 25.4014L9.42884 24.2308ZM6.6143 23.1977C6.6143 25.5698 6.74198 27.2309 7.83357 29.3966C8.2765 30.2754 8.93702 31.4056 9.59356 32.1428C10.3556 32.9984 10.9605 33.5551 11.8938 34.2542C13.5641 35.5052 16.4271 36.6279 18.5292 36.6279C20.8987 36.6279 22.558 36.5001 24.7215 35.4074C25.9715 34.776 27.2637 33.9249 28.2543 32.9332C29.2023 31.9842 30.0888 30.6637 30.6944 29.4591C33.1631 24.5485 31.8974 18.1779 27.8886 14.6736C26.2941 13.2797 24.8234 12.2572 22.602 11.7011C19.617 10.9538 16.5804 11.1056 13.8379 12.4908C10.5638 14.1445 7.95651 16.9734 7.04471 20.6232C6.85754 21.3726 6.6143 22.3331 6.6143 23.1977Z" fill="white"/>
<path fill-rule="evenodd" clip-rule="evenodd" d="M17.8723 26.1091C16.7881 25.3823 14.7761 22.5402 13.8381 22.5402C12.72 22.5402 12.2432 23.0175 12.2432 24.1368C12.2432 24.8313 14.2116 26.5299 14.7528 27.0717C15.294 27.6135 16.9909 29.584 17.6846 29.584C18.8287 29.584 19.1328 28.9326 20.335 27.7291L25.495 22.5637C26.205 21.8542 26.3159 21.863 26.3159 20.9436C26.3159 20.1801 25.6318 19.7227 24.721 19.7227C24.0643 19.7227 23.2689 20.7537 22.8681 21.1549L17.8723 26.1091Z" fill="white"/>
</svg>
