<svg width="48" height="44" viewBox="0 0 48 44" fill="none" xmlns="http://www.w3.org/2000/svg">
<path fill-rule="evenodd" clip-rule="evenodd" d="M9.72084 31.4039L20.5606 33.2082C21.0075 33.2911 21.7069 33.442 22.1264 33.4745C22.1264 33.9921 22.1268 34.5098 22.1264 35.0275C22.1251 36.5938 21.623 36.3215 24.7186 36.3215C25.1706 36.3215 24.9966 35.4305 24.9963 35.0275C24.9959 34.5098 24.9963 33.9921 24.9963 33.4745L37.4019 31.4039V41.4117H9.72084V31.4039ZM9.72084 23.3804H37.4019V28.7294L23.5959 31.0267C23.2935 31.0336 22.3273 30.8214 21.9021 30.7502C20.4794 30.5119 10.3118 28.7294 9.72084 28.7294V23.3804ZM19.4416 18.9804C20.5263 18.8963 22.2885 17.6821 25.7382 18.4616C26.3072 18.5902 27.1988 18.943 27.6811 18.9804V20.7059H19.4416V18.9804ZM16.5717 17.3412V20.7059H6.94348V44H40.1792V20.7059H30.551V17.3412C29.8529 17.1896 28.6686 16.2902 25.591 15.7518C23.4113 15.3704 21.9645 15.5799 19.8115 16.133C18.4791 16.4754 16.9214 17.2653 16.5717 17.3412Z" fill="#123751"/>
<path fill-rule="evenodd" clip-rule="evenodd" d="M41.7529 14.8392C41.3343 14.8067 40.2084 14.3618 39.9007 14.3613C39.5571 14.3607 38.6575 14.7921 38.0498 14.8392C38.0498 12.8532 38.2595 13.377 37.4023 12.2504C37.2629 12.0672 37.0006 11.7764 36.9388 11.5608C38.6596 11.1872 38.7324 11.0299 39.2924 10.3031C39.4752 10.0659 39.7313 9.8467 39.8088 9.57648C40.061 9.63923 40.0376 9.6823 40.1715 9.84236L40.995 10.8867C41.2152 11.0992 41.5597 11.1423 41.9031 11.2483C42.281 11.3649 42.5921 11.4817 42.9564 11.5608L42.2692 12.4733C41.6541 13.2517 41.7529 13.3857 41.7529 14.8392ZM32.4025 10.1804L34.8095 13.3725C35.1109 13.76 35.1655 13.7445 35.1813 14.4064C35.1925 14.8747 35.2762 15.1288 35.273 15.7014C35.2679 16.6214 35.2724 17.5426 35.2724 18.4627C35.5062 18.3582 39.8594 17.122 39.9007 17.1221C40.0754 17.1224 44.215 18.3218 44.5303 18.4627C44.5303 17.9648 44.6274 17.809 44.625 17.2569L44.619 14.4905C44.6148 13.8722 44.6902 13.7971 44.9784 13.4451C45.2039 13.1697 47.3142 10.4807 47.4002 10.1804C46.6381 10.0149 45.7442 9.68071 44.9582 9.43648C44.359 9.25027 42.9971 8.94186 42.661 8.55772L40.2567 5.5355C40.0907 5.29864 40.1341 5.25746 39.8088 5.17651L37.1286 8.63172C36.8312 8.93755 35.3197 9.28425 34.8433 9.4354C34.2434 9.62569 32.9882 10.135 32.4025 10.1804Z" fill="white"/>
<path fill-rule="evenodd" clip-rule="evenodd" d="M4.44378 11.5608C4.78386 11.4869 6.15793 11.0958 6.35964 10.9305L7.19038 9.89291C7.33834 9.70654 7.33008 9.64151 7.59145 9.57648L8.63248 10.9358C8.80927 11.0587 10.1754 11.4987 10.4614 11.5608C10.2171 12.4132 9.33269 12.4101 9.34763 13.715C9.3519 14.0897 9.35047 14.4644 9.35047 14.8392C8.81067 14.7974 7.81871 14.3605 7.49889 14.3607C7.15426 14.361 6.15772 14.7996 5.64732 14.8392C5.64732 12.5388 5.60533 13.1773 4.44378 11.5608ZM0 10.1804C0.0951158 10.5123 1.46247 12.1929 1.77312 12.5829C1.99768 12.8649 2.14543 13.1091 2.38129 13.3965C2.96063 14.1026 2.77736 14.5071 2.77736 15.7882C2.77736 16.2487 2.77897 16.7093 2.77614 17.1698C2.77257 17.7483 2.86996 17.9593 2.86996 18.4627C3.14859 18.3381 7.38131 17.1216 7.49889 17.1215C7.57952 17.1214 11.8701 18.3475 12.1278 18.4627C12.1278 17.5713 12.1321 16.6789 12.1272 15.7877C12.1241 15.2156 12.2114 14.9566 12.2206 14.4943C12.2381 13.6196 12.3694 13.6192 13.1722 12.6204L14.9978 10.1804L10.8168 8.90015C10.1377 8.69972 10.264 8.61124 9.6018 7.7893L8.26587 6.10092C8.06514 5.85174 7.67037 5.45195 7.59145 5.17651C7.33008 5.24154 7.33834 5.30657 7.19038 5.49294C7.05145 5.668 6.96935 5.77663 6.83749 5.94054L4.73924 8.55772C4.45673 8.88051 4.11791 8.91671 3.69146 9.04794L0 10.1804Z" fill="white"/>
<path fill-rule="evenodd" clip-rule="evenodd" d="M20.5526 6.38432C22.5157 5.95809 22.4989 5.81424 23.5151 4.4C23.8882 4.63281 24.3598 5.47155 24.6652 5.74393C24.872 5.92831 26.2366 6.31189 26.5702 6.38432C26.4068 6.67215 26.3198 6.73754 26.1248 7.0045C25.2111 8.25539 25.4593 7.69371 25.4593 9.749C25.2917 9.67409 23.7743 9.20725 23.5923 9.19858C23.4452 9.19157 21.8997 9.64343 21.6635 9.749C21.6635 6.67743 21.6359 8.29224 20.5526 6.38432ZM16.1088 5.00394C16.2179 5.44005 18.1648 7.8374 18.4769 8.23236C18.7138 8.53213 18.881 8.65256 18.8931 9.13864L18.8862 13.2863L23.5304 11.9593C23.8047 11.9469 27.5236 13.1314 28.2367 13.2863L28.2305 9.22562C28.233 8.45324 29.121 7.65872 29.8476 6.67776C30.0722 6.37457 30.2479 6.14609 30.4592 5.86726C30.67 5.58915 30.9182 5.38732 31.014 5.00394C30.2703 4.84244 29.4084 4.51936 28.6419 4.28116C28.0683 4.10294 26.6194 3.75018 26.315 3.43C25.9121 3.00618 23.9709 0.284406 23.5151 0L20.8069 3.42912C20.5202 3.72869 16.7177 4.87173 16.1088 5.00394Z" fill="white"/>
</svg>
