<svg width="247" height="92" viewBox="0 0 247 92" fill="none" xmlns="http://www.w3.org/2000/svg">
<path d="M0 61.863H19.0882V70.4123H0V61.863Z" fill="white" fill-opacity="0.2"/>
<path d="M94.1211 74.9181V90.386L28.5412 90.5205V86.6199L60.3212 52.1872C64.7201 47.4348 67.9071 43.3548 69.8821 39.9474C71.8571 36.54 72.8447 33.1775 72.8447 29.8597C72.8447 26.004 71.7225 22.8656 69.4781 20.4445C67.2338 18.0235 64.2263 16.813 60.4558 16.813C56.6853 16.813 53.633 18.0683 51.2989 20.579C49.0545 23.0898 47.9324 26.3627 47.9324 30.3977C47.9324 32.0118 48.1568 34.1638 48.6057 36.8539H30.2918C29.6633 34.4328 29.3491 31.9221 29.3491 29.3217C29.3491 24.3003 30.606 19.5479 33.1196 15.0644C35.7231 10.581 39.4038 6.94943 44.1618 4.16971C48.9199 1.38998 54.441 0.000118446 60.7252 0.000118446C66.5605 0.000118446 71.8122 1.25548 76.4805 3.76619C81.2385 6.18725 84.9193 9.54982 87.5227 13.8539C90.2159 18.158 91.5625 23.0001 91.5625 28.3802C91.5625 34.388 89.9466 39.9923 86.7147 45.193C83.4829 50.3042 78.7249 56.1774 72.4407 62.8129L60.9945 74.9181H94.1211Z" fill="white" fill-opacity="0.2"/>
<path d="M143.944 92C136.223 92 129.714 89.9376 124.418 85.8129C119.121 81.6881 115.171 76.1287 112.568 69.1345C109.964 62.0507 108.662 54.1151 108.662 45.3275C108.662 31.7876 111.67 20.848 117.685 12.5089C123.7 4.1697 132.452 0.000118446 143.944 0.000118446C155.435 0.000118446 164.143 4.1697 170.068 12.5089C176.083 20.848 179.09 31.7876 179.09 45.3275C179.09 54.1151 177.788 62.0507 175.185 69.1345C172.581 76.1287 168.631 81.6881 163.335 85.8129C158.128 89.9376 151.664 92 143.944 92ZM160.372 45.4621C160.372 36.0469 159.026 28.9182 156.332 24.0761C153.729 19.234 149.599 16.813 143.944 16.813C138.198 16.813 133.979 19.234 131.285 24.0761C128.682 28.9182 127.38 36.0469 127.38 45.4621C127.38 65.2788 132.901 75.1871 143.944 75.1871C154.896 75.1871 160.372 65.2788 160.372 45.4621Z" fill="white" fill-opacity="0.2"/>
<path d="M203.218 25.2077C200.845 25.2077 198.674 24.6781 196.704 23.6189C194.735 22.5093 193.169 20.9961 192.008 19.0794C190.846 17.1628 190.266 15.0444 190.266 12.7242C190.266 10.404 190.846 8.31081 192.008 6.44458C193.169 4.52792 194.735 3.03998 196.704 1.98077C198.674 0.871123 200.845 0.3163 203.218 0.3163C205.541 0.3163 207.687 0.871123 209.657 1.98077C211.626 3.03998 213.192 4.52792 214.353 6.44458C215.515 8.31081 216.095 10.404 216.095 12.7242C216.095 15.0444 215.515 17.1628 214.353 19.0794C213.192 20.9961 211.626 22.5093 209.657 23.6189C207.687 24.6781 205.541 25.2077 203.218 25.2077ZM228.896 1.22419H237.153L208.369 51.1583H200.188L228.896 1.22419ZM203.294 18.1715C204.708 18.1715 205.869 17.6672 206.778 16.6584C207.738 15.6496 208.218 14.3382 208.218 12.7242C208.218 11.1606 207.738 9.8744 206.778 8.86563C205.869 7.85686 204.708 7.35247 203.294 7.35247C201.779 7.35247 200.542 7.85686 199.582 8.86563C198.674 9.8744 198.219 11.1606 198.219 12.7242C198.219 14.3382 198.674 15.6496 199.582 16.6584C200.491 17.6672 201.729 18.1715 203.294 18.1715ZM234.047 51.9906C231.724 51.9906 229.578 51.461 227.609 50.4018C225.639 49.2921 224.074 47.779 222.912 45.8623C221.751 43.9456 221.17 41.8272 221.17 39.507C221.17 37.1869 221.751 35.0937 222.912 33.2274C224.074 31.3108 225.639 29.8228 227.609 28.7636C229.578 27.654 231.724 27.0992 234.047 27.0992C236.37 27.0992 238.516 27.654 240.486 28.7636C242.506 29.8228 244.096 31.3108 245.258 33.2274C246.419 35.0937 247 37.1869 247 39.507C247 41.8272 246.419 43.9456 245.258 45.8623C244.096 47.779 242.531 49.2921 240.562 50.4018C238.592 51.461 236.421 51.9906 234.047 51.9906ZM234.123 44.8787C235.537 44.8787 236.698 44.3744 237.607 43.3656C238.567 42.3568 239.047 41.0706 239.047 39.507C239.047 37.9435 238.567 36.6573 237.607 35.6485C236.698 34.6397 235.537 34.1353 234.123 34.1353C232.558 34.1353 231.32 34.6397 230.411 35.6485C229.502 36.6068 229.048 37.893 229.048 39.507C229.048 41.1211 229.502 42.4325 230.411 43.4412C231.32 44.3996 232.558 44.8787 234.123 44.8787Z" fill="white" fill-opacity="0.2"/>
</svg>
