<svg width="22" height="24" viewBox="0 0 22 24" fill="none" xmlns="http://www.w3.org/2000/svg">
<path fill-rule="evenodd" clip-rule="evenodd" d="M9.82168 15.239C9.54193 15.0517 8.00478 13.2812 7.54914 12.8079L4.62526 9.68421L3.78492 10.4565C3.51652 10.728 3.09937 11.0556 2.96777 11.2521C3.08474 11.4732 3.22715 11.5799 3.40494 11.7557C3.51915 11.8686 3.53743 11.9004 3.63307 12.0203L9.04895 17.8484C9.42069 18.2183 9.56762 18.4794 10.1352 18.7332C10.9257 19.0867 11.7784 18.9061 12.427 18.3818C12.6096 18.2342 12.7742 18.0634 12.9127 17.882C13.0604 17.6884 13.2258 17.5614 13.3948 17.3786L14.8049 15.8322C14.8953 15.7429 14.9671 15.6788 15.0523 15.5867C15.1529 15.478 15.1685 15.427 15.2748 15.3165L16.217 14.3324C16.3176 14.2237 16.3332 14.1726 16.4395 14.0622L17.8745 12.5405C17.9751 12.4318 17.9907 12.3808 18.097 12.2703L19.0498 11.2521C18.9477 11.1837 18.9289 11.1501 18.8375 11.0612C18.7377 10.9639 18.7149 10.9639 18.6151 10.8805C18.4666 10.7564 18.3527 10.615 18.2108 10.4784C18.1115 10.3828 18.0866 10.3806 17.9879 10.2981C17.7539 10.1025 17.6411 9.88434 17.3475 9.72901C17.114 9.88541 14.7323 12.5221 14.4251 12.8541L12.1511 15.2838V0.545654H9.82168V15.239Z" fill="#00A0E3"/>
<path fill-rule="evenodd" clip-rule="evenodd" d="M0.638428 23.4817H21.3345V21.197H0.638428V23.4817Z" fill="#00A0E3"/>
</svg>
