<svg width="43" height="40" viewBox="0 0 43 40" fill="none" xmlns="http://www.w3.org/2000/svg">
<path fill-rule="evenodd" clip-rule="evenodd" d="M37.4916 34.5313L34.855 32.2656C34.4834 32.3477 34.1001 32.6041 33.7256 32.7572C31.3296 33.737 28.9838 33.9149 26.4499 33.2822C22.2952 32.2447 18.6388 28.2771 18.6238 24.3213C17.8081 24.6272 16.9529 24.8589 16.0674 25.0078C16.0953 25.0048 16.1233 25.0022 16.1516 25C16.1516 26.9766 17.5723 29.5764 18.7762 31.1051L20.2132 32.6332C22.129 34.1517 23.5455 35.0502 26.0879 35.6566C28.4428 36.2183 31.119 36.1455 33.4031 35.4202C33.7488 35.3104 34.1503 35.1428 34.443 35.0781C34.752 35.5157 35.3596 35.9054 35.782 36.3085C36.2617 36.7663 36.6993 37.0965 37.1824 37.5588L38.5823 38.8096C38.75 38.9567 38.7846 38.9542 38.9504 39.0855C39.3584 39.409 39.6438 39.8982 40.0458 40C40.0458 38.853 39.9341 31.248 40.101 30.8336C40.1014 30.8327 41.1757 29.2585 41.7881 27.8239C42.2758 26.681 42.5388 25.4222 42.6 24.141V22.9606C42.5173 21.1959 42.0678 19.4425 41.3103 17.9417C39.1459 13.6536 34.4134 10.7812 29.3346 10.7812C28.4556 10.7812 27.7195 11.0027 26.9308 11.0151C26.9997 11.5347 27.0355 12.064 27.0355 12.6012C27.0355 12.9017 27.0236 13.1995 27.0017 13.4947L26.9996 13.4977C27.0592 13.4122 27.2343 13.3974 27.9564 13.3026C30.9493 12.9094 34.4084 13.8802 36.3596 15.6827C37.0462 16.3169 36.6263 15.8037 37.3515 16.6172L38.2338 17.6557C38.9403 18.6069 39.5467 19.9636 39.8316 21.1406C40.5764 24.2177 39.7925 27.2908 37.8325 29.6982C37.3775 30.257 37.4901 30.1731 37.4916 31.0937C37.4934 32.2395 37.4916 33.3854 37.4916 34.5313ZM18.8822 24.2214C19.0928 24.1483 19.3393 24.0398 19.6013 23.9101C19.3654 24.0202 19.1257 24.1242 18.8822 24.2214ZM19.6037 23.9089C19.6458 23.8881 19.6884 23.8667 19.7312 23.8448C19.6884 23.8667 19.6458 23.8881 19.6037 23.9089ZM19.8751 23.7702C19.9339 23.7393 19.993 23.7075 20.0524 23.6752C19.993 23.7076 19.9339 23.7393 19.8751 23.7702ZM20.1483 23.6226C20.1785 23.6059 20.2088 23.589 20.2391 23.572C20.2088 23.5891 20.1785 23.6059 20.1483 23.6226ZM21.3812 22.8774C21.4072 22.8603 21.4327 22.8434 21.4579 22.8267L21.3812 22.8774ZM15.5909 25.0786C15.3758 25.1145 15.1548 25.1493 14.9156 25.1562C14.8878 25.1569 14.8604 25.1578 14.8333 25.1586C15.0879 25.1386 15.3405 25.1119 15.5909 25.0786ZM13.8566 25.2009C13.2406 25.2288 12.7348 25.2373 11.9908 25.131V25.0961C12.5584 25.166 13.1372 25.2025 13.725 25.2025C13.769 25.2025 13.8128 25.2013 13.8566 25.2009ZM0.904213 16.1309C0.88565 16.071 0.867804 16.0112 0.850519 15.9513C0.867804 16.0112 0.885681 16.071 0.904213 16.1309ZM0.748364 15.568C0.733539 15.5073 0.719306 15.4465 0.705633 15.3855C0.719306 15.4465 0.733539 15.5073 0.748364 15.568ZM0.682524 15.2797C0.663712 15.1911 0.646084 15.1021 0.629578 15.0124C0.646084 15.1021 0.663743 15.1911 0.682524 15.2797ZM0.578874 14.7122C0.548788 14.517 0.523529 14.3179 0.502569 14.1132C0.523529 14.3179 0.548788 14.517 0.578874 14.7122ZM0.502132 14.109C0.490578 13.9958 0.480238 13.8809 0.471206 13.764L0.474414 13.7967H0.473853C0.482262 13.9024 0.491637 14.0064 0.502132 14.109ZM0.416733 12.4288C0.415176 12.2992 0.414429 12.1668 0.414429 12.0312C0.414429 8.80682 2.51755 4.87868 5.15729 2.93464C5.33734 2.80207 5.51972 2.67181 5.70472 2.54433C2.53667 4.81256 0.47404 8.39128 0.416733 12.4288ZM7.1305 1.65313C8.89327 0.667258 10.8678 0 13.1031 0C13.2679 0 13.4257 0.000560633 13.5776 0.00174188C11.2335 0.0258394 9.03448 0.622843 7.1305 1.65313ZM14.4611 0.0194318C15.8396 0.0683947 16.7122 0.225029 17.9641 0.652908L17.9636 0.652729C16.8541 0.300126 15.6795 0.0823334 14.4611 0.0194318ZM19.0868 1.06513L19.1888 1.10456C20.1922 1.49346 21.1182 2.04702 21.9605 2.70123C21.0848 2.04755 20.1201 1.4962 19.0868 1.06513Z" fill="#2B2A29"/>
<path fill-rule="evenodd" clip-rule="evenodd" d="M10.1368 9.84381C10.1368 10.1364 11.783 10.0001 12.4439 10.0001C12.8014 10.0001 12.6316 9.60156 12.9129 9.27291C13.3129 8.80569 14.1431 8.75339 14.5831 9.22164C15.3047 9.9896 14.7312 11.0157 13.6798 11.0157H12.5263V14.6094C15.6042 14.6094 15.0805 14.9999 15.0805 13.1251C16.1519 12.8884 17.3875 11.4982 17.3875 10.2344V9.68756C17.3875 7.15977 13.6386 5.21894 11.2693 7.4801C10.6205 8.09934 10.1368 8.85551 10.1368 9.84381Z" fill="#2B2A29"/>
<path fill-rule="evenodd" clip-rule="evenodd" d="M27.8515 28.5156H30.4057V22.7344H27.8515V28.5156Z" fill="#2B2A29"/>
<path fill-rule="evenodd" clip-rule="evenodd" d="M27.8515 19.3749C27.8515 20.9195 30.2768 21.0334 30.3865 19.5171C30.5057 17.8696 27.8515 17.79 27.8515 19.3749Z" fill="#2B2A29"/>
<path fill-rule="evenodd" clip-rule="evenodd" d="M12.5262 16.9532C12.5262 18.8059 14.9981 18.5236 14.9981 17.2657C14.9981 15.3031 12.5262 15.7694 12.5262 16.9532Z" fill="#2B2A29"/>
<path fill-rule="evenodd" clip-rule="evenodd" d="M18.6238 24.3213C18.6237 24.3132 18.6234 24.305 18.6234 24.2969C18.7013 24.2796 18.7882 24.254 18.8821 24.2214C19.1257 24.1242 19.3654 24.0202 19.6014 23.91C20.5465 23.4425 21.6948 22.7011 22.1024 22.3613C24.3441 20.4924 25.6114 18.8561 26.5237 15.9285C26.9109 14.686 26.827 14.1682 26.9484 13.6749C26.9696 13.589 26.9722 13.5342 27.0017 13.4947C27.0235 13.1995 27.0354 12.9017 27.0354 12.6012C27.0354 12.0639 26.9997 11.5346 26.9307 11.015C26.9081 11.0154 26.8855 11.0156 26.8628 11.0156C26.8628 9.71776 26.0108 7.75754 25.4356 6.66571C25.1229 6.07207 24.6508 5.40106 24.2375 4.91105C23.5671 4.11616 22.806 3.358 21.9606 2.70131C21.0848 2.04758 20.1201 1.4962 19.0867 1.0651C18.6724 0.905426 18.3039 0.76899 17.9635 0.652696C16.8538 0.300034 15.6789 0.0822112 14.4603 0.0193686C14.1883 0.0097119 13.8964 0.00424867 13.5781 0.00170898C11.2337 0.0257179 9.03431 0.622782 7.13012 1.65328C6.6389 1.92803 6.16409 2.22757 5.70468 2.54429C2.53659 4.81256 0.473931 8.39134 0.416687 12.4289C0.422355 12.908 0.43908 13.3485 0.471097 13.7634L0.474367 13.7967H0.473807C0.608851 15.4964 1.0038 16.7717 1.95116 18.5428L2.90348 19.9836C3.10125 20.4103 2.9686 27.9694 2.9686 29.1406C3.304 29.0557 3.46197 28.7735 3.71013 28.5937L5.78955 26.7373C5.95726 26.5902 5.99186 26.5927 6.15765 26.4613C6.6541 26.0678 8.09162 24.6538 8.65375 24.2969C9.01746 24.3772 9.37569 24.5299 9.76413 24.6502C10.1838 24.7803 10.5035 24.8432 10.9434 24.9383C11.3474 25.0257 11.6886 25.0878 11.9907 25.1309V25.096C12.5584 25.166 13.1371 25.2024 13.7249 25.2024C13.7691 25.2024 13.813 25.2013 13.857 25.2009C14.1461 25.1878 14.4595 25.1704 14.8333 25.1586C15.0879 25.1386 15.3405 25.1119 15.5908 25.0786C15.7513 25.0518 15.9084 25.0245 16.0673 25.0078C16.9528 24.8589 17.808 24.6272 18.6238 24.3213ZM2.88619 12.5781C2.88619 5.38473 10.8321 0.208547 18.0192 3.22912C18.6075 3.47639 19.219 3.77932 19.7291 4.10777C20.0044 4.28495 20.2197 4.44581 20.4849 4.64116C21.1066 5.09913 21.9938 5.98859 22.448 6.60789C22.8274 7.12522 23.1672 7.6367 23.4576 8.22868C25.9526 13.314 23.8305 19.2089 18.2673 21.8499C15.9179 22.9652 13.1355 23.0707 10.5825 22.3899C10.1664 22.2789 8.60663 21.7069 8.2418 21.4062C7.92138 21.6097 7.84178 21.6643 7.56166 21.9332C7.32362 22.1617 7.16416 22.3434 6.88871 22.5451C6.3799 22.9177 6.08237 23.3911 5.52279 23.6719L5.52463 19.4513C5.49068 19.1575 5.38519 19.1138 5.20574 18.8943C3.76326 17.1303 2.88619 14.9392 2.88619 12.5781Z" fill="#00A0E3"/>
<path fill-rule="evenodd" clip-rule="evenodd" d="M10.1368 9.84368C10.1368 10.1363 11.783 9.99993 12.4439 9.99993C12.8014 9.99993 12.6316 9.60144 12.9129 9.27279C13.3129 8.80557 14.1431 8.75327 14.5831 9.22152C15.3047 9.98948 14.7312 11.0156 13.6798 11.0156H12.5263V14.6093C15.6042 14.6093 15.0805 14.9998 15.0805 13.1249C16.1519 12.8883 17.3875 11.4981 17.3875 10.2343V9.68744C17.3875 7.15965 13.6386 5.21882 11.2693 7.47997C10.6205 8.09921 10.1368 8.85539 10.1368 9.84368Z" fill="#00A0E3"/>
<path fill-rule="evenodd" clip-rule="evenodd" d="M12.5263 16.9531C12.5263 18.8057 14.9981 18.5235 14.9981 17.2656C14.9981 15.303 12.5263 15.7692 12.5263 16.9531Z" fill="#00A0E3"/>
</svg>
