<svg width="43" height="40" viewBox="0 0 43 40" fill="none" xmlns="http://www.w3.org/2000/svg">
<path fill-rule="evenodd" clip-rule="evenodd" d="M20.7405 28.8188C23.6347 28.8188 25.5295 28.8876 27.9514 30.2696C28.418 30.5359 29.0614 30.9548 29.4202 31.3009C29.9948 31.855 29.6115 31.3913 30.3694 32.1992C30.4996 32.338 30.5535 32.3663 30.6849 32.5257C31.7214 33.7836 32.945 35.9814 32.945 37.6543H9.69049C9.69049 35.9627 10.8971 33.843 11.9154 32.5704C12.5522 31.7745 12.6642 31.8134 13.1755 31.3413C13.4231 31.1127 13.5572 31.0045 13.8484 30.8065C15.9529 29.3763 17.896 28.8188 20.7405 28.8188ZM21.3178 16.1519C22.3375 16.1519 23.5759 16.5531 24.3118 17.0661C24.539 17.2244 24.8523 17.4628 25.0326 17.6338C25.4472 18.0269 25.845 18.5852 26.0998 19.1239C26.9526 20.9264 26.6126 23.3555 25.2137 24.8502C22.7241 27.5102 17.9055 26.8405 16.4505 23.3473C15.9068 22.042 15.9614 20.3782 16.5106 19.1782C17.0215 18.062 17.9473 17.1363 19.113 16.6416C19.451 16.4982 19.702 16.396 20.0772 16.3048C20.3193 16.2461 21.0236 16.1519 21.3178 16.1519ZM16.2051 27.0986C15.4458 27.1585 13.4065 28.2036 12.6933 28.6947C9.18905 31.1076 7.13416 34.6488 7.13416 38.9053C7.13416 39.6352 7.91202 40 8.7834 40H33.8521C34.2905 40 34.7354 39.941 34.9884 39.7482C35.552 39.3187 35.5014 38.9709 35.5014 38.4362C35.5014 36.4975 34.7217 34.1671 33.7651 32.6545C33.4169 32.1039 33.1017 31.6633 32.6985 31.1636C31.9325 30.2142 31.0141 29.4496 29.9895 28.7281C29.2716 28.2226 27.1974 27.1591 26.4305 27.0986C26.5275 26.7539 26.8658 26.58 27.1125 26.3378C28.3369 25.1358 29.2844 22.5791 29.0228 20.9677C28.8132 19.6767 29.1036 20.1354 28.5246 18.545C28.0398 17.2136 27.0234 16.0743 25.8895 15.2574C21.7017 12.2405 15.722 14.2478 14.1119 18.5458C13.5116 20.1481 13.4351 21.8461 13.8951 23.5028C14.0912 24.2091 14.4623 24.9261 14.8512 25.4893C15.4943 26.4205 16.1062 26.7475 16.2051 27.0986Z" fill="#2B2A29"/>
<path fill-rule="evenodd" clip-rule="evenodd" d="M32.6152 8.88013C33.0126 8.84877 34.4404 8.37818 34.6934 8.19216C34.9937 7.97131 35.6023 6.90713 35.9137 6.6908C37.0302 8.27172 37.1223 8.43666 39.1298 8.88013C39.0063 9.31867 38.3653 9.88334 38.1105 10.3376C37.7989 10.8931 37.8928 11.7436 37.8928 12.5551C37.3921 12.4445 36.376 12.0078 35.9137 12.0078C35.3114 12.0078 34.4757 12.5059 33.8522 12.5551C33.8522 11.7577 33.9617 10.8118 33.6636 10.3099C33.3975 9.86181 32.9455 9.47198 32.6152 8.88013ZM29.3167 8.2546C29.3167 9.09356 31.2088 10.81 31.3567 11.3245C31.724 12.6025 30.5063 15.37 32.6977 15.37C33.2396 15.37 35.6217 14.4317 35.9137 14.4317C36.396 14.4317 38.2405 15.37 39.3772 15.37C40.944 15.37 40.3667 12.4406 40.3667 11.3822C40.3667 11.1847 42.4283 9.01663 42.4283 8.41098C42.4283 7.33431 41.753 7.23926 40.8917 6.97492C40.5068 6.85677 40.2314 6.75163 39.8371 6.64561C38.2969 6.23137 38.7915 6.41848 37.5505 4.82609C36.7816 3.8395 36.7915 3.48499 35.7488 3.48499C35.3739 3.48499 35.0504 3.76121 34.864 3.97527C34.5085 4.38375 33.3327 6.14984 33.0398 6.31146C32.8858 6.39645 32.2293 6.56494 31.9867 6.64218C31.5822 6.77094 31.26 6.84463 30.8515 6.9732C30.5232 7.07648 30.0896 7.1851 29.8418 7.34509C29.6215 7.48731 29.3167 7.972 29.3167 8.2546Z" fill="#12AADA"/>
<path fill-rule="evenodd" clip-rule="evenodd" d="M18.0193 5.43979C18.3707 5.41206 19.8824 4.91241 20.0979 4.7522C20.4055 4.52348 21.0383 3.44462 21.3178 3.25045C21.4663 3.35362 21.7861 3.80576 21.9282 4.00095C22.0857 4.21745 22.3497 4.61247 22.5377 4.7522C22.7532 4.91241 24.2649 5.41206 24.6163 5.43979C23.1167 7.56322 23.3794 6.29897 23.3794 9.11472C22.7288 9.06341 21.9548 8.56739 21.3178 8.56739C20.6808 8.56739 19.9067 9.06341 19.2562 9.11472C19.2562 7.17984 19.5907 7.45008 18.573 6.16577C18.3639 5.9019 18.2034 5.70044 18.0193 5.43979ZM17.9368 11.9296C18.8384 11.9296 20.8883 10.9913 21.3178 10.9913C22.2634 10.9913 25.8815 13.3916 25.8554 10.446C25.8256 7.07202 25.5715 8.31491 27.057 6.26844C27.419 5.76978 28.0506 5.27119 27.8216 4.51703C27.5545 3.63735 26.2419 3.51003 25.0587 3.14374L24.1936 2.86937C23.538 2.55212 22.5897 0.0875815 21.379 0.00297676C20.5872 -0.0523737 20.1765 0.676795 19.8329 1.13874L18.6658 2.6906C18.4619 2.92987 18.6244 2.81469 18.2611 2.9324C17.0643 3.32004 15.1771 3.61281 14.8558 4.40035C14.5187 5.22675 15.3641 6.01944 16.0991 6.94766C16.2092 7.08659 16.278 7.17499 16.382 7.30497C17.0655 8.15872 16.794 8.486 16.7818 10.2881C16.7779 10.855 16.7616 11.0334 16.9976 11.4127C17.1513 11.6597 17.5849 11.9296 17.9368 11.9296Z" fill="#12AADA"/>
<path fill-rule="evenodd" clip-rule="evenodd" d="M8.7834 12.5551C8.15986 12.5059 7.32415 12.0077 6.72185 12.0077C6.25961 12.0077 5.24352 12.4444 4.74275 12.5551C4.74275 11.7436 4.83671 10.8931 4.52508 10.3375C4.27031 9.88331 3.62927 9.31864 3.5058 8.8801C5.36208 8.47005 5.42338 8.37176 6.13211 7.46083C6.32801 7.20904 6.54816 6.93671 6.72185 6.69077C7.03327 6.9071 7.64185 7.97128 7.9422 8.19213C8.19516 8.37815 9.62294 8.84874 10.0203 8.8801C9.68766 9.47627 9.24771 9.84552 8.97194 10.3099C8.67521 10.8096 8.7834 11.774 8.7834 12.5551ZM0.207275 8.17639C0.207275 8.92867 0.631092 9.25902 1.16155 9.93005C2.78202 11.9799 2.17995 10.8454 2.18334 13.8088C2.18691 16.9014 5.68162 14.4316 6.72185 14.4316C7.67583 14.4316 10.0781 16.1535 11.0276 14.9176C11.5247 14.2707 11.0678 12.4154 11.2643 11.3888C11.4277 10.5345 14.3433 8.62191 12.8875 7.41254C12.6485 7.21397 12.1871 7.10119 11.8456 6.99301C8.93007 6.06931 9.9963 6.85796 8.11121 4.43509C7.99634 4.28743 7.92844 4.16529 7.80815 4.01874C7.21412 3.29503 6.20507 3.29577 5.69626 3.99813C5.4 4.40705 4.11266 6.18001 3.91638 6.29819C3.74859 6.39925 3.12967 6.55943 2.86353 6.62913C2.51924 6.71927 2.18924 6.83554 1.80601 6.95564C1.45333 7.06617 1.03925 7.14044 0.772617 7.305C0.535057 7.45163 0.207275 7.82232 0.207275 8.17639Z" fill="#12AADA"/>
</svg>
