<svg width="16" height="32" viewBox="0 0 16 32" fill="none" xmlns="http://www.w3.org/2000/svg">
<path fill-rule="evenodd" clip-rule="evenodd" d="M0.616699 6.30026V24.4065C0.616699 25.2816 1.05875 26.2836 1.41988 27.013L2.0776 28.06C2.36245 28.4242 2.60069 28.6511 2.92394 28.9773C3.43196 29.4899 4.26719 30.0772 4.99166 30.378C5.93668 30.7704 6.8228 30.9938 7.7007 31.0494H8.57291C9.44027 30.9945 10.316 30.776 11.2489 30.3946C13.0869 29.6433 14.761 27.7693 15.3658 25.8699C15.485 25.4957 15.6661 24.8674 15.6661 24.4065V4.71303H13.7849V23.1132C13.7849 24.5183 13.525 25.4983 12.8787 26.5573C12.7767 26.7245 12.7043 26.8152 12.5844 26.9683C12.0317 27.6742 11.4004 28.2188 10.5325 28.62C9.88699 28.9184 8.84634 29.1688 8.14137 29.1688C5.8696 29.1688 3.75756 27.7089 2.9256 25.6248C2.64116 24.9122 2.49786 24.0881 2.49786 23.1132V6.88812C2.49786 6.31767 2.59826 5.63571 2.77317 5.22348C3.06335 4.53951 3.45875 4.03261 4.02499 3.59476C4.86284 2.94693 6.04869 2.69598 7.08524 2.94741C8.94431 3.39835 10.0225 4.90942 10.0225 6.88812V23.2308C10.0225 26.1144 6.2602 26.1095 6.2602 23.2308V8.47537H4.37903V23.7599C4.37903 25.5351 6.131 27.2871 7.90622 27.2871H8.37652C10.1517 27.2871 11.9037 25.5351 11.9037 23.7599V6.30026C11.9037 3.57336 9.28104 0.950684 6.55414 0.950684H5.96627C3.23937 0.950684 0.616699 3.57336 0.616699 6.30026Z" fill="#00A0E3"/>
</svg>
