<svg width="24" height="24" viewBox="0 0 24 24" fill="none" xmlns="http://www.w3.org/2000/svg">
<path fill-rule="evenodd" clip-rule="evenodd" d="M1 5.3937C1 6.29566 1.05184 6.6649 1.42466 7.50872C2.15216 9.1554 2.69168 10.1842 3.59498 11.6876L5.35074 14.1646C6.21942 15.2246 7.1463 16.2467 8.15542 17.1801C8.27716 17.2927 8.32652 17.3039 8.4475 17.4171L9.59374 18.3872C11.4648 19.848 12.7909 20.5997 14.8271 21.6194C16.3373 22.3757 18.1669 23.2567 19.7941 22.2301C20.0076 22.0954 20.2326 21.9561 20.4058 21.7837C21.1232 21.0696 22.5873 19.6201 22.5873 18.6212C22.5873 16.7488 21.0278 16.3062 19.541 15.4241C19.31 15.287 19.1154 15.2008 18.8938 15.066L16.9797 14.0171C15.9653 13.5156 14.8594 13.6035 14.2827 14.7081C14.1621 14.9392 14.1001 15.2008 14.0286 15.4593C13.9407 15.7765 13.7718 15.9228 13.4339 15.9228C12.892 15.9228 11.8343 14.8259 11.3625 14.4492L10.6168 13.7663C10.2371 13.4319 9.89766 13.0212 9.55886 12.6549L8.21208 11.1446C6.93548 9.63418 8.3804 9.7016 9.05982 9.32654C9.60388 9.0262 9.9418 8.57838 9.9418 7.82756C9.9418 7.0237 9.43282 6.32608 9.10548 5.80672C8.52638 4.88788 7.42584 2.5873 7.09278 2.10516C6.1625 0.758481 4.97942 0.692341 3.7507 1.63646L2.56492 2.62C1.76768 3.23924 1 4.33512 1 5.3937Z" stroke="#46BB60" stroke-width="2"/>
</svg>
