<svg width="164" height="4" viewBox="0 0 164 4" fill="none" xmlns="http://www.w3.org/2000/svg">
<path fill-rule="evenodd" clip-rule="evenodd" d="M4.88643 4H0.931885V0H4.88643V4ZM12.7955 4H8.84098V0H12.7955V4ZM20.7046 4H16.7501V0H20.7046V4ZM28.6137 4H24.6592V0H28.6137V4ZM36.5228 4H32.5683V0H36.5228V4ZM44.4319 4H40.4773V0H44.4319V4ZM52.341 4H48.3864V0H52.341V4ZM60.2501 4H56.2955V0H60.2501V4ZM68.1591 4H64.2046V0H68.1591V4ZM76.0682 4H72.1137V0H76.0682V4ZM83.9773 4H80.0228V0H83.9773V4ZM91.8864 4H87.9319V0H91.8864V4ZM99.7955 4H95.841V0H99.7955V4ZM107.705 4H103.75V0H107.705V4ZM115.614 4H111.659V0H115.614V4ZM123.523 4H119.568V0H123.523V4ZM131.432 4H127.477V0H131.432V4ZM139.341 4H135.386V0H139.341V4ZM147.25 4H143.295V0H147.25V4ZM155.159 4H151.205V0H155.159V4ZM163.068 4H159.114V0H163.068V4Z" fill="#69D1FD"/>
</svg>
