<svg width="124" height="124" viewBox="0 0 124 124" fill="none" xmlns="http://www.w3.org/2000/svg">
<g clip-path="url(#clip0_584_1800)">
<path d="M124 62C124 96.2417 96.2417 124 62 124C27.7583 124 0 96.2417 0 62C0 27.7583 27.7583 0 62 0C96.2417 0 124 27.7583 124 62Z" fill="white" fill-opacity="0.3"/>
<path fill-rule="evenodd" clip-rule="evenodd" d="M34.6632 92.6173H79.1831V94.9605H34.6632V92.6173ZM41.6926 87.7748H71.9975V90.2742H41.6926V87.7748ZM49.9718 78.246C49.9718 71.3907 57.4299 69.0641 61.4258 72.728L61.8284 73.1064C62.84 74.1557 63.7183 75.7346 63.7183 77.3087V85.4316H49.9718V78.246ZM66.0615 80.5892C66.0615 78.5863 66.2225 77.1239 65.6516 75.2192C65.4718 74.6193 65.2438 74.229 65.1242 73.7159C67.2678 72.5816 64.9916 72.622 68.8733 72.6224C70.5395 72.6226 72.2057 72.6224 73.872 72.6224C73.355 74.8417 68.1672 80.0269 66.0615 80.5892ZM66.6863 67.9361H86.8375V70.2793H66.6863V67.9361ZM44.9731 63.5622C44.9731 67.5761 46.426 70.1154 48.8107 72.6901C49.0602 72.9595 48.845 72.6761 49.0346 72.9348C48.8631 73.6704 48.251 74.364 47.8938 76.168C47.69 77.1968 47.7849 79.2566 47.7849 80.5892C46.7266 80.3426 43.7584 77.9325 43.054 77.197C42.6863 76.8131 42.6314 76.6344 42.2781 76.2546C39.8483 73.6428 37.6312 68.7351 37.6312 64.4994C37.6312 59.8974 38.2771 57.1826 40.45 53.5717C41.4724 51.8726 45.3368 47.4725 46.5352 47.4725C46.7886 47.4725 52.1461 51.7152 52.4712 52.1588C51.7166 52.3346 50.0637 53.4227 49.5395 53.9135C46.9139 56.3724 44.9731 59.262 44.9731 63.5622ZM62.6248 63.0936C59.8775 63.0936 59.5618 60.8351 60.7834 59.3777L73.892 42.9624C74.0713 42.7338 74.1636 42.5628 74.3719 42.3489C76.2384 40.432 79.3983 42.9734 77.5603 45.381C77.2301 45.8136 76.922 46.1578 76.5767 46.5843L65.0039 61.0988C64.4566 61.7678 63.6775 63.0936 62.6248 63.0936ZM54.6581 33.5698C54.9609 33.5698 68.8055 44.5617 69.1857 45.1293C68.1688 46.6479 61.129 54.9182 60.9066 55.7517C60.3727 55.6091 55.0858 51.293 54.551 50.86C52.4036 49.1214 50.3481 47.5332 48.2175 45.7901C47.9197 45.5465 47.7338 45.4073 47.4364 45.1654C45.5776 43.6528 45.7437 44.2309 49.3675 39.6825L53.7355 34.2092C53.9769 33.9047 54.1366 33.5698 54.6581 33.5698ZM46.8476 39.1933C46.1417 38.7207 45.5228 38.1039 44.8168 37.6312L46.0113 33.046C46.1818 32.4655 46.3642 32.0459 46.379 31.3828C47.0124 31.718 50.094 34.146 50.4404 34.6633C49.9248 35.4333 49.267 36.1592 48.6546 36.9389C48.3229 37.3612 48.0793 37.6601 47.7489 38.0639C47.4611 38.4157 47.0663 38.8667 46.8476 39.1933ZM45.4417 40.9117C44.6835 42.0439 44.0358 42.2925 44.0358 44.0359C44.0358 45.1129 44.4735 45.2096 44.6607 45.9104C44.3484 46.1195 44.0208 46.317 43.721 46.5329C38.5823 50.234 35.288 57.2343 35.288 63.7184C35.288 68.8623 37.0681 72.8096 39.1605 75.9356C40.0929 77.3286 41.7135 79.1659 43.0303 80.1887C43.8829 80.851 44.4532 81.2955 45.3767 81.9038C45.8411 82.2098 46.1957 82.3738 46.6616 82.6496C47.972 83.4253 47.7849 82.7006 47.7849 85.4316H41.224C38.9857 85.4316 39.5057 86.8424 39.5057 90.2742H33.5697C32.8141 90.2742 32.32 90.7682 32.32 91.5239V96.054C32.32 96.8096 32.8141 97.3036 33.5697 97.3036H80.1204C80.6913 97.3036 81.3701 96.8725 81.3701 96.3664V91.3676C81.3701 90.6384 81.0058 90.2742 80.2767 90.2742H74.3407C74.3407 84.5792 75.481 85.4316 66.0615 85.4316V83.0885C67.4255 82.7707 71.3998 79.8541 72.2669 78.8278C74.5343 76.1442 74.6305 76.2077 76.5276 72.6224C77.3735 72.6224 87.5945 72.7293 88.1835 72.5625C88.5527 72.4579 89.0244 72.0855 89.0244 71.6851V66.8426C89.0244 66.1134 88.6602 65.7491 87.9309 65.7491H65.5929C64.2946 65.7491 64.4933 66.829 64.4989 68.0918C64.504 69.2371 64.4994 70.3835 64.4994 71.5289C64.0372 71.6523 64.2462 71.5925 63.8745 71.8414C62.7069 71.0595 61.1492 68.7172 57.0013 68.7172C54.8425 68.7172 53.483 69.2048 51.8133 70.2463C51.2312 70.6094 51.0794 70.8932 50.5967 71.2165C49.0825 70.2026 47.3162 66.7341 47.3162 64.6557C47.3162 61.2113 47.512 59.8222 49.6562 56.9982C51.3023 54.8301 53.0094 54.512 54.6581 53.7209C55.0692 54.3349 56.2914 55.1054 56.9527 55.644C57.3623 55.9776 57.6793 56.238 58.0742 56.5532C58.5589 56.9401 58.7947 57.1791 59.3444 57.47C58.2098 59.1643 56.5947 61.3772 58.9903 64.0725C60.6696 65.9619 63.7743 65.9494 65.7123 63.8379L78.8913 47.3368C80.5275 45.2866 81.2955 42.9836 79.1488 40.7898C78.661 40.2913 78.5731 40.1841 77.8866 39.8651C75.6384 38.8204 73.7582 39.5045 72.3451 41.2592L70.7478 43.2548C70.0245 42.7705 69.516 42.3182 68.8058 41.7602L63.0575 37.1985C61.7562 36.1339 60.5519 35.2099 59.2373 34.1455C58.3581 33.4337 56.0808 31.3828 55.1267 31.3828C53.6612 31.3828 52.9263 31.4093 52.0025 32.7887C48.3146 30.3192 45.51 26.3995 44.6535 29.3449L42.5725 36.9511C42.0371 38.6968 42.4672 38.5999 43.9999 39.8541C44.5053 40.2677 44.8816 40.6153 45.4417 40.9117Z" fill="#283A42"/>
<path fill-rule="evenodd" clip-rule="evenodd" d="M56.8451 76.2155C58.7966 76.2155 59.4854 78.5208 58.2978 79.699C57.097 80.8902 55.0055 80.0317 54.8865 78.3627C54.8121 77.3199 55.7137 76.2155 56.8451 76.2155ZM52.6274 77.9338C52.6274 84.3233 61.219 83.5212 61.219 78.2462C61.219 77.1949 60.6991 76.1214 60.0324 75.3713C57.58 72.6119 52.6274 74.3225 52.6274 77.9338Z" fill="#283A42"/>
</g>
<defs>
<clipPath id="clip0_584_1800">
<rect width="124" height="124" fill="white"/>
</clipPath>
</defs>
</svg>
