<svg width="124" height="124" viewBox="0 0 124 124" fill="none" xmlns="http://www.w3.org/2000/svg">
<path d="M124 62C124 96.2417 96.2417 124 62 124C27.7583 124 0 96.2417 0 62C0 27.7583 27.7583 0 62 0C96.2417 0 124 27.7583 124 62Z" fill="white" fill-opacity="0.3"/>
<path fill-rule="evenodd" clip-rule="evenodd" d="M66.0615 75.5905C66.9803 76.2058 66.7561 76.3715 68.0922 76.3715C70.0157 76.3715 70.3268 74.7031 70.9557 73.4553C71.6419 72.0939 72.2468 70.7984 72.9347 69.4982C74.6762 69.537 79.5234 71.0212 80.9356 71.9635C82.9037 73.2769 84.4943 75.7882 84.4943 79.0271V90.7429H79.4956V87.6186C79.4956 86.8309 80.4328 87.1581 80.4328 85.9004C80.4328 84.7368 79.2597 84.3741 78.4435 85.0002C76.4936 86.496 76.9962 87.3408 76.9962 90.7429H74.6531C74.6531 88.269 74.6536 87.0416 73.7628 84.7599C71.8159 79.7732 70.1229 81.7447 70.1229 82.7762C70.1229 83.5271 70.8214 83.9735 71.4206 85.3838C72.5469 88.0348 72.4031 91.3379 71.1141 93.9209C67.3492 101.465 56.7999 101.494 52.9153 94.0478C50.8411 90.0717 51.925 84.5188 54.8573 82.0381C55.139 81.7997 55.1796 81.8186 55.4738 81.5611C55.7986 81.2767 55.7522 81.2619 56.1524 80.99C61.6521 77.2544 66.7094 80.433 67.155 80.433C68.2206 80.433 69.3797 78.8899 67.2112 77.8773C66.6875 77.6327 66.0895 77.3233 65.4366 77.3088C65.6134 76.9404 66.025 76.0288 66.0615 75.5905ZM60.972 22.0103H63.0639C65.2302 22.1619 67.3881 22.785 69.5002 23.8827C71.2039 24.7682 72.8202 26.1937 74.0664 27.5956C77.3416 31.2803 77.7773 35.5038 77.7773 40.5993C78.3042 40.2465 78.5147 39.8925 79.1497 39.4723C83.1774 36.8073 87.6094 37.0932 91.0775 40.2645C92.5802 41.6385 93.8669 44.2252 93.8669 46.3791C93.8669 50.7291 94.4683 54.4229 92.1968 57.5182C90.5605 59.7477 89.0244 59.9879 89.0244 60.5943C89.0244 63.065 88.8008 62.4001 91.0367 63.1121C93.1738 63.7927 95.8078 64.4039 97.6116 65.4412C99.6567 66.6174 101.99 69.582 101.99 72.7787V75.1535C101.904 75.8423 101.662 76.3715 101.053 76.3715C99.5721 76.3715 99.6254 75.5791 99.6452 74.3423C99.662 73.2867 99.549 72.4155 99.3716 71.6479C98.8562 69.418 97.2482 67.7687 95.2755 66.9963C94.5649 66.718 93.9914 66.5476 93.1519 66.308L88.712 64.9682C88.5887 66.4496 86.4077 67.9361 84.4943 67.9361C82.4214 67.9361 81.2449 66.5028 80.4328 64.9682L74.018 66.9887C73.6689 67.145 73.8782 67.0421 73.7158 67.1551C74.4159 67.2133 75.6046 67.5873 76.2466 67.7485C77.0783 67.9572 77.7967 68.0993 78.627 68.336C80.358 68.8295 81.4006 69.2864 82.6662 70.2329C87.4032 73.7759 86.8375 78.138 86.8375 83.0886H91.9924C91.9924 80.1487 91.4713 78.0898 93.2421 78.0898C94.8025 78.0898 94.3356 80.9712 94.3356 83.0886H99.6468V80.433C99.6468 79.1879 101.99 79.1879 101.99 80.433V84.4702C101.859 85.1825 101.522 85.5879 100.74 85.5879H86.8375C86.8375 92.893 87.5469 93.2664 84.4964 93.2444L74.0282 93.2422C73.778 94.3159 72.8747 95.8801 72.3095 96.6785C69.9427 100.022 66.3737 101.784 62.7334 101.99H61.2877C57.5918 101.782 53.9765 99.9726 51.6262 96.5866C51.0607 95.772 50.2107 94.2675 49.9718 93.2422L39.3456 93.2461C38.1256 93.2547 37.1626 93.1881 37.1626 91.9925V85.5879H23.2598C22.6889 85.5879 22.0101 85.1568 22.0101 84.6507V80.7443C22.1215 80.0046 22.3831 79.4957 22.9474 79.4957C24.7446 79.4957 24.3533 80.677 24.3533 83.0886H29.6645C29.6645 80.4254 29.1649 78.0898 30.9141 78.0898C32.501 78.0898 32.0076 80.6805 32.0076 83.0886H37.1626V78.0898C37.1626 75.0038 39.0876 71.913 41.3338 70.2329C42.5608 69.3152 43.7739 68.7378 45.5032 68.3101L50.2842 67.1551C50.2529 67.1333 50.2067 67.1091 50.1852 67.0979L49.4093 66.7803C49.0684 66.6681 48.9 66.6142 48.5869 66.5092L43.5672 64.9682C43.0697 65.9083 42.9065 66.3704 42.033 67.0269C39.1515 69.1925 35.4482 66.8934 35.288 64.9682C34.6091 65.1263 33.7356 65.4091 33.0019 65.65C30.5117 66.4681 28.6176 66.7219 26.7597 68.1556C22.8143 71.2002 25.6487 76.3715 23.2598 76.3715C22.3988 76.3715 22.1008 76.0642 22.0101 75.3962V72.7787C22.0101 69.5777 24.3622 66.5575 26.4887 65.3853C27.9654 64.5712 29.1045 64.3346 30.8165 63.7771C31.6117 63.5182 32.3507 63.2991 33.1011 63.0936C34.0431 62.8357 34.9756 62.7204 34.9756 62.1564C34.9756 59.1346 34.9873 60.7963 33.2148 59.0747C31.599 57.5054 30.1331 55.3893 30.1331 52.7837C30.1331 48.961 29.4832 44.4673 31.9825 41.3553C33.0664 40.0057 34.128 39.1393 35.7565 38.4122C38.3539 37.2525 40.8699 37.521 43.3934 38.5861C44.71 39.1419 45.6506 40.2162 46.2228 40.5993C46.2228 37.3408 46.2464 35.4596 47.0031 32.9443C48.1462 29.1446 51.1192 25.5988 54.6037 23.8304C56.6991 22.7669 58.8338 22.1596 60.972 22.0103ZM49.347 89.337V90.7429H47.0038C47.0038 87.187 47.4498 86.6224 45.6416 85.0735C45.0341 84.5533 43.5672 84.2723 43.5672 86.2128C43.5672 86.8496 44.5044 86.9818 44.5044 87.6186V90.7429H39.5057V79.0271C39.5057 75.8676 41.0687 73.3088 42.97 72.0252C44.5877 70.933 49.0042 69.6698 51.0653 69.4982C51.7345 70.763 52.3274 72.0234 52.9919 73.3515C53.9721 75.3105 53.9385 76.3715 56.3764 76.3715C57.1116 76.3715 57.4956 75.8871 57.9385 75.5905C57.975 76.0288 58.3866 76.9404 58.5634 77.3088C56.4198 77.4871 53.5368 79.7831 52.1344 81.5021C50.6477 83.3247 49.347 86.0631 49.347 89.337ZM59.813 73.5597C60.6709 73.3307 61.2739 72.1714 62 71.6852C62.726 72.1714 63.3291 73.3307 64.1869 73.5597C64.1594 74.7963 63.3416 75.6189 63.0935 76.6839H60.9066C60.6544 75.6016 59.8479 74.8236 59.813 73.5597ZM68.0922 74.0284C67.9341 73.9225 64.2067 70.6259 64.0308 69.9669C64.5108 69.8387 64.8707 69.5087 65.3303 69.2357C65.8269 68.9407 66.0771 68.7513 66.58 68.4546C66.9222 68.2526 67.5544 67.8816 67.813 67.657C68.2844 67.2474 68.2484 66.8887 68.2484 66.0616C68.7922 66.4258 70.3669 67.836 70.7478 68.4048C70.2757 69.2969 69.8714 70.1643 69.3936 71.1121L68.0922 74.0284ZM53.2522 68.4048C53.7859 67.6078 54.4489 67.1669 55.0784 66.6381C55.3945 66.3725 55.4171 66.2856 55.7516 66.0616C55.7516 67.7469 56.1409 67.7338 58.6697 69.2357C59.1293 69.5087 59.4892 69.8387 59.9693 69.9669C59.7823 70.6672 56.0809 73.9124 55.9078 74.0284C55.7394 73.3054 53.5895 69.0423 53.2522 68.4048ZM58.0948 60.2818C60.5312 60.8495 61.0157 61.3806 64.077 60.7967C64.8756 60.6444 65.215 60.4426 65.9053 60.2818V66.0616C60.1981 69.0815 63.8019 69.0815 58.0948 66.0616V60.2818ZM84.8067 65.4368C83.8265 65.4368 83.1129 65.056 82.7637 64.1993C82.4847 63.5145 82.6198 62.163 82.6198 61.2191L85.2754 61.3753C86.0605 61.3753 85.9748 61.2348 86.6812 61.2191C86.6812 62.5536 87.0044 65.4368 84.8067 65.4368ZM37.3187 63.2498V61.2191L40.2868 61.3753C40.8253 61.3753 40.8916 61.2597 41.3802 61.2191C41.3802 62.1114 41.5407 63.3068 41.2803 64.0872C40.6179 66.0726 37.3187 65.9531 37.3187 63.2498ZM71.5289 65.593C71.1094 65.3121 68.2484 62.9212 68.2484 62.4688C68.2484 56.2366 68.2157 60.5126 71.0943 55.9421C71.7469 54.9059 72.6223 52.834 72.6223 51.2216L75.2779 51.0654C75.2779 54.3106 76.0269 56.5924 78.0498 58.6034C78.58 59.1305 79.3418 59.9442 80.1204 60.1256V62.625L71.5289 65.593ZM43.8796 60.1256C45.0914 59.8433 46.7554 57.7987 47.3859 56.7587C48.3463 55.1747 48.7221 53.5386 48.7221 51.0654L51.3777 51.2216C51.3777 52.8097 52.1945 54.7153 52.788 55.7473C53.2416 56.5361 54.9032 58.6494 55.7516 58.8759C55.7516 64.1427 56.1643 62.0956 53.8392 64.4617C53.3987 64.91 52.9712 65.2581 52.4712 65.593C51.7996 65.0093 51.4903 64.9359 50.6453 64.607L43.8796 62.625V60.1256ZM77.7773 52.4713C77.7773 48.0462 77.0998 44.7343 79.8425 42.0397C81.8656 40.0519 85.0208 39.5265 87.6731 40.8571C92.2151 43.1358 91.5238 47.3221 91.5238 52.0027C91.5238 56.0423 88.672 58.5548 84.9161 58.9979C81.7305 59.3736 77.7773 56.1434 77.7773 52.4713ZM32.4762 52.0027C32.4762 47.8707 31.9531 45.1127 34.323 42.2898C36.4086 39.8054 41.2318 39.1652 44.1575 42.0397C46.9002 44.7343 46.2228 48.0462 46.2228 52.4713C46.2228 53.3492 45.8536 54.4285 45.5497 55.0787C44.4776 57.373 41.8082 59.0903 39.2014 59.0259C37.3692 58.9807 35.6851 58.1124 34.4649 56.8873C33.367 55.785 32.4762 54.14 32.4762 52.0027ZM53.7209 50.1281C53.7209 47.1104 53.3871 47.144 54.4712 45.4111C56.0195 42.9361 56.7387 43.9133 60.2825 43.7243C61.7707 43.6449 63.1324 43.3752 64.2423 42.8416C66.2745 41.8645 66.333 41.3059 67.155 40.7555C67.7767 41.684 68.4024 42.3389 69.4476 42.8368C69.8632 43.0347 70.2792 43.0919 70.2792 43.5673C70.2792 46.7754 70.6518 50.98 69.5902 53.5006C68.808 55.3579 67.3553 56.9039 65.5664 57.756C60.1558 60.3332 53.7209 56.4885 53.7209 50.1281ZM74.3407 48.7223H72.6223V43.7235C75.4654 43.7235 75.2779 43.4555 75.2779 47.4726C75.2779 48.0434 74.8468 48.7223 74.3407 48.7223ZM48.7221 47.4726C48.7221 43.4555 48.5346 43.7235 51.3777 43.7235V48.7223C50.2064 48.7223 48.7221 49.039 48.7221 47.4726ZM53.7209 42.4739C53.5841 40.8306 52.1646 41.2242 49.8156 41.2242C49.277 41.2242 49.2108 41.3397 48.7221 41.3804C48.7221 36.6337 48.4549 33.1172 51.7355 29.2413C52.9123 27.8509 54.2286 26.7491 55.9066 25.9143C59.882 23.9364 63.9565 23.8062 68.0126 25.8389C71.4303 27.5516 73.736 30.4796 74.831 34.1729C75.4295 36.1914 75.2779 38.7486 75.2779 41.3804C71.6416 41.0777 70.7488 41.759 68.7171 38.7248C69.1428 37.9201 70.4354 36.3821 70.4354 35.7568C70.4354 35.1195 69.4442 33.1274 67.6235 35.9128C66.4721 37.6741 65.2621 39.5793 63.4617 40.4988C60.619 41.9505 57.758 40.745 55.6243 41.4093C54.6258 41.7202 54.474 41.9695 53.7209 42.4739Z" fill="#283A42"/>
<path fill-rule="evenodd" clip-rule="evenodd" d="M56.8451 87.7748C57.7512 87.34 59.3005 87.4989 60.1716 86.7274C60.9642 86.0253 61.437 84.5944 62 84.1819C62.563 84.5944 63.0358 86.0253 63.8284 86.7274C64.6995 87.4989 66.2488 87.34 67.155 87.7748C66.709 88.4407 64.8935 89.9574 64.968 90.899L65.1572 93.7081C64.1632 93.6308 63.1039 92.6501 62 92.6501C60.8961 92.6501 59.8368 93.6308 58.8758 93.7108C58.8758 90.1122 59.6524 91.219 57.8727 88.934C57.4917 88.4447 57.1608 88.2462 56.8451 87.7748ZM58.7196 96.2102C60.2286 96.2102 60.9681 95.2838 61.8882 95.1897C62.7009 95.1066 65.9117 97.7127 67.3237 94.9729C67.9504 93.7568 67.4873 93.2963 67.4519 91.9871C67.395 89.8898 69.8895 89.6929 69.6013 87.5214C69.2643 84.9819 66.6784 85.4119 65.5391 84.8604C65.0793 84.6379 65.0466 84.3542 64.7813 83.9C64.1228 82.773 63.4986 81.5264 62 81.5264C59.8119 81.5264 59.3932 84.3024 58.5635 84.8069C57.4565 85.4802 54.9179 84.8083 54.4224 87.3953C54.0127 89.5345 56.531 89.958 56.5506 91.8308C56.5543 92.1904 55.5439 96.2102 58.7196 96.2102Z" fill="#283A42"/>
</svg>
