<svg width="124" height="124" viewBox="0 0 124 124" fill="none" xmlns="http://www.w3.org/2000/svg">
<g clip-path="url(#clip0_584_1806)">
<path d="M126 62C126 96.2417 98.2417 124 64 124C29.7583 124 2 96.2417 2 62C2 27.7583 29.7583 0 64 0C98.2417 0 126 27.7583 126 62Z" fill="white" fill-opacity="0.3"/>
<path fill-rule="evenodd" clip-rule="evenodd" d="M68.9429 93.7668H68.1363V91.7505H72.1691C71.9056 92.8814 70.3856 93.7668 68.9429 93.7668ZM69.6151 96.4554H66.6144C65.8451 96.3329 65.3134 95.987 65.3134 95.1111V45.5077C65.3134 44.1628 67.2401 43.6779 67.8704 44.8326C68.3559 45.7221 68.1363 52.2762 68.1363 53.8422H70.2871C70.2871 51.1574 69.9073 48.85 72.0345 46.9861C74.9319 44.4473 79.2918 45.2413 81.0356 48.6051C82.7882 51.9856 80.1519 56.5307 76.4708 56.5307H72.9757V71.0487H79.9659C80.5353 71.0487 81.7383 70.1102 82.1944 69.7822C84.2335 68.3157 85.9063 66.6414 87.3054 64.5423C91.4487 58.3266 91.537 49.6429 88.5735 42.8148C87.1552 39.547 85.6174 38.0292 83.3605 35.9295C83.0472 35.638 82.981 35.5661 82.6367 35.3089C80.9655 34.0608 79.496 33.2361 77.4895 32.3905C74.9255 31.3101 71.4973 30.4519 68.1363 30.4519V33.1404C68.1363 35.5119 65.3134 35.3302 65.3134 33.5437V28.9732C65.3134 28.2471 65.9788 27.6289 66.3888 27.6289C71.1173 27.6289 74.55 28.2076 78.3736 29.7589C80.854 30.7653 84.188 32.7399 86.1186 34.65C88.3322 36.8403 89.9587 39.0309 91.2969 42.1079C94.4553 49.3708 94.1561 58.8415 89.9398 65.5636C88.4211 67.9849 86.5946 69.9349 84.3264 71.6453C83.5135 72.2584 82.8794 72.7249 81.9823 73.1996C81.9823 75.3504 81.9823 77.5012 81.9823 79.6521C81.9823 81.1144 82.255 84.7982 81.743 85.7308L78.0495 89.9685C77.6832 90.3289 77.6256 90.4787 77.3106 90.8427C76.7305 91.5131 76.3259 91.7505 75.1265 91.7505C75.0166 93.0715 73.971 94.1921 73.2137 94.9459C72.4991 95.657 70.9865 96.4554 69.6151 96.4554ZM75.1265 88.9275H68.1363C68.1363 87.2069 67.8968 87.6584 69.2616 87.2298L79.1593 84.2226C79.1141 84.7655 79.1025 84.5986 78.7971 84.9357L76.7717 87.212C76.4486 87.5593 75.4915 88.9275 75.1265 88.9275ZM68.1363 84.6259V80.3242L77.7326 77.4187C78.1592 77.2758 78.8471 77.1133 79.1593 76.9635V81.3996C78.5066 81.4539 77.1492 81.9436 76.4224 82.1577L70.9764 83.8363C70.3468 84.0294 68.7645 84.5735 68.1363 84.6259ZM68.1363 77.3668V73.8717L79.1593 74.1405C78.5555 74.1908 74.5946 75.4937 73.6478 75.7537C72.5482 76.0556 68.9173 77.3018 68.1363 77.3668ZM68.1363 56.5307H70.2871V71.0487H68.1363V56.5307ZM75.5298 53.8422H72.9757C72.9757 52.1494 72.7609 50.5317 73.5857 49.3439C74.6057 47.8749 78.756 47.5037 78.756 51.288C78.756 52.9739 77.2437 53.8422 75.5298 53.8422Z" fill="#283A42"/>
<path fill-rule="evenodd" clip-rule="evenodd" d="M40.4444 36.77C40.4444 38.2643 40.3875 38.7682 40.8615 40.2513C41.0821 40.9412 41.5107 41.5308 41.6543 42.147C41.2214 42.3547 36.2772 43.4799 36.2772 45.1044C36.2772 47.7346 38.9018 46.148 39.6373 45.776C43.7857 43.6781 45.8215 45.9391 45.8215 42.9535C45.8215 42.6667 44.8393 41.6889 44.5785 41.3735C42.5766 38.9529 42.749 35.2237 44.9002 32.8913C44.919 32.8709 44.9447 32.8404 44.9636 32.8202L45.5838 32.2305C45.9879 31.8428 45.9296 31.9025 46.4336 31.6017C47.16 31.1682 47.5654 30.9921 48.3895 30.7346C51.1306 29.878 54.7665 30.3339 56.8789 32.4339C58.4723 34.0182 58.8609 36.2634 58.8609 38.6519V85.5668C58.8609 90.8612 56.1218 93.7668 51.0641 93.7668C48.0265 93.7668 44.9202 92.177 43.6702 89.1968C42.8761 87.3036 43.0506 83.9406 44.6413 82.3702C44.6597 82.3522 46.9933 80.9044 45.4475 79.6228C45.2043 79.4211 44.7334 79.2786 44.3413 79.2503C41.6889 79.0593 39.7637 78.785 37.5173 76.9332C35.3204 75.1221 33.3198 72.171 33.3198 69.0323C33.3198 67.3047 33.2726 66.211 33.9119 64.5162C35.0615 61.4683 35.3931 62.7271 34.1695 60.1171C33.2303 58.1138 33.5284 57.2811 33.2916 55.7523C32.9969 53.8506 30.4969 53.9402 30.4969 55.993C30.4969 57.7276 30.8797 59.2198 31.4191 60.7167C31.5635 61.1175 31.9539 61.7049 31.9328 62.0228C31.924 62.155 31.5132 63.0513 31.3973 63.3459C30.1045 66.6292 30.2608 70.282 31.5512 73.4895C32.1915 75.0811 32.9288 76.0503 33.9136 77.3106C35.7307 79.636 38.7159 81.1183 41.6543 81.8029C37.8775 88.9406 43.326 96.4554 50.392 96.4554H50.487C52.4749 96.4545 54.0361 96.4192 55.8597 95.605C59.4929 93.9828 61.5495 90.6568 61.5495 86.6423V37.4421C61.5495 34.7297 60.527 32.1847 58.7603 30.418C57.0705 28.7283 54.6015 27.8138 52.0713 27.6289H50.1396C48.8315 27.7243 47.5561 28.0137 46.4149 28.4912C43.2171 29.8291 40.4444 33.046 40.4444 36.77Z" fill="#283A42"/>
<path fill-rule="evenodd" clip-rule="evenodd" d="M38.5625 68.0914C38.5625 68.6905 39.1276 69.2139 39.7173 69.3653C41.0794 69.7152 44.0589 68.577 45.3054 67.5752C48.6927 64.8531 50.1693 59.2192 47.3002 59.2192C45.2214 59.2192 46.884 62.2381 44.2402 64.897C41.6788 67.4733 38.5625 65.725 38.5625 68.0914Z" fill="#283A42"/>
<path fill-rule="evenodd" clip-rule="evenodd" d="M47.9723 48.4652C47.9723 51.2532 52.2719 48.4947 52.9851 53.2656C53.0645 53.7969 53.1675 55.0521 54.4248 55.0521C57.3254 55.0521 55.3957 47.8586 50.371 47.2727C49.5296 47.1746 47.9723 47.0529 47.9723 48.4652Z" fill="#283A42"/>
<path fill-rule="evenodd" clip-rule="evenodd" d="M47.9723 76.157C47.9723 77.0111 48.6262 77.4289 49.4477 77.5045C51.1752 77.6635 52.0579 78.6665 52.2629 80.3352C52.4667 81.9927 53.806 82.0498 54.5059 81.4806C55.6753 80.5295 54.6621 77.0449 52.4052 75.6224C51.3262 74.9422 47.9723 73.8335 47.9723 76.157Z" fill="#283A42"/>
<path fill-rule="evenodd" clip-rule="evenodd" d="M65.3134 39.4586C65.3134 41.7093 68.0019 41.1789 68.0019 39.9964C68.0019 37.2025 65.3134 38.3274 65.3134 39.4586Z" fill="#283A42"/>
<path fill-rule="evenodd" clip-rule="evenodd" d="M32.2444 49.4061C32.2444 51.1445 34.9329 51.6394 34.9329 49.1372C34.9329 47.8666 32.2444 47.5605 32.2444 49.4061Z" fill="#283A42"/>
</g>
<defs>
<clipPath id="clip0_584_1806">
<rect width="124" height="124" fill="white"/>
</clipPath>
</defs>
</svg>
