<svg width="105" height="104" viewBox="0 0 105 104" fill="none" xmlns="http://www.w3.org/2000/svg">
<path fill-rule="evenodd" clip-rule="evenodd" d="M79.1061 95.4236V100.1H54.1654V81.1717C54.7128 81.0255 59.2007 76.9208 59.9037 76.2212C60.8838 75.2457 61.6988 74.6274 62.6789 73.6519L73.9305 63.5256C75.019 62.418 75.6297 61.5755 77.5474 61.5755C79.8458 61.5755 83.0485 64.4256 78.9358 68.5309C78.3811 69.0846 78.3087 69.3184 77.824 69.8687C77.3826 70.3701 76.9611 70.7213 76.4852 71.2021L72.9188 75.207C70.8232 77.5373 72.663 78.7222 73.7617 78.7222C74.8671 78.7222 75.7704 77.5485 76.3811 76.8878L94.0283 57.5693C95.1598 56.1213 95.1582 56.5877 95.1411 54.0057C95.123 51.2973 94.9204 32.2862 95.264 30.9693C95.4292 30.336 95.6707 29.9051 96.077 29.5556C97.8638 28.0187 100.484 29.2223 100.484 31.9583V61.7981C100.484 62.2878 95.8935 69.1404 95.2682 70.1662L85.8319 84.7798C84.9245 86.1319 79.1061 95.0013 79.1061 95.4236ZM4.28391 61.7981V31.9583C4.28391 28.3955 8.52196 27.837 9.45285 30.7977C9.83155 32.0022 9.63964 51.0682 9.62768 53.7821C9.61245 57.229 9.91506 56.6027 12.9157 59.8468L19.4819 67.0872C21.664 69.237 24.7885 73.031 27.1692 75.4332C28.0723 76.3445 29.4592 78.7222 31.0061 78.7222C32.1668 78.7222 33.8227 77.5163 31.9708 75.308C31.4467 74.6832 31.3218 74.4612 30.7297 73.8768C30.2952 73.4479 29.9018 73.109 29.513 72.644L24.5704 67.1204C23.0351 65.0483 23.9058 61.5755 27.6659 61.5755C28.9677 61.5755 30.1306 62.8047 30.8389 63.5242L46.3185 77.4389C46.8216 77.9044 47.1412 78.3249 47.6535 78.7761C48.2351 79.2883 50.0696 81.0294 50.6024 81.1717V100.1H25.6617C25.6617 93.2672 26.1528 96.368 23.1411 91.2636L11.0097 72.4418C10.1023 71.0897 4.28391 62.2204 4.28391 61.7981ZM82.6691 43.0925C83.2979 43.0925 84.0232 43.7594 84.2388 44.1951C84.7327 45.1928 84.4506 61.1936 84.4506 62.6888L83.772 61.5859C83.1715 60.5256 82.1401 59.195 80.8876 58.9032L80.875 45.7521C80.8767 44.3204 81.3546 43.0925 82.6691 43.0925ZM20.3172 62.6888C20.3172 61.1936 20.0352 45.1928 20.529 44.1951C20.7446 43.7594 21.4699 43.0925 22.0987 43.0925C24.5954 43.0925 23.8802 47.5006 23.8802 49.9958C23.8802 52.9649 23.8802 55.934 23.8802 58.9032C21.8721 59.371 20.9411 61.9712 20.3172 62.6888ZM88.0135 58.4579C88.0135 57.0619 87.8422 38.2848 88.0995 37.3887C88.7161 35.2404 91.5765 35.7542 91.5765 37.9708V54.4495C91.5765 55.1005 88.4801 58.1454 88.0135 58.4579ZM13.1913 54.4495V37.9708C13.1913 35.86 15.8444 35.2284 16.6122 37.2221C16.979 38.1745 16.7543 57.0012 16.7543 58.4579C16.0278 57.9713 15.4098 57.3211 14.8158 56.6106C14.4274 56.1462 14.4689 56.0909 14.023 55.622C13.6616 55.2421 13.1913 55.0021 13.1913 54.4495ZM0.720947 31.0675V62.6888C0.720947 63.6416 1.63543 64.7223 2.05933 65.3588C6.21253 71.5947 10.4216 78.6034 14.6152 84.8696C15.1961 85.7376 15.672 86.3877 16.215 87.2782L20.9143 94.6038C21.4955 95.5863 22.0851 95.9249 22.1128 97.4137C22.1608 99.9919 21.3174 103.663 23.8802 103.663H80.8876C83.4504 103.663 82.6071 99.9919 82.655 97.4137C82.683 95.9106 84.5685 93.4585 85.4307 92.1727L88.5876 87.3129C89.1704 86.3568 89.5427 85.7809 90.1526 84.8696C90.7475 83.9808 91.1127 83.3099 91.7098 82.4184L99.5955 70.2625C100.379 69.0823 104.047 63.6908 104.047 62.6888V30.8449C104.047 28.2345 101.09 25.2777 98.4798 25.2777C95.9788 25.2777 94.7779 25.6032 92.9613 27.5532C92.1789 28.3931 90.8848 31.1849 91.5765 32.6264C89.2396 32.0819 86.8593 32.4712 85.4639 34.5303C84.2391 36.338 84.4506 36.9742 84.4506 39.7523C80.2535 38.7744 77.3246 41.4755 77.3246 44.4287V57.7898C75.6241 57.8276 74.3306 58.479 73.221 59.2532C71.5252 60.4365 62.6096 68.9147 60.0092 71.2048L55.5555 75.2132C54.9269 75.767 54.6248 75.9072 53.9967 76.5494C52.3436 78.2395 52.4833 78.3128 50.8811 76.6621C49.0807 74.8073 43.9285 70.5999 41.9692 68.6499L39.0829 65.9691C38.4775 65.3844 38.1238 65.2469 37.5155 64.6415L31.6784 59.3443C30.6097 58.5731 29.2184 57.8293 27.4432 57.7898V44.4287C27.4432 41.9789 24.9938 39.5296 22.5441 39.5296L20.3172 39.7523C20.3172 37.059 20.5315 36.4201 19.3919 34.6651C17.9823 32.4941 15.6122 32.0623 13.1913 32.6264C14.047 30.8431 12.4557 27.3713 10.1524 26.0898C5.69923 23.6119 0.720947 27.109 0.720947 31.0675Z" fill="#2B2A29"/>
<path fill-rule="evenodd" clip-rule="evenodd" d="M37.464 32.4037H41.2497C42.3362 37.0675 51.7443 42.6659 59.3839 37.3994C60.8292 36.4031 63.0946 34.2217 63.5182 32.4037H67.3039C67.1293 34.5008 65.5224 34.6041 65.5224 37.3027C65.5224 38.0698 67.5711 39.9185 68.142 40.4729C68.672 40.9877 69.2209 41.3962 69.2239 42.2021C69.23 43.8604 67.789 43.7606 67.0811 43.7606C66.342 43.7606 64.156 40.9962 63.2566 40.4484C62.2403 39.8293 61.7933 39.9919 60.8 40.594C55.8479 43.5957 54.2655 41.8776 54.1527 44.6386C54.0914 46.1388 54.819 50.2185 52.3839 50.2185C49.9808 50.2185 50.6382 46.2207 50.6168 44.8596C50.5941 43.4203 50.3808 43.0689 49.185 42.7285C48.1013 42.4201 47.4561 42.2868 46.4616 41.8889C43.746 40.8024 43.2433 39.4873 41.6544 40.363C39.474 41.5647 39.4662 43.7606 36.796 43.7606C36.5079 43.7606 34.2408 42.7897 36.6258 40.4729C38.3262 38.8214 39.2455 38.2755 39.2455 36.6347C39.2455 35.3418 37.6894 34.1608 37.464 32.4037ZM45.4807 32.4037H59.2872C58.0583 34.2387 55.4423 35.744 53.4974 35.744C50.8546 35.744 50.4147 35.9289 47.9227 34.638C47.1563 34.241 47.2518 34.2555 46.6376 33.6962L45.4807 32.4037ZM29.2247 27.0592C29.2247 26.1795 30.2359 25.2777 31.2289 25.2777H73.5391C76.1296 25.2777 76.1296 28.8407 73.5391 28.8407H31.2289C30.2359 28.8407 29.2247 27.9389 29.2247 27.0592ZM57.7284 12.1393C60.2753 12.3512 64.2687 15.9045 65.7937 18.3258C66.2533 19.0556 67.2269 20.7904 67.3039 21.7148H57.7284V12.1393ZM50.6024 5.90417C50.6024 4.91115 51.5042 3.89995 52.3839 3.89995C53.2636 3.89995 54.1654 4.91115 54.1654 5.90417V21.7148H50.6024V5.90417ZM47.0395 12.1393V21.7148H37.464C37.6164 19.8834 39.8377 17.001 41.0802 15.7555C42.1757 14.6575 45.2343 12.2895 47.0395 12.1393ZM47.0395 8.13102C41.0283 9.53144 34.8585 15.6933 33.4557 21.7148C30.7838 21.7148 29.8384 21.4431 28.0593 22.5536C24.8064 24.5841 24.9124 29.5234 27.9231 31.4783C29.769 32.6769 30.625 32.4037 33.4557 32.4037C33.7849 33.8168 34.6187 35.4658 35.2372 36.6347C29.2088 40.6714 32.2793 47.5463 37.2413 47.5463C39.6539 47.5463 41.837 45.6567 42.8085 44.206C43.9774 44.8245 45.6263 45.6582 47.0395 45.9875C47.0395 48.6594 46.7678 49.6048 47.8783 51.3838C49.9088 54.6367 54.8481 54.5308 56.803 51.52C58.0016 49.6741 57.7284 48.8181 57.7284 45.9875C59.1415 45.6582 60.7905 44.8245 61.9594 44.206C65.5968 49.6379 72.871 47.9776 72.871 41.7564C72.871 39.7669 70.7332 37.4399 69.5307 36.6347C70.1492 35.4658 70.9829 33.8168 71.3122 32.4037C73.9841 32.4037 74.9295 32.6753 76.7085 31.5648C79.9614 29.5343 79.8555 24.595 76.8447 22.6401C74.9988 21.4415 74.1428 21.7148 71.3122 21.7148C70.9827 20.301 69.9652 18.1929 69.3008 17.0455C68.3397 15.3854 67.588 14.5407 66.2461 13.197C65.0207 11.97 64.0877 11.1612 62.5369 10.2256C61.3582 9.51452 59.1309 8.4577 57.7284 8.13102C57.7284 5.45905 58 4.51368 56.8896 2.73464C54.859 -0.51831 49.9197 -0.412339 47.9648 2.59844C46.7662 4.44431 47.0395 5.30029 47.0395 8.13102Z" fill="#12AADA"/>
</svg>
