<svg width="99" height="99" viewBox="0 0 99 99" fill="none" xmlns="http://www.w3.org/2000/svg">
<path fill-rule="evenodd" clip-rule="evenodd" d="M43.2803 94.4134V83.2342L45.2028 83.006C46.2997 84.6931 48.0533 88.0528 49.4481 88.0528C50.8462 88.0528 52.5256 84.778 53.6884 83.0415L55.611 83.2697L55.6159 94.4134C54.3749 94.0819 50.6903 91.1367 49.4481 91.1367C48.6327 91.1367 46.9698 92.299 46.3535 92.6679C45.6939 93.0627 43.9139 94.2441 43.2803 94.4134ZM89.5387 68.7784C90.9471 68.4503 93.4144 68.2002 95.1283 68.2002H95.7065V86.1254C93.8155 86.0832 91.4297 85.2038 89.5387 85.1617V68.7784ZM59.8562 76.8737C65.8093 72.8873 63.573 74.2424 72.2287 72.0919L86.4548 69.1639V84.5834C85.4631 84.5613 83.8074 84.175 82.7934 84.0045L71.725 82.1591C69.1851 81.7672 66.3645 81.8829 63.5183 81.885C60.1809 81.8875 60.7657 82.1533 60.5369 80.6262C60.3499 79.379 59.8882 78.0311 59.8562 76.8737ZM14.176 72.6333L34.5657 74.0236C35.0993 74.1341 38.339 76.4043 39.0399 76.8737C39.0399 77.9278 38.6573 79.2205 38.4787 80.1673C38.1306 82.0125 38.5328 81.9184 36.345 81.8885C27.5807 81.7686 30.3236 81.6717 22.0785 83.0415C19.9156 83.4008 17.4043 83.7152 15.3325 84.1979C15.3325 81.9008 14.2358 74.8012 14.176 72.6333ZM8.00823 72.6333H11.0921C11.0921 74.9193 11.6576 79.0208 11.8798 81.6755C11.9535 82.5558 12.1762 83.9066 12.2486 84.7762C11.0529 84.7762 10.3697 85.0774 9.3574 85.1617L8.37704 75.7338C8.30396 74.8528 8.03264 73.5173 8.00823 72.6333ZM4.73156 70.7059C4.73156 74.5904 6.0808 82.9102 6.0808 85.7399C5.05898 85.7626 4.28458 86.1254 3.18961 86.1254V52.9735C3.54756 53.1453 8.7814 54.3098 9.3574 54.3227V69.5494C7.96292 69.5494 4.73156 69.1562 4.73156 70.7059ZM41.7383 64.9236C43.0759 64.9534 45.9023 66.4737 47.7518 64.191C48.3064 63.5064 48.8155 62.3031 49.4481 61.8397C50.2171 62.4031 51.3258 65.5018 53.6884 65.5018C54.8468 65.5018 55.9579 64.9503 57.1578 64.9236C57.128 66.2611 55.6076 69.0876 57.8904 70.937C58.575 71.4916 59.7783 72.0008 60.2417 72.6333C59.6782 73.4024 56.5796 74.511 56.5796 76.8737C56.5796 78.032 57.1311 79.1431 57.1578 80.343C55.8202 80.3132 52.9938 78.7929 51.1443 81.0756C50.5897 81.7602 50.0806 82.9635 49.4481 83.4269C48.8743 83.0066 48.3388 81.8631 47.8338 81.1864C46.0143 78.7479 43.188 80.3108 41.7383 80.343C41.7681 79.0055 43.2885 76.179 41.0057 74.3296C40.3212 73.775 39.1179 73.2658 38.6544 72.6333C39.0747 72.0596 40.2182 71.524 40.895 71.019C43.3279 69.2038 41.7786 66.3819 41.7383 64.9236ZM89.5387 65.5018V54.3227C90.2822 54.3061 95.2282 53.203 95.7065 52.9735V64.9236C93.2875 64.9236 90.8283 65.473 89.5387 65.5018ZM58.6998 58.7558H69.1079C70.5933 58.7558 72.1919 58.2475 73.5252 57.9689C74.901 57.6814 76.3887 57.3504 77.7813 57.0211C80.6584 56.3409 83.5744 55.7647 86.4548 55.0937L86.4717 64.7477C86.4883 66.4502 86.7743 65.8004 81.4596 66.8671C79.9326 67.1735 78.3037 67.5004 76.8016 67.7987L65.5271 70.4018C63.0136 71.1228 63.7615 71.0081 59.8562 68.3929C59.8562 64.8824 62.7179 61.2615 58.6998 61.2615V58.7558ZM38.0762 62.6106C38.0762 64.5185 39.0399 66.485 39.0399 68.3929C34.3207 71.553 36.125 70.7792 33.0687 70.7022C32.408 70.6855 32.0625 70.7224 31.4116 70.6245L12.4413 69.5494V55.0937C14.1506 55.2359 27.984 58.7558 29.4027 58.7558H40.1964V61.2615C39.3287 61.2615 38.0762 61.376 38.0762 62.6106ZM51.3755 58.7558H55.6159V62.0324C54.5896 62.0324 54.5377 62.2062 53.6884 62.2251C52.915 61.0701 52.149 59.9108 51.3755 58.7558ZM45.2077 62.2251L43.2852 61.9969L43.2803 58.7558H47.5206C46.7472 59.9108 45.9812 61.0701 45.2077 62.2251ZM0.105713 51.046V88.0528C0.105713 90.4921 3.32979 89.3784 5.17176 89.0712L12.4511 87.8698C15.5702 87.4578 28.8096 84.9689 30.752 84.9689H40.1964V97.3045C40.1964 98.2368 40.806 98.8464 41.7383 98.8464C42.981 98.8464 48.6695 94.6907 49.4481 94.6907C50.7703 94.6907 58.6998 101.785 58.6998 97.3045V84.9689C64.2219 84.9689 66.8908 84.633 72.0836 85.4626L90.0898 88.4654C91.4794 88.6965 96.2868 89.5947 97.4413 89.5947C98.1963 89.5947 98.7904 88.8776 98.7904 88.0528V51.046C98.7904 48.5096 95.4131 49.8226 93.8611 50.1644C92.5656 50.4496 91.5406 50.6728 90.2344 50.9707L72.0797 54.9815C70.7998 55.2634 69.7881 55.6719 68.3369 55.6719H30.3665C29.0808 55.6719 11.2961 51.4838 8.82846 50.9967C7.69247 50.7724 6.43562 50.5138 5.19369 50.1984C3.46727 49.7598 0.105713 48.5498 0.105713 51.046Z" fill="black"/>
<path fill-rule="evenodd" clip-rule="evenodd" d="M90.888 38.7103H91.2735C91.3922 40.1379 91.9798 40.2241 91.6589 41.6015C91.1487 41.7368 91.5004 41.5862 91.0807 41.7942C90.8209 41.6483 90.8676 41.689 90.5025 41.6015C90.1815 40.2241 90.7691 40.1379 90.888 38.7103ZM26.3188 31.1934C27.5409 31.84 27.921 32.5315 30.4923 33.7659C40.3894 38.517 60.8487 38.5866 70.5208 32.6063C71.3372 32.1015 71.7407 31.636 72.5773 31.1934C72.5773 34.2972 73.0017 37.7652 71.6194 39.6799C68.5137 43.9822 59.2845 45.951 54.0748 46.2283C53.3266 46.2681 52.508 46.1861 51.76 46.2264C48.7507 46.3886 50.8372 46.5286 47.3178 46.2374C44.5711 46.0103 45.2396 46.4427 40.7176 45.7061C36.2462 44.9777 30.0813 43.3759 27.3581 39.7913C25.8631 37.8235 26.3188 34.4189 26.3188 31.1934ZM13.7905 13.8464L18.1831 12.6495C19.5688 12.2617 21.1739 11.768 22.6329 11.3169C24.0745 10.8713 25.6668 10.4635 27.1136 10.0153L49.4481 3.4383C50.079 3.4383 52.9511 4.41334 53.8142 4.66171L71.6544 9.95071C73.3444 10.4197 84.0585 13.7592 85.1057 13.8464C84.5366 14.2075 49.7079 23.0981 49.4481 23.0981L14.3309 14.077C13.4911 13.7979 14.8303 14.2833 14.0517 13.9707L13.7905 13.8464ZM6.2735 14.0392C6.2735 15.6835 8.59021 15.9204 10.7839 16.4676C14.884 17.4903 48.2244 26.3747 49.4481 26.3747C50.6724 26.3747 53.854 25.3186 55.1914 24.9865L72.5773 20.5924V24.4473C72.5773 30.6323 60.9807 33.2559 55.8035 33.6939C47.6523 34.3834 33.3958 34.2142 27.6195 27.7725C26.9237 26.9966 26.3675 26.0008 26.3164 24.6424C26.2581 23.0898 26.5107 21.7489 24.7769 21.7489C23.8445 21.7489 23.2349 22.3585 23.2349 23.2908V37.9394C23.2349 40.0769 25.2497 42.4966 26.4645 43.576C28.0591 44.9931 30.1256 45.9718 32.2659 46.8335C43.0001 51.1551 70.7575 51.2308 75.2525 39.6508C76.047 37.6037 75.6612 22.51 75.6612 19.6288C76.6879 19.5433 81.1797 18.2491 82.6 17.894L89.5387 16.1594C89.5387 18.0086 89.697 31.5284 89.4219 32.6185C88.7203 35.3991 87.2258 38.7908 87.2258 41.6015C87.2258 44.2186 91.2927 46.1791 93.7414 43.8768C96.6723 41.1211 93.3469 36.3481 92.6676 32.3047C92.398 30.6995 92.6206 19.3999 92.6226 16.1593C92.6252 12.0572 93.5004 12.9349 82.7092 9.88222C81.2836 9.47896 79.9861 9.04145 78.7046 8.68285C77.2412 8.27324 75.945 7.91435 74.5288 7.46176C72.901 6.94163 50.3666 0.161621 49.4481 0.161621C48.3739 0.161621 45.0339 1.37892 43.8592 1.7043C34.8658 4.19492 25.3745 7.30985 16.3367 9.83931C14.5786 10.3313 12.7369 10.896 10.8302 11.4643C8.5819 12.1343 6.2735 12.4188 6.2735 14.0392Z" fill="#00A3FF"/>
<path fill-rule="evenodd" clip-rule="evenodd" d="M47.9061 69.5493C47.9061 71.802 50.99 70.5169 50.99 72.6332C50.99 73.8927 48.5676 75.3332 47.922 72.6173C47.3557 70.2351 44.8222 70.6347 44.8222 73.0187C44.8222 75.378 46.8481 77.259 49.8335 77.259C52.1929 77.259 54.0739 75.2331 54.0739 72.2477C54.0739 68.236 47.9061 66.484 47.9061 69.5493Z" fill="black"/>
</svg>
