<svg width="97" height="97" viewBox="0 0 97 97" fill="none" xmlns="http://www.w3.org/2000/svg">
<path fill-rule="evenodd" clip-rule="evenodd" d="M56.9367 28.2493L56.936 41.5908C56.936 42.0167 56.932 42.4477 56.9501 42.8732C56.9606 43.1177 56.9794 43.3686 57.0381 43.607C57.1573 44.091 57.5107 44.6565 57.7458 45.0933L61.0663 50.8274C62.1861 52.6767 63.1974 54.5903 64.3193 56.4431L70.8753 67.8221C72.122 70.0675 72.2445 72.7428 70.9082 74.9715C69.7326 76.9322 67.5536 78.4196 65.2211 78.4196H31.2893C29.3197 78.4196 27.2803 76.9011 26.221 75.3271C24.5809 72.8902 24.7739 70.0872 26.1603 67.5765L38.4335 46.2982C39.8109 44.0142 39.9597 44.1083 39.9596 41.3977L39.9593 28.2493C37.0498 27.4613 37.4531 24.2837 37.4531 21.9252C37.4531 20.427 39.2381 18.642 40.7362 18.642H56.1598C57.6579 18.642 59.4429 20.427 59.4429 21.9252C59.4429 24.2837 59.8462 27.4613 56.9367 28.2493ZM40.5491 24.2387C40.5491 25.0283 40.9106 25.3898 41.7002 25.3898H55.1958C57.032 25.3898 56.4959 21.738 55.5814 21.738H41.3146C40.3362 21.738 40.5491 23.6201 40.5491 24.2387ZM53.6478 28.4858H43.2482V42.747C43.2482 45.1832 40.9577 48.2952 39.7611 50.3746L29.69 67.8761C28.8978 69.1846 28.2103 70.0404 28.2103 71.6662C28.2103 72.4806 28.9103 73.8481 29.5334 74.3582C30.297 74.9833 31.4701 75.3236 32.446 75.3236H64.45C66.8511 75.3236 68.6857 73.7375 68.6857 71.2806C68.6857 69.9338 65.819 65.4254 65.0392 64.0626C64.3845 62.9184 63.6852 61.8031 63.0528 60.6454C62.4215 59.4897 61.6942 58.3918 61.0654 57.2374L55.0827 46.8341C54.2872 45.4123 53.6478 44.4896 53.6478 42.747V28.4858ZM49.9972 70.3211C50.0012 70.6794 50.0142 71.0385 50.0173 71.3967C50.0205 71.7566 50.035 72.2927 49.9572 72.6395C49.7958 73.3588 49.1738 73.7878 48.4505 73.8022C47.5637 73.82 47.0872 73.3697 46.9329 72.5243C46.8079 71.8385 46.884 71.0408 46.898 70.3224C46.1808 70.3231 45.4386 70.3237 44.7313 70.2393C44.048 70.1577 43.4174 69.9797 42.7659 69.7617C40.0612 68.8567 37.5028 66.7655 36.0188 64.3329C35.4964 63.4766 34.9828 62.3542 34.9677 61.3337C34.9548 60.454 35.3304 59.7451 36.2054 59.4831C38.6654 58.7471 41.8662 59.2022 44.2066 60.185C44.7984 60.4336 45.3086 60.7417 45.8171 61.1306C46.0176 61.2839 46.2125 61.4447 46.4099 61.6023C46.2245 61.3008 46.0028 61.0179 45.8324 60.7076C45.5446 60.1832 45.2725 59.7175 45.0375 59.1622C44.471 57.8242 44.3037 56.6563 44.555 55.2113C44.6669 54.5678 44.9073 53.8572 45.1433 53.2496C45.452 52.4547 45.8462 51.6293 46.3358 50.93C47.4338 49.3616 48.8039 48.8428 50.126 50.5514C52.8414 54.0602 53.1917 56.921 50.9976 60.8368C50.8416 61.1153 50.6603 61.3419 50.5022 61.5848C50.7623 61.3746 51.0209 61.1606 51.3038 60.9716C51.8415 60.6125 52.2267 60.3741 52.8293 60.1292C55.2897 59.1287 58.2552 58.7518 60.8206 59.5485C62.529 60.079 61.9694 61.7653 61.4716 62.9878C59.4451 67.9644 55.2099 70.2641 49.9972 70.3211ZM48.3704 58.7966C48.636 58.5565 48.6864 58.3298 48.8529 57.9145C49.1907 57.0717 49.3499 56.2602 49.1228 55.3683C48.9638 54.7434 48.658 54.1743 48.4865 53.5491H48.4095C48.1655 54.435 47.6825 55.029 47.6825 56.0498C47.6825 56.5914 47.6875 57.3427 47.9292 57.8438C48.0052 58.0014 48.1005 58.1498 48.1784 58.3074C48.2572 58.4664 48.3193 58.6293 48.3704 58.7966ZM38.7326 62.4185C39.4345 63.9053 40.1737 64.764 41.6138 65.7204C42.3281 66.1948 43.0169 66.5714 43.8523 66.7785C44.7445 66.9997 45.7454 67.0297 46.6739 67.033C46.4016 65.83 44.744 64.2312 43.8228 63.6233C42.2245 62.5686 40.5804 62.4302 38.7326 62.4185ZM50.1306 67.033C51.0643 67.0302 52.0739 67.0056 52.9659 66.7978C53.8345 66.5954 54.5423 66.2118 55.2822 65.7204C56.31 65.0378 57.7786 63.6744 58.2092 62.4191C54.2071 62.4633 52.0616 63.5369 50.1306 67.033ZM96.2667 84.969C96.2667 88.3209 93.76 92.2049 91.0576 94.0821C85.4075 98.0071 78.707 96.8488 74.1833 91.8006C73.944 91.5336 73.7753 91.32 73.574 91.0228C73.1901 90.4561 72.8601 89.918 72.5574 89.3028C72.0666 88.3055 71.697 87.3224 71.5281 86.2201C71.3686 85.179 71.3849 84.0924 71.3849 83.0411C71.3849 79.5446 73.7674 75.6986 76.594 73.7351C77.1945 73.3179 77.7753 72.9632 78.4316 72.6402C79.4289 72.1494 80.412 71.7797 81.5144 71.6109C82.5554 71.4514 83.642 71.4677 84.6933 71.4677C88.1898 71.4677 92.0358 73.8502 93.9993 76.6768C96.0444 79.6207 96.2667 81.474 96.2667 84.969ZM74.4809 84.005C74.4809 86.2608 75.7568 89.0017 77.356 90.5684C79.0154 92.194 81.0846 93.1837 83.4233 93.2404C85.5008 93.2908 87.5545 92.5848 89.2302 91.3714C90.9 90.1622 92.2085 88.4449 92.8182 86.4667C93.4892 84.2897 93.2382 82.0721 92.2309 80.0409C91.2039 77.9703 89.6309 76.2744 87.4886 75.3498C85.6312 74.5482 83.5615 74.4293 81.6083 74.9246C77.373 75.9988 74.4809 79.6144 74.4809 84.005ZM84.2229 82.2648C84.9966 82.2691 85.9422 82.2999 86.6335 82.5117C87.1467 82.6689 87.5608 82.9519 87.6092 83.5218C87.6547 84.057 87.3498 84.7571 87.1335 85.2365C86.7425 86.1029 86.3011 86.951 85.9008 87.8149C85.3571 88.9882 84.9853 90.9513 83.3438 90.9513C82.8807 90.9513 82.4775 90.7417 82.1859 90.3873C81.9705 90.1255 81.7958 89.7473 81.7958 89.4032V89.3625L83.4269 85.5564C82.726 85.5704 81.9149 85.6144 81.2774 85.4578C80.4243 85.2481 80.0606 84.6851 80.0606 83.8122C80.0606 83.31 81.3846 80.7647 81.6893 80.13C82.0943 79.2864 82.7949 76.8659 83.9222 76.8659C84.9268 76.8659 85.8558 77.2598 85.8558 78.414V78.4547L84.2229 82.2648Z" fill="#00A0E3"/>
<path fill-rule="evenodd" clip-rule="evenodd" d="M32.756 4.38088C32.756 2.98049 34.5322 2.62706 35.5764 2.31756C37.9651 1.60954 40.3478 1.14092 42.8273 0.900782C45.2701 0.664288 47.7308 0.642212 50.1832 0.642212C64.5089 0.642212 79.646 9.21546 87.6524 20.9647C92.7268 28.4111 96.3367 37.4897 96.3367 46.6029C96.3367 50.3596 96.2677 54.2034 95.5437 57.9012C94.8475 61.458 93.5371 64.8653 92.1912 68.2183C91.8235 69.1343 91.085 70.1058 89.9686 69.7801C89.3128 69.5887 88.6665 68.8985 88.6665 68.1959C88.6665 68.0131 88.8536 67.5442 88.92 67.366C89.0928 66.9033 89.2759 66.4436 89.4595 65.9852C89.6512 65.5066 89.8454 65.029 90.0387 64.5511C90.1592 64.253 90.2867 63.9506 90.3968 63.6486C91.5405 60.5111 92.3248 57.3979 92.7009 54.0758C93.6616 45.5935 92.549 37.9389 89.0728 30.1343C88.1241 28.0042 86.8676 25.8713 85.5867 23.9252C84.8903 22.8671 84.1565 21.8284 83.3778 20.8292C82.6958 19.9542 81.9675 19.0891 81.1792 18.3077C80.7269 17.8596 80.2784 17.4079 79.8283 16.9578C78.8673 15.9966 77.8935 15.0424 76.8393 14.1826C75.8197 13.3508 74.7325 12.5756 73.6814 11.7824C72.6058 10.9707 71.4012 10.3551 70.2509 9.66018C61.394 4.30962 49.7009 2.82326 39.6135 4.81896C38.3114 5.07659 37.0461 5.38849 35.777 5.77492C35.2088 5.94796 34.5103 6.10577 33.9196 5.99138C33.0883 5.8303 32.756 5.19221 32.756 4.38088Z" fill="#2B2A29"/>
<path fill-rule="evenodd" clip-rule="evenodd" d="M33.0245 4.3809C33.0245 6.13895 34.6563 5.83564 35.6988 5.5182C36.9609 5.13388 38.1169 4.84144 39.5614 4.55569C49.9072 2.50884 61.6265 4.13654 70.3898 9.43049C71.5752 10.1466 72.7528 10.7454 73.843 11.5682C76.7986 13.7986 77.2718 14.0216 80.0181 16.768C80.5147 17.2646 80.8695 17.623 81.3681 18.1171C84.2258 20.9492 87.708 26.4104 89.318 30.0251C92.8131 37.872 93.9372 45.5454 92.9677 54.1061C92.5772 57.5544 91.7946 60.5978 90.649 63.7406C90.427 64.3495 88.9349 67.8984 88.9349 68.1959C88.9349 69.2149 90.8897 70.7402 91.9421 68.1184C95.3426 59.647 96.0683 56.3785 96.0683 46.6029C96.0683 37.4489 92.4003 28.4086 87.4307 21.1159C79.6334 9.67346 64.6818 0.910645 50.1832 0.910645C44.8393 0.910645 40.824 1.04215 35.6527 2.57492C34.6142 2.88274 33.0245 3.20055 33.0245 4.3809Z" fill="#2B2A29"/>
<path fill-rule="evenodd" clip-rule="evenodd" d="M0.82782 46.7957C0.82782 55.3711 1.78983 61.5556 5.19532 68.6483C8.69151 75.9299 14.2306 82.8365 20.8009 87.36C21.4489 87.8062 21.8416 88.1518 22.5009 88.5521C23.1853 88.9678 23.6237 89.2884 24.2879 89.657C30.9717 93.3661 38.6358 96.1511 46.5201 96.1511C52.272 96.1511 55.2846 96.1137 60.9415 94.5705C63.834 93.7815 65.1857 93.1591 67.7563 92.1312C71.0741 90.8046 68.7077 89.0177 68.3059 89.0177C68.1504 89.0177 61.2886 91.5787 59.2482 92.1062C48.5135 94.8813 35.8121 93.1454 26.3873 87.5575C25.1303 86.8122 24.0751 86.2594 22.9448 85.409C16.1961 80.3316 11.155 75.0671 7.57811 67.0367C4.24169 59.5461 2.6397 50.3511 4.04694 42.1103C4.22107 41.0902 4.76983 38.6984 2.94854 38.6984C1.44135 38.6984 1.40703 40.6619 1.22322 41.9857C1.00523 43.5552 0.82782 45.0223 0.82782 46.7957Z" fill="#2B2A29"/>
<path fill-rule="evenodd" clip-rule="evenodd" d="M22.1129 26.6186C22.6582 26.8022 22.7297 27.0252 22.9983 27.6155C23.1982 28.0549 23.3133 28.6925 23.3759 29.1687C23.4722 29.901 23.4918 30.6718 23.3947 31.4054C23.1811 33.0199 22.3949 34.3288 20.6833 34.4537C20.5934 35.8534 19.8397 36.6258 18.4471 36.8968C17.1544 37.1482 15.6461 36.9689 14.3234 36.9689C13.4128 36.9689 12.7386 36.6373 12.2799 35.8445C12.1259 35.5783 12.0174 35.2996 11.8958 35.0188C11.8301 34.8669 11.7249 34.6238 11.5935 34.5183C11.3743 34.3426 11.2232 34.3383 10.9715 34.2681C10.5599 34.1532 10.261 33.9005 9.97246 33.5937C9.42152 33.008 9.1703 32.4103 9.09868 31.6194C9.064 31.2358 9.07129 30.8446 9.08178 30.4598C9.09453 29.9924 9.11231 29.5264 9.11231 29.0586C9.11231 28.3304 9.28053 27.7261 9.73349 27.1532C9.88394 26.9628 10.2691 26.6071 10.2691 26.3595C10.2691 24.5218 9.60271 23.6903 8.66307 22.2652C8.18149 21.5348 7.79338 20.8259 7.5139 19.9921C7.12032 18.8178 6.99151 17.5676 6.99151 16.3342C6.99151 15.0483 7.40308 13.9041 7.97421 12.7719C12.3851 4.02739 25.5111 7.2192 25.5111 16.9125C25.5111 18.7668 25.0892 20.0685 24.1309 21.6273C23.3106 22.9617 22.6148 23.9189 22.3107 25.5133C22.2195 25.991 22.263 26.2208 22.1129 26.6186ZM16.2408 16.4879C17.0803 15.9243 18.086 15.24 19.0448 14.9622C20.4632 14.5513 21.0769 15.3228 21.0769 16.7198C21.0769 17.3404 20.033 18.016 19.5671 18.3024C19.2073 18.5237 18.8311 18.7273 18.4495 18.9084C18.2594 18.9986 18.0186 19.1117 17.7994 19.1832V25.9683H18.9621C19.1488 24.0921 19.7743 22.6335 20.7515 21.0252C21.3385 20.059 22.2223 18.8552 22.2223 17.6837C22.2223 15.5758 22.1664 14.3231 20.5978 12.7593C18.7746 10.9419 17.9151 10.9416 15.4802 10.9416C13.2593 10.9416 11.191 12.8948 10.5267 14.9172C10.308 15.5828 10.0713 16.6924 10.1531 17.3879C10.2508 18.2186 10.4825 18.9247 10.884 19.6558C11.244 20.3114 11.6859 20.919 12.0523 21.5734C12.4449 22.2746 12.7455 22.9708 12.9739 23.7406C13.1901 24.4697 13.3469 25.2253 13.5173 25.9683H14.7033V19.6117C14.7033 18.4595 11.4258 18.7083 11.4258 16.1414C11.4258 15.466 12.3383 14.7861 12.9738 14.7861C13.4911 14.7861 15.4972 16.0721 16.2408 16.4879ZM12.4012 29.2571V31.3643C12.983 31.3537 13.7825 31.3198 14.231 31.6127C14.8349 32.0073 14.8999 32.981 14.9066 33.68H17.5951C17.5948 33.2914 17.5984 32.8778 17.655 32.5041C17.7004 32.2042 17.7891 31.9041 18.0257 31.6981C18.2601 31.4939 18.5861 31.4314 18.8863 31.4012C19.2805 31.3616 19.6987 31.3643 20.1016 31.3659V29.2571H12.4012ZM28.2046 13.2551C27.5477 13.2551 26.9451 12.8654 26.6757 12.2664C26.3751 11.5982 26.5832 10.8969 27.1106 10.4114C27.7716 9.80315 28.9083 9.15923 29.7861 8.93935C31.0882 8.61324 31.8734 9.16237 31.8734 10.5504C31.8734 11.2908 30.6762 12.0386 30.1086 12.3709C29.838 12.5293 28.4923 13.2551 28.2046 13.2551ZM25.8967 4.3809C25.8967 4.59954 25.6765 5.16499 25.5941 5.3719C25.3802 5.90842 25.1161 6.44873 24.7974 6.93148C24.1178 7.9611 23.0773 8.78562 21.9928 7.70107C21.5525 7.26079 21.4165 6.75655 21.5895 6.16553C21.7268 5.69626 22.0129 5.28724 22.245 4.86256C22.4723 4.44669 22.6905 4.00889 22.9675 3.62347C23.4168 2.99792 24.115 2.61448 24.877 2.91654C25.4634 3.14896 25.8967 3.74383 25.8967 4.3809ZM0.629333 10.3576C0.629333 9.11137 1.29641 8.58439 2.4783 8.88973C2.88717 8.99538 3.29175 9.17803 3.66296 9.37671C3.87133 9.48818 4.06469 9.61802 4.26723 9.72905C5.10801 10.1794 6.215 11.0242 5.80146 12.1248C5.59105 12.685 4.90299 13.2551 4.29805 13.2551C4.20334 13.2551 3.7659 13.0732 3.6733 13.0355C3.25926 12.8672 2.84987 12.676 2.45943 12.4585C1.716 12.0443 0.629333 11.3049 0.629333 10.3576ZM6.60595 4.3809C6.60595 3.69466 7.03289 2.97257 7.73356 2.81709C8.74394 2.59291 9.53043 3.64438 9.93975 4.41215C10.3095 5.10568 10.8588 5.65094 10.8588 6.50169C10.8588 7.27347 10.5323 7.98274 9.71498 8.12736C9.13169 8.2306 8.44341 7.98725 8.06754 7.52621C7.72591 7.10728 7.53364 6.6206 7.26851 6.1565C6.81046 5.35471 6.60595 5.43281 6.60595 4.3809ZM14.7033 2.26017C14.7033 0.146512 17.7994 0.146512 17.7994 2.26017C17.7994 2.58628 17.8292 2.92266 17.8419 3.24979C17.8587 3.68424 17.8619 4.12721 17.8157 4.56013C17.7282 5.37853 17.4283 6.31453 16.4441 6.31453C15.6017 6.31453 14.9551 6.10543 14.7544 5.22087C14.6653 4.82802 14.6671 4.37427 14.6724 3.97246C14.6801 3.40133 14.7033 2.83181 14.7033 2.26017Z" fill="#00A0E3"/>
</svg>
