<svg width="99" height="99" viewBox="0 0 99 99" fill="none" xmlns="http://www.w3.org/2000/svg">
<mask id="mask0_584_2000" style="mask-type:luminance" maskUnits="userSpaceOnUse" x="43" y="44" width="13" height="11">
<path d="M55.3488 44.2303H43.6512V54.7696H55.3488V44.2303Z" fill="white"/>
</mask>
<g mask="url(#mask0_584_2000)">
<path fill-rule="evenodd" clip-rule="evenodd" d="M45.0082 44.7948H51.4181V50.8981L44.241 49.8094C44.3768 48.1123 44.6891 46.4535 45.0082 44.7948Z" stroke="#141515" stroke-width="0.704126" stroke-miterlimit="22.9256"/>
</g>
<path fill-rule="evenodd" clip-rule="evenodd" d="M34.2173 58.0349L33.9871 55.7257L36.7236 55.7214C36.4 56.2046 36.0525 56.4876 35.6155 56.9268C35.1512 57.3934 34.9026 57.8519 34.2173 58.0349ZM38.6516 52.6367H34.0245C34.0245 51.2897 34.3846 49.6839 34.6861 48.4785C35.021 47.1397 35.8288 45.4556 35.9524 44.9249H39.6155C39.5994 45.6494 38.7032 50.3222 38.6516 52.6367ZM41.9765 50.5633C41.9291 49.211 42.0127 48.8552 42.2041 47.7062C42.3616 46.7604 42.6824 45.7254 42.7002 44.9249H47.5201L41.9765 50.5633ZM43.857 41.8402C43.9404 40.8383 45.1688 38.8693 45.7032 38.0953C48.2671 34.3822 51.6507 35.0951 53.6895 38.9483C52.1839 39.9565 51.5015 41.7109 50.2252 41.8462C48.5768 42.021 45.6461 41.8402 43.857 41.8402ZM40.5795 41.8402H37.8804C38.3873 41.0831 39.1756 40.2389 39.8527 39.571C40.3455 39.0848 41.6579 37.9669 42.3147 37.7915C41.7277 38.9008 40.8895 40.5095 40.5795 41.8402ZM46.3634 32.9716C46.3634 25.3284 45.2989 26.4166 52.5327 26.4166V32.9716C51.4494 32.4518 47.4467 32.4518 46.3634 32.9716ZM6.26205 48.2024C6.26205 56.0572 7.06698 60.0522 9.75708 66.686C10.9814 69.7051 13.9954 74.669 16.2336 77.1754C18.1439 79.3145 18.5259 78.257 21.3482 75.4346C21.9703 74.8126 24.3848 72.7401 24.3848 71.9161C24.3848 71.0745 23.7714 70.348 22.9834 70.2617C21.6107 70.1113 19.9811 73.111 18.0226 74.4225C15.977 73.0527 12.3443 65.4193 11.394 62.5427C9.09722 55.5894 10.0081 55.6376 9.26515 50.7899C8.81001 47.8194 9.94302 41.5139 10.7345 38.6009C14.3802 25.1841 25.2872 14.7016 38.5257 10.8672C46.3749 8.59365 54.7931 8.97236 62.4388 11.4979C64.9072 12.3134 66.6859 13.2474 68.8584 14.3325C70.1082 14.9568 73.694 17.1938 74.3186 18.1265L57.6908 34.8522C56.9125 34.4627 56.6934 34.1862 55.6175 33.9356C55.6175 31.9434 55.6175 29.9512 55.6175 27.959C55.6175 22.4998 56.4501 23.3319 47.7129 23.3319C45.9378 23.3319 44.3691 24.6686 43.7842 25.9582C43.1387 27.3814 43.8558 27.1244 42.1962 27.6478C41.2899 27.9336 40.5381 28.2635 39.7426 28.6645C36.0463 30.5277 33.1501 32.8854 30.6622 36.1643L28.1108 40.168C27.6866 40.9496 27.3812 41.7154 27.0277 42.5551C25.0404 47.2745 24.352 52.8082 25.0122 58.1787C25.4143 61.4496 28.1408 60.7869 28.068 58.428C28.0304 57.2128 27.8551 57.4616 27.8551 55.143C27.8551 49.1768 28.6535 45.091 31.6016 40.1885C31.9596 39.5931 32.1609 39.1957 32.5618 38.6423C34.9155 35.393 39.3417 31.3825 43.2787 30.4653V33.9356C40.4975 34.5835 38.0638 37.1034 36.2883 39.0913C31.805 44.1108 30.0812 51.8342 31.407 58.9178C31.853 61.3009 31.8609 60.6846 30.4096 62.1318C29.7575 62.7822 25.7343 66.5458 25.7343 67.0963C25.7343 68.12 26.2322 68.8314 27.2767 68.8314C28.3308 68.8314 29.7223 67.0606 30.7952 65.9877L76.8732 19.91C79.029 17.7693 78.4746 17.3498 75.7765 15.3189C75.2104 14.8929 75.0482 14.6921 74.4764 14.3054C73.9407 13.9432 73.4795 13.6423 72.971 13.3046C67.0822 9.39369 58.5621 6.36597 50.7976 6.36597C42.5979 6.36597 37.9742 7.30735 31.2429 10.3322C27.4332 12.0442 24.9064 13.8933 21.7105 16.4162C20.3164 17.5168 17.3781 20.4401 16.396 21.7054C15.5739 22.7644 14.8847 23.5379 14.1283 24.6431C9.54944 31.334 6.26205 39.3607 6.26205 48.2024Z" fill="#2B2A29"/>
<path fill-rule="evenodd" clip-rule="evenodd" d="M38.4588 66.9034C39.3065 66.3358 39.2404 66.5179 40.5795 66.5179C40.8895 67.8485 41.7277 69.4571 42.3147 70.5665C41.8162 70.4334 41.5949 70.2487 41.2132 69.9327C40.3153 69.1892 38.6089 68.0739 38.4588 66.9034ZM43.857 66.5179H55.0391C54.9323 67.8009 50.7946 76.9187 45.7802 70.3784C45.1977 69.6187 44.0018 67.6461 43.857 66.5179ZM56.5814 70.5665C57.1684 69.4571 58.0066 67.8485 58.3166 66.5179H61.0157C60.4406 67.3767 59.7952 68.0433 59.0433 68.7869C58.5524 69.2724 57.2368 70.3915 56.5814 70.5665ZM56.1959 63.4331H42.7002C42.7242 62.3568 43.0024 62.4556 44.1944 61.2642C44.9377 60.5212 49.4282 55.7213 50.0265 55.7213H57.1598C57.1598 57.0262 57.061 58.4352 56.8628 59.6658C56.7432 60.4086 56.6829 60.775 56.5584 61.4821C56.4372 62.1697 56.2135 62.6419 56.1959 63.4331ZM62.9437 63.4331H59.2806C59.2967 62.7086 60.193 58.0358 60.2445 55.7213H64.8716C64.8716 57.0682 64.5115 58.6741 64.21 59.8796C63.8752 61.2182 63.0673 62.9024 62.9437 63.4331ZM57.1598 52.6366H52.9184C53.5194 51.7391 55.0119 50.4773 55.8588 49.5934C56.6029 48.8166 57.1598 47.4927 57.1598 52.6366ZM63.9076 46.66C63.9076 48.6391 64.8716 49.9898 64.8716 52.6366H60.2445C60.2445 51.9485 60.0604 50.0764 59.9447 49.2733C59.7852 48.1657 59.5494 46.9956 59.4733 46.0816L80.8256 24.6335C82.9491 26.0897 86.5556 33.7115 87.5022 36.561C89.7803 43.4188 88.8992 43.5392 89.631 48.314C89.8624 49.8241 89.5702 50.9809 89.5564 52.6437C89.537 54.9838 88.7052 58.5022 88.1616 60.503C85.8186 69.1258 80.0846 77.0015 72.8579 82.2159C71.9007 82.9067 71.0936 83.5165 70.0774 84.0625C64.9598 86.812 58.6018 89.6015 52.5402 89.6606C49.5313 89.69 46.9753 89.8036 43.9384 89.379C41.0983 88.982 38.8732 88.4087 36.4572 87.6061C33.6525 86.6743 25.9559 83.0357 24.5775 80.9774L36.0974 69.3619C37.6496 70.4281 37.6036 71.3242 41.5046 73.6901C46.1384 76.5004 52.8745 76.4357 57.5106 73.6164C65.7796 68.5879 69.3859 58.9474 67.4276 49.1167C66.216 43.0347 63.9076 46.2551 63.9076 46.66ZM20.7216 81.1702C20.7216 81.9922 21.1245 82.1403 21.724 82.6741C28.1658 88.4099 39.2003 92.7379 47.9057 92.7379C58.0188 92.7379 65.7544 90.6566 73.4619 85.5191C73.818 85.2817 73.855 85.2174 74.2415 84.949C77.2581 82.8542 77.2527 82.5079 79.2853 80.7388L80.5465 79.4936C80.7796 79.2115 80.9507 79.0633 81.2101 78.8077C81.7661 78.2598 82.0027 78.0393 82.5001 77.3985C83.6546 75.9111 84.7731 74.6073 85.7762 72.9629C86.1554 72.3413 86.4424 71.9174 86.8153 71.3028C87.5228 70.1366 88.0168 68.9981 88.6498 67.739C95.7853 53.5459 93.1057 33.6528 82.6625 21.9286C80.7108 19.7375 80.3554 20.8617 76.9695 24.2476L22.3122 78.9049C21.729 79.4877 20.7216 80.1464 20.7216 81.1702Z" fill="#2B2A29"/>
<path fill-rule="evenodd" clip-rule="evenodd" d="M2.98458 50.9015C2.66073 49.2279 3.52977 42.3823 3.96115 40.3104C5.1912 34.4025 7.47935 28.8222 10.7343 23.9482L14.5037 19.0418C18.2984 14.9603 20.5367 12.787 25.625 9.7269C31.656 6.09978 38.0955 4.07537 45.2341 3.30884C46.1913 3.20604 49.8477 3.04357 50.879 3.19985C52.744 3.48254 54.233 3.13705 58.6895 4.06503C66.907 5.77622 75.7281 10.1313 81.5969 16.0534C84.7539 19.2391 86.9628 21.8874 89.2731 25.7289C91.6352 29.6565 93.1008 33.365 94.3937 37.9598C94.9172 39.8203 95.4658 43.2317 95.6912 45.3381C95.9422 47.6854 95.935 51.4863 95.6912 53.7658C94.3114 66.6649 87.583 79.6368 76.7478 87.0698C69.312 92.1707 62.9183 94.8011 53.662 95.795C49.698 96.2206 44.0606 95.8412 40.2066 95.0388C32.8135 93.4996 26.2812 90.4257 20.5036 85.8226L18.0794 83.8125C17.768 83.5522 17.5852 83.3391 17.2992 83.0504C15.3674 81.101 13.5158 79.163 11.9302 76.8516C11.0684 75.5954 10.4351 74.7252 9.62303 73.375C6.59006 68.3318 4.38693 62.3435 3.55155 56.3112L2.98458 50.9015ZM48.2301 0.196533H51.2928C58.0185 0.392592 64.6388 1.88638 70.3355 4.7579C78.8098 9.02944 84.2464 13.3949 89.8535 21.0997C91.628 23.5381 92.8339 25.8708 94.2421 28.6644C96.5034 33.1506 98.8035 41.1642 98.8035 47.8168V51.2871C98.8035 58.0171 96.4392 66.0868 94.1772 70.5673C89.9787 78.8831 85.4952 84.4635 77.9006 89.9578C75.4446 91.7345 73.1426 92.931 70.3355 94.3459C65.8494 96.6073 57.8358 98.9073 51.1832 98.9073H47.7129C40.9578 98.9073 32.9307 96.5519 28.4327 94.281C23.3575 91.7187 16.4144 87.3011 12.9285 82.7939C9.75672 78.693 10.0552 79.9095 6.63661 74.2407C5.89537 73.0116 5.27819 71.6894 4.58889 70.3118C1.10661 63.3523 0.092659 56.2819 0.092659 47.624C0.092659 38.4395 4.2386 27.5204 9.20694 20.8785C13.9342 14.5587 17.7177 10.987 24.7592 6.74049C31.508 2.67054 39.8549 0.439949 48.2301 0.196533Z" fill="#2B2A29"/>
<path fill-rule="evenodd" clip-rule="evenodd" d="M34.2173 58.0349L33.9871 55.7257L36.7236 55.7214C36.4 56.2046 36.0525 56.4876 35.6155 56.9268C35.1512 57.3934 34.9026 57.8519 34.2173 58.0349ZM38.4588 66.9035C39.3065 66.3358 39.2404 66.5179 40.5795 66.5179C40.8895 67.8486 41.7277 69.4572 42.3147 70.5666C41.8162 70.4335 41.5949 70.2488 41.2132 69.9328C40.3153 69.1892 38.6089 68.074 38.4588 66.9035ZM36.1788 69.1684L45.8577 59.5445C45.0808 60.345 44.4374 61.0214 44.1944 61.2643C43.0024 62.4557 42.7242 62.3568 42.7002 63.4331H56.1959C56.2135 62.642 56.4372 62.1698 56.5584 61.4822C56.6829 60.775 56.7432 60.4086 56.8628 59.6658C57.061 58.4352 57.1598 57.0263 57.1598 55.7214H50.0265C49.842 55.7214 49.2872 56.1781 48.5864 56.8313L53.3021 52.1423C53.1528 52.3154 53.0223 52.4815 52.9184 52.6367H57.1598C57.1598 49.454 56.9467 48.7478 56.6078 48.8555L66.888 38.6337L59.4733 46.0816C59.5494 46.9956 59.7852 48.1658 59.9447 49.2734C60.0604 50.0765 60.2445 51.9485 60.2445 52.6367H64.8716C64.8716 49.9898 63.9076 48.6391 63.9076 46.66C63.9076 46.2551 66.216 43.0347 67.4276 49.1167C69.3859 58.9475 65.7796 68.588 57.5106 73.6165C52.8745 76.4357 46.1384 76.5004 41.5046 73.6901C37.6386 71.3454 37.6488 70.4443 36.1385 69.3905L36.1788 69.1684ZM43.857 66.5179H55.0391C54.9323 67.801 50.7946 76.9187 45.7802 70.3785C45.1977 69.6187 44.0018 67.6462 43.857 66.5179ZM56.5814 70.5666C57.1684 69.4572 58.0066 67.8486 58.3166 66.5179H61.0157C60.4406 67.3768 59.7952 68.0434 59.0433 68.787C58.5524 69.2725 57.2368 70.3916 56.5814 70.5666ZM62.9437 63.4331H59.2806C59.2967 62.7086 60.193 58.0359 60.2445 55.7214H64.8716C64.8716 57.0683 64.5115 58.6741 64.21 59.8796C63.8751 61.2183 63.0673 62.9024 62.9437 63.4331ZM57.6908 34.8522L53.6593 38.8924C51.6174 35.0888 48.2546 34.4004 45.7032 38.0953C45.1688 38.8693 43.9404 40.8383 43.857 41.8402C45.6461 41.8402 48.5768 42.021 50.2252 41.8462C50.5277 41.8619 50.7002 41.8577 50.7002 41.8577L47.6396 44.9249H47.5201H42.773H42.7002C42.6982 45.0154 42.7061 45.1109 42.7213 45.2101C42.3972 46.9999 42.0887 48.7936 41.9475 50.6291H41.9476L31.3563 61.2428H31.3562C31.8155 60.7825 31.7176 60.5776 31.407 58.9178C30.0812 51.8342 31.805 44.1108 36.2883 39.0913C38.0638 37.1034 40.4975 34.5835 43.2787 33.9356V30.4653C39.3417 31.3825 34.9155 35.393 32.5618 38.6423C32.1609 39.1957 31.9596 39.5931 31.6016 40.1885C28.6535 45.091 27.8551 49.1768 27.8551 55.143C27.8551 57.4616 28.0304 57.2128 28.068 58.428C28.1408 60.7869 25.4143 61.4496 25.0122 58.1787C24.352 52.8082 25.0404 47.2745 27.0277 42.5551C27.3812 41.7154 27.6866 40.9496 28.1108 40.168L30.6622 36.1643C33.1501 32.8854 36.0463 30.5277 39.7426 28.6645C40.5381 28.2635 41.2899 27.9336 42.1962 27.6478C43.8558 27.1244 43.1387 27.3814 43.7842 25.9582C44.3691 24.6686 45.9378 23.3319 47.7129 23.3319C56.4501 23.3319 55.6175 22.4998 55.6175 27.959C55.6175 29.9512 55.6175 31.9434 55.6175 33.9356C56.6934 34.1862 56.9125 34.4627 57.6908 34.8522ZM38.6516 52.6367H34.0245C34.0245 51.2897 34.3846 49.6839 34.6861 48.4785C35.021 47.1397 35.8288 45.4556 35.9524 44.9249H39.6155C39.5994 45.6494 38.7032 50.3222 38.6516 52.6367ZM40.5795 41.8402H37.8804C38.3873 41.0831 39.1756 40.2389 39.8527 39.571C40.3455 39.0848 41.6579 37.9669 42.3147 37.7915C41.7277 38.9008 40.8895 40.5095 40.5795 41.8402ZM46.3634 32.9716C46.3634 25.3284 45.2989 26.4166 52.5327 26.4166V32.9716C51.4494 32.4518 47.4467 32.4518 46.3634 32.9716Z" fill="#00A0E3"/>
</svg>
