<svg width="98" height="98" viewBox="0 0 98 98" fill="none" xmlns="http://www.w3.org/2000/svg">
<path fill-rule="evenodd" clip-rule="evenodd" d="M89.6381 63.7431H72.4378C72.1195 63.7431 71.9636 63.6728 71.9027 63.4651V66.7674H90.9611C94.1616 66.7674 97.1987 63.7553 97.1987 60.5299C97.1987 57.8856 97.4587 56.2663 95.7202 54.0698C95.0935 53.2781 93.5462 52.1292 92.2843 52.0242C92.2843 42.9553 90.4714 35.7991 86.4186 28.7817L84.4992 25.7867C83.8196 24.7847 83.1371 23.9628 82.3764 22.9951C77.3971 16.6606 69.5277 11.6526 61.9731 9.18693C60.9947 8.86757 59.0572 8.25486 58.0727 8.17293C58.0727 -0.23843 51.7971 0.801355 46.3538 0.801355C41.908 0.801355 39.9273 3.96171 39.9273 8.17293C32.7501 9.845 27.2486 12.4997 21.9114 16.8079C21.3507 17.2605 21.109 17.5072 20.5913 17.9451C20.0243 18.4246 19.8176 18.5404 19.2766 19.0876C18.8235 19.5461 18.5045 19.8619 18.0489 20.3171L15.7054 22.8879C8.81258 31.3713 5.71572 40.4827 5.71572 52.0242C3.30829 52.2246 0.801361 55.1809 0.801361 57.8836V60.5299C0.801361 63.7574 3.81129 66.7674 7.03886 66.7674H26.1177V63.3679C26.0775 63.6514 25.9258 63.7431 25.5622 63.7431H8.36193C7.01715 63.7431 5.8745 63.4738 5.10922 62.8376C4.33293 62.1921 3.82558 61.1544 3.82558 59.7738C3.82558 57.4319 4.45657 54.8594 7.22786 54.8594H26.1177V51.5019C25.9767 51.5898 25.8504 51.6462 25.7512 51.6462H8.929C8.929 42.6652 10.2851 37.6931 14.3454 30.2226C16.8676 25.5818 21.6772 20.4783 25.9403 17.6236L27.1021 35.1743C27.2058 36.1112 27.2789 37.7616 27.4007 38.6559C27.7931 41.5356 26.8209 44.4636 29.5315 44.4636C31.2326 44.4636 30.7317 41.4333 30.666 40.116L29.9612 30.6139C29.8727 29.9644 29.9419 29.4168 29.9099 28.7751L28.9645 15.5445C30.1582 15.2664 33.4654 12.8916 39.9273 11.3861V44.8417C39.9043 44.8528 39.8797 44.8641 39.8545 44.8756H39.9669C41.023 44.5511 42.0809 44.2858 43.1406 44.0783V11.9532C43.1406 3.14257 42.4184 4.01464 52.0242 4.01464C55.6685 4.01464 54.8594 8.14664 54.8594 11.7642V44.0856C51.5686 43.319 46.7304 43.3019 43.3701 44.0341C48.2296 43.1211 53.1259 43.4278 58.0565 44.8756H58.1469C58.121 44.8642 58.0962 44.853 58.0727 44.8417V11.3861C58.89 11.4542 60.2902 11.9167 61.0748 12.1644C63.8677 13.0461 68.692 15.4644 69.0355 15.5445C69.0355 16.4806 68.9151 16.5241 68.8567 17.2558L68.4787 22.9262C68.4297 23.5366 68.5089 24.1634 68.4408 24.7785L68.0388 30.6139C67.6838 33.2194 67.6964 36.7472 67.3621 39.766C67.299 40.3357 67.1287 43.1308 67.3226 43.5215C67.4838 43.8461 68.0134 44.4636 68.4685 44.4636C71.1049 44.4636 70.2549 41.7136 70.5753 38.8209C70.6791 37.884 70.7521 36.2336 70.874 35.3393L72.0597 17.6236C75.3076 19.7985 77.3994 22.0157 79.8536 24.7619C80.9547 25.9942 82.8514 28.7235 83.5899 30.0982C85.6039 33.8469 85.9144 34.2396 87.301 38.4841C88.8871 43.3398 89.071 46.5104 89.071 51.6462H72.2488L71.9027 51.4321V54.8594H90.7721C94.5912 54.8594 95.0606 60.8607 92.9926 62.7503C92.2289 63.4481 91.0366 63.7431 89.6381 63.7431ZM26.1177 68.8674C26.1113 69.6784 26.1067 70.4354 26.1177 71.1571V68.8674Z" fill="#2B2A29"/>
<path fill-rule="evenodd" clip-rule="evenodd" d="M29.1535 70.5476V53.5364C29.1535 52.8482 32.4812 51.3049 33.1858 50.9531C45.9491 44.5811 54.7561 45.3454 66.8961 52.0844C67.4486 52.3911 68.8465 52.8924 68.8465 53.5364V70.5476C68.8465 81.0422 62.1281 84.0095 55.2906 89.1242L49 93.6074L35.0604 83.5421C33.2796 81.8797 32.6818 81.3456 31.3386 79.1364C30.0861 77.0762 29.1535 73.7915 29.1535 70.5476ZM39.8545 44.8756H39.9669C41.023 44.5511 42.0809 44.2858 43.1406 44.0783V44.0856C43.2161 44.068 43.2928 44.0509 43.3701 44.0341C48.2296 43.1211 53.1258 43.4278 58.0565 44.8756H58.1468C58.6178 45.0814 59.4673 45.2941 60.0436 45.5169C64.0016 47.0469 65.3148 47.5976 69.0957 49.6959L71.9027 51.4321V54.8594H71.8707V63.1761C71.8707 63.2934 71.8802 63.3885 71.9027 63.4651V66.7674H71.8707C71.8707 72.8247 72.2939 75.9643 68.9571 81.4321C67.3976 83.9877 65.3423 85.6941 63.0421 87.425C59.252 90.2771 54.7045 93.2846 50.8386 96.2021C49.0598 97.5444 48.8705 97.4967 47.0546 96.1198L41.78 92.3217C37.6834 89.5304 31.3811 85.3444 28.9723 81.3136C26.5926 77.3314 26.1709 74.6595 26.1177 71.1571V68.8674C26.1229 68.2065 26.1293 67.5101 26.1293 66.7674H26.1177V63.3679C26.1257 63.3117 26.1293 63.2481 26.1293 63.1761V54.8594H26.1177V51.5019C26.4978 51.2648 26.9853 50.7984 27.3393 50.5881L32.4913 47.8015C35.4648 46.3026 38.7311 45.3859 39.8545 44.8756Z" fill="#12AADA"/>
<path fill-rule="evenodd" clip-rule="evenodd" d="M34.4459 56.1826C35.3281 55.977 36.4816 55.2237 37.4436 54.8329C38.4511 54.4236 39.3978 53.9318 40.5163 53.5584C48.427 50.9171 53.0679 51.7271 60.4208 54.7795C61.4258 55.1968 62.6941 55.9822 63.5541 56.1826C63.5541 59.9629 63.5541 63.7432 63.5541 67.5235C63.5541 71.999 63.5119 74.1761 61.7283 77.0386C60.5692 78.899 59.0542 79.9045 57.3153 81.1311C56.5266 81.6875 49.3516 86.9919 49 86.9919L39.0391 79.9416C37.9213 79.0374 37.0851 78.2604 36.2539 77.0562C34.575 74.6242 34.4459 71.5756 34.4459 67.5235C34.4459 63.7432 34.4459 59.9629 34.4459 56.1826ZM31.4216 55.0485V71.6818C31.4216 76.7381 34.4526 80.4973 38.1169 83.1318L47.3514 89.7746C48.7091 90.811 49.1584 90.9115 50.5422 89.8572C54.6461 86.7305 61.7549 82.5584 64.3506 78.7157C65.3857 77.1831 66.5783 74.3609 66.5783 71.8708V55.0485C66.5783 54.3313 65.7133 53.9242 65.1781 53.6135C60.3126 50.79 54.401 48.811 48.4329 48.811C44.682 48.811 41.7759 49.8004 38.9115 50.8195C37.8943 51.1813 31.4216 53.631 31.4216 55.0485Z" fill="#12AADA"/>
<path fill-rule="evenodd" clip-rule="evenodd" d="M45.4087 73.7609C44.815 73.7609 44.0726 72.5796 43.6003 71.9781L40.2492 67.7684C39.3543 66.5872 38.7808 65.6333 40.4943 65.6333C41.0908 65.6333 42.5324 67.8639 42.9081 68.323C46.1486 72.2838 44.8976 72.0983 54.0561 62.9398C55.2366 61.7593 56.0909 60.3409 57.3166 60.3409C57.7329 60.3409 58.6056 60.8686 57.3722 62.0949L47.2516 72.2015C46.8624 72.5908 45.9677 73.7609 45.4087 73.7609ZM45.7868 66.7674C44.0516 65.6055 43.6595 62.42 40.1163 62.42C37.9446 62.42 36.3361 64.1235 36.3361 66.7674C36.3361 68.3953 38.8586 71.0405 39.9521 72.413C40.6774 73.3233 41.3098 74.1235 42.0491 75.0414C43.3185 76.6179 43.7928 76.7851 45.7868 76.7851C47.7291 76.7851 49.2023 74.7872 50.2758 73.7137L57.9309 66.0586C59.6786 64.3109 61.0969 63.561 61.0969 60.908C61.0969 58.6364 57.7344 54.8759 53.7722 58.8756L45.7868 66.7674Z" fill="#12AADA"/>
</svg>
