<svg width="85" height="99" viewBox="0 0 85 99" fill="none" xmlns="http://www.w3.org/2000/svg">
<path fill-rule="evenodd" clip-rule="evenodd" d="M3.89933 16.4001L42.448 3.48627L61.6497 9.91948C64.9627 11.0241 68.0597 12.0565 71.335 13.1479L78.5423 15.5778C79.3962 15.8816 80.112 16.1939 80.9967 16.4001C80.9967 26.1658 80.9967 35.9314 80.9967 45.6971C80.9967 50.6893 80.8119 55.1405 79.8031 59.152C76.5106 72.2446 70.1238 81.8739 58.4101 89.4142C57.7007 89.8708 56.8545 90.3354 56.068 90.7343C53.0766 92.2516 52.1132 92.883 48.4477 94.1003C42.5794 96.0491 42.4588 96.1015 36.593 94.1485C21.067 88.979 8.72291 75.6591 5.16646 59.4639C4.17888 54.9665 3.89933 51.3448 3.89933 45.8899C3.89933 36.0599 3.89933 26.23 3.89933 16.4001ZM0.81543 14.8581V51.0939C0.81543 60.2498 5.52484 72.8614 11.2674 79.7689L13.775 82.8508C15.4203 84.6295 17.6402 86.8372 19.5103 88.2947C20.5939 89.1392 21.5273 89.8337 22.7065 90.688C23.8618 91.525 24.8828 92.1461 26.0997 92.8844L31.5979 95.6741C33.9529 96.6914 40.268 98.8943 42.448 98.8943C46.3643 98.8943 55.7457 94.734 58.7964 92.8844C60.0131 92.1467 61.0347 91.5247 62.1896 90.688C65.6022 88.2158 68.3335 86.0187 71.2136 82.7505L76.0232 76.381C80.4227 69.3457 84.0807 59.9109 84.0807 50.7084V14.8581C84.0807 13.7193 80.5967 12.893 79.4794 12.5206L63.6253 7.17292C62.2129 6.70226 43.4052 0.209595 42.448 0.209595C41.364 0.209595 18.9126 8.02294 16.1149 8.9558C14.2406 9.58077 12.6397 10.1128 10.7654 10.7377C8.93893 11.3468 7.38824 11.8632 5.56127 12.4725C4.38922 12.8633 0.81543 13.7135 0.81543 14.8581Z" fill="#2B2A29"/>
<path fill-rule="evenodd" clip-rule="evenodd" d="M11.0309 48.3955V21.4114C11.8075 21.3942 14.0996 20.4844 15.0058 20.1823L42.4481 11.0033C42.8781 11.0033 49.2447 13.2372 50.2778 13.5817C51.6634 14.0437 52.8361 14.428 54.1828 14.8807C55.4246 15.2981 56.7458 15.8066 58.0344 16.2333L69.7449 20.135C70.7681 20.4762 72.9252 21.3332 73.8653 21.4114C73.8653 26.239 74.0986 49.2116 73.6222 52.971C72.2369 63.9026 67.1267 73.512 58.6672 80.4197C56.2943 82.3573 54.7715 83.2055 52.1967 84.7428C50.5957 85.6987 46.6057 87.2767 44.6798 87.8268C42.2591 88.5183 42.965 88.5296 40.6727 87.9488C38.6265 87.4304 34.8714 85.9265 33.0669 84.9535C26.1917 81.2464 20.7757 76.0852 16.7745 69.4432C16.4069 68.8332 16.1838 68.3178 15.8122 67.7071C13.0858 63.2268 11.0309 55.1305 11.0309 48.3955ZM7.94699 20.255V50.7085C7.94699 58.9399 11.7974 68.5953 16.5376 74.8842C18.696 77.7479 20.6968 79.9407 23.424 82.2609C23.8532 82.6261 24.3065 82.9621 24.7156 83.2822C27.9649 85.8239 31.2486 87.8298 35.1484 89.4253C41.907 92.1905 42.9694 92.1554 49.6098 89.4801C53.146 88.0555 55.6688 86.5357 58.6399 84.4399C60.4704 83.1487 62.2001 81.7497 63.7945 80.1501C66.2385 77.6981 68.2502 75.2429 70.1661 72.2587C73.7839 66.6242 76.9492 57.9901 76.9492 50.7085V20.255C76.9492 19.2236 76.2933 18.9928 75.5782 18.7348L46.9994 9.15039C45.6729 8.68651 43.6409 7.72668 42.2553 7.72668L9.4606 18.6847C8.63899 18.9693 7.94699 19.1784 7.94699 20.255Z" fill="#2B2A29"/>
<path fill-rule="evenodd" clip-rule="evenodd" d="M50.3506 50.1302C49.9039 52.4385 50.251 53.1061 47.7046 55.5795C46.4534 56.795 43.9467 57.8134 41.8166 57.523C38.9502 57.1325 38.0178 56.453 36.4205 54.8085C31.589 49.8347 36.051 40.7258 43.0784 41.582C46.4211 41.9892 48.9856 43.8498 49.9933 46.8253L50.4738 49.251C50.5669 50.3274 50.4488 49.6226 50.3506 50.1302ZM25.2939 34.9034L27.7531 32.3514C28.4644 32.5729 30.7614 34.4141 31.5768 34.981C33.6843 36.446 33.0982 36.2159 35.7638 34.9652C37.3836 34.2053 39.3397 34.3138 39.7009 32.5418L40.5206 27.001H44.3755C44.3755 27.896 44.6229 28.8685 44.761 29.6993C45.6815 35.2381 45.0971 33.0735 49.1322 34.9652C51.8883 36.2574 50.9286 36.8194 55.1161 33.694C55.719 33.244 56.3714 32.5914 57.0965 32.3978L59.6486 34.857C59.4271 35.5684 57.5858 37.8652 57.0189 38.6807C55.4757 40.901 55.8054 40.2457 57.0348 42.8678C57.7941 44.4877 57.6867 46.4437 59.4582 46.8048C60.3696 46.9906 61.3298 47.0779 62.135 47.2119C63.0512 47.3644 64.0668 47.6245 64.9991 47.6245V51.4794C64.1039 51.4794 63.1314 51.7268 62.3007 51.8649C61.38 52.0179 60.4395 52.099 59.4582 52.2991C57.6867 52.6602 57.7941 54.6163 57.0348 56.2362C55.7426 58.9923 55.1805 58.0325 58.306 62.2201C58.7559 62.823 59.4086 63.4753 59.6022 64.2005L57.143 66.7525C55.8777 66.3585 52.4938 63.0012 51.3434 63.1024C50.905 63.1409 49.6928 63.8759 49.1322 64.1387C45.1428 66.009 45.6762 63.9024 44.7881 69.2389C44.6356 70.1552 44.3755 71.1707 44.3755 72.103H40.5206C40.5206 71.2079 40.2732 70.2354 40.1351 69.4046C39.9821 68.484 39.9009 67.5434 39.7009 66.5621C39.3398 64.7906 37.3837 64.8981 35.7638 64.1387C33.0688 62.8752 33.7759 62.5943 31.5768 64.1229C30.9246 64.5763 30.4073 64.9416 29.7799 65.4099C29.177 65.8599 28.5247 66.5125 27.7995 66.7062L25.2475 64.2469C25.4859 63.4812 26.0618 62.9195 26.5065 62.3292C30.0072 57.6827 29.0288 59.6422 27.0569 53.9568C26.7017 52.9327 26.4676 52.533 25.4392 52.2977L19.8971 51.4794V47.6245L25.4392 46.8062C26.4224 46.5813 26.6761 46.2038 27.0068 45.2898C27.3133 44.4423 27.4786 43.6835 27.8613 42.8678C28.5118 41.4814 29.2822 40.7835 28.6082 39.6988C27.5474 37.9916 26.2943 36.8074 25.2939 34.9034ZM36.6657 31.2414C32.7939 32.1434 35.0516 33.6786 30.1654 30.0319C27.1605 27.7892 27.5958 28.072 24.282 31.3859C21.1207 34.5471 20.6234 34.2119 22.8444 37.1602L24.9689 40.0629C25.7 41.237 24.686 41.415 24.1374 43.7697C23.003 43.7949 21.2588 44.2153 19.9529 44.4037C16.0519 44.9665 16.8132 44.747 16.8132 52.8286C16.8132 54.748 19.4924 54.587 21.9626 55.0033C22.4858 55.0915 23.4883 55.3198 24.1374 55.3343C25.0395 59.2061 26.5747 56.9484 22.928 61.8346C20.6853 64.8395 20.9681 64.4042 24.282 67.718C24.8605 68.2966 26.2619 69.85 26.8068 70.214C28.0613 71.0521 29.1619 69.8294 30.0563 69.1556C35.0532 65.3913 32.813 66.965 36.6657 67.8626C36.691 68.997 37.1114 70.7412 37.2998 72.0471C37.8625 75.9481 37.6431 75.1869 45.7247 75.1869C47.3042 75.1869 47.3505 73.6761 47.571 72.2146C47.7033 71.3376 47.7584 70.874 47.8994 70.0373C47.9876 69.5142 48.2159 68.5117 48.2303 67.8626C52.1022 66.9605 49.8445 65.4253 54.7306 69.072C57.7356 71.3147 57.3003 71.0319 60.6141 67.718C65.2968 63.0353 63.3843 64.5932 59.9271 59.041C59.4339 58.2488 59.6813 58.0931 60.0363 57.3159C60.3327 56.6666 60.5971 56.0279 60.7587 55.3343C61.8931 55.309 63.6373 54.8886 64.9432 54.7002C68.8442 54.1374 68.083 54.3569 68.083 46.2754C68.083 44.3559 65.4036 44.5169 62.9334 44.1006C62.4102 44.0124 61.4078 43.7841 60.7587 43.7697C59.8566 39.8978 58.3213 42.1555 61.9681 37.2693C64.2107 34.2644 63.928 34.6997 60.6141 31.3859C60.0356 30.8073 58.6342 29.254 58.0892 28.8899C56.5061 27.8322 54.0871 30.7341 51.9371 32.0729C50.763 32.8039 50.585 31.7899 48.2303 31.2414C48.2048 30.096 47.7682 28.3492 47.5676 27.0855C46.9515 23.2047 47.6618 23.9171 39.1714 23.9171C37.252 23.9171 37.4129 26.5963 36.9966 29.0666C36.9085 29.5898 36.6801 30.5922 36.6657 31.2414ZM31.2689 48.9738C31.2689 51.206 31.3471 52.2838 32.2934 54.3097C32.551 54.8613 32.9345 55.5235 33.2801 56.0215C35.542 59.2801 38.9682 60.7311 43.0263 60.7311C48.4507 60.7311 53.6272 55.5451 53.6272 50.1302C53.6272 47.898 53.5489 46.8201 52.6026 44.7942C52.0019 43.508 50.9143 41.9494 49.7743 41.0692C45.5235 37.7871 40.3845 37.3257 35.9785 40.3841C33.2777 42.2587 31.2689 45.6032 31.2689 48.9738Z" fill="#00A0E3"/>
</svg>
