<svg width="99" height="99" viewBox="0 0 99 99" fill="none" xmlns="http://www.w3.org/2000/svg">
<path fill-rule="evenodd" clip-rule="evenodd" d="M86.7011 81.6882C86.7011 82.5355 87.3396 82.9952 88.1405 82.9888C88.924 82.9826 89.5891 82.525 89.5891 81.6882C89.5891 80.857 88.9007 80.3687 88.125 80.3418C87.276 80.3124 86.7011 80.8163 86.7011 81.6882Z" fill="#2B2A29"/>
<path fill-rule="evenodd" clip-rule="evenodd" d="M80.6897 87.0693L74.1476 93.6144C73.4556 94.3067 71.4744 95.8793 71.4744 96.9148C71.4744 97.8137 72.176 98.2625 73.0147 98.2625C73.797 98.2625 75.1127 96.5989 75.6405 96.0712L81.23 90.4816C81.9365 89.7751 83.4213 88.7712 83.4213 87.6632C83.4213 87.1151 82.841 86.5911 82.3379 86.4714C81.6739 86.3133 81.1655 86.6372 80.6897 87.0693Z" fill="#2B2A29"/>
<path fill-rule="evenodd" clip-rule="evenodd" d="M56.89 31.1109C57.8545 29.2882 58.9241 27.4509 59.632 25.5102C60.4274 23.3295 60.6776 21.1664 60.6776 18.8538C60.6776 14.2294 58.8249 9.0827 55.7672 5.59386C54.5384 4.19166 51.2556 0.737427 49.3073 0.737427C48.5059 0.737427 46.5633 2.32243 45.9653 2.83659C45.2701 3.43445 44.5983 4.07151 43.9653 4.73502C43.4824 5.24124 42.9704 5.80515 42.573 6.38167C39.9056 10.2503 38.3225 14.0837 38.3225 18.8538C38.3225 21.1908 38.5564 23.4028 39.3727 25.6046C40.0802 27.5124 41.1598 29.3151 42.11 31.1109L42.5603 31.9619H41.5975C39.3084 31.9619 36.8996 32.0045 34.6586 32.5114C32.536 32.9915 30.6846 33.8867 28.8241 34.9992C28.2241 35.358 27.6542 35.7304 27.1111 36.171C26.6299 36.5612 26.172 36.968 25.6804 37.3485C25.4541 37.5238 25.2003 37.7092 24.9979 37.9117C24.7954 38.1142 24.6099 38.3678 24.4347 38.5942C23.8927 39.2944 23.295 39.9406 22.7546 40.635C22.1197 41.4508 21.6305 42.3449 21.1716 43.2686C19.4504 46.7333 18.8553 49.0627 18.8553 52.9694C18.8553 54.2943 22.1877 55.3924 23.1641 55.6854C24.3767 56.0493 25.632 56.3272 26.8805 56.5333C27.7575 56.6781 28.7576 56.8227 29.6474 56.8227C36.6435 56.8227 41.1163 54.4452 45.8585 49.5349C46.6717 48.6928 48.4861 46.036 48.7426 44.9353L48.8471 44.4871H50.153L50.2574 44.9353C50.843 47.4488 54.8734 51.5943 56.9931 53.0315C59.4991 54.7307 62.2882 55.8902 65.2664 56.4394C67.7471 56.8969 70.3215 56.9233 72.811 56.5155C74.643 56.2154 76.6324 55.645 78.2612 54.7358C78.7719 54.4508 79.3257 54.089 79.7324 53.6645C79.877 53.5135 80.1447 53.1949 80.1447 52.9694C80.1447 49.1827 79.5693 46.7585 77.8929 43.3981C77.6024 42.8156 77.3 42.2481 76.9644 41.6901C76.6333 41.1395 76.2633 40.6664 75.8817 40.1528C75.4994 39.6383 75.052 39.2083 74.6541 38.7113C72.8812 36.4962 69.4486 34.3061 66.8076 33.2983C65.4079 32.7642 64.058 32.3696 62.5723 32.1759C60.8812 31.9555 59.1063 31.9619 57.4025 31.9619H56.4398L56.89 31.1109ZM47.25 32.4421C45.7538 31.4402 43.9565 28.892 43.1329 27.2815C38.99 19.18 41.6137 8.98107 49.1774 3.91626L49.5 3.70023L49.8226 3.91626C50.8283 4.58968 51.9133 5.48451 52.7611 6.34896L52.7872 6.37555L55.1509 9.50374L55.1665 9.52975C56.7644 12.1819 57.6707 15.2119 57.8032 18.3046C57.9362 21.4117 57.2843 24.5101 55.8671 27.2815C55.0435 28.892 53.2462 31.4402 51.75 32.4421L50.8474 33.0466L50.8505 18.0798C50.8506 17.5936 50.8525 16.5388 50.5611 16.123C50.3187 15.7771 49.678 15.7714 49.3073 15.7714C48.9515 15.7714 48.6986 15.8806 48.5048 16.1803C48.2473 16.5788 48.1548 17.2048 48.1121 17.6683C48.0412 18.4396 48.0607 19.2412 48.0837 20.0151C48.1105 20.9129 48.1524 21.8103 48.1524 22.7087C48.1524 25.7926 48.1524 28.8765 48.1524 31.9604V33.0464L47.25 32.4421ZM45.5346 36.3507C45.2428 36.7489 44.1485 37.3851 43.714 37.6474C42.6533 38.288 41.5707 38.8993 40.4916 39.5085C39.3584 40.1483 38.2217 40.7823 37.0923 41.4288C36.6441 41.6853 36.1965 41.9437 35.754 42.2097C35.4695 42.3807 35.1742 42.5576 34.9037 42.7499C34.5719 42.9859 34.2748 43.4966 34.2748 43.9105C34.2748 44.2517 34.5988 44.7729 34.8578 44.982C35.5076 45.5067 36.4028 45.1114 37.0163 44.7312L37.0245 44.7261L47.5969 38.6556L47.574 39.683C47.5389 41.2586 46.3043 43.9302 45.4851 45.2881C42.637 50.0087 36.824 53.9346 31.1894 53.9346C30.1894 53.9346 29.1434 53.9883 28.1486 53.9231C27.1004 53.8544 26.0779 53.6056 25.0649 53.3398C24.0811 53.0817 23.1688 52.6053 22.1916 52.3775L21.7434 52.2731V51.8129C21.7434 49.2069 22.3887 47.1135 23.5388 44.8079C25.5532 40.7697 28.3444 38.0553 32.4924 36.2412C35.8292 34.7819 38.9732 34.3743 42.5744 34.9324C43.4015 35.0606 44.2522 35.4098 45.0798 35.4283L46.1923 35.4531L45.5346 36.3507ZM76.8084 52.3775C75.9122 52.5864 74.9899 52.985 74.1092 53.2752C72.932 53.663 71.7558 53.9346 70.5091 53.9346H67.8107C62.1712 53.9346 56.5153 50.0815 53.5942 45.4147C52.7468 44.0608 51.4614 41.2691 51.4261 39.683L51.404 38.6958L52.2769 39.1576C54.1531 40.1504 55.9426 41.2955 57.8065 42.3109L57.8193 42.3181L61.8598 44.6532C62.5315 45.0588 63.8328 45.6879 64.3799 44.7636C64.6568 44.296 64.7074 43.3436 64.3263 42.9334C64.2091 42.8127 63.91 42.6316 63.7644 42.5388C63.3547 42.278 62.934 42.0306 62.5143 41.7862C61.3469 41.1063 60.1655 40.4481 58.9883 39.7851C57.8123 39.1227 56.6321 38.4601 55.4742 37.7666C55.0047 37.4853 53.7789 36.7785 53.4654 36.3506L52.8079 35.4531L53.9202 35.4283C54.5206 35.4149 55.1611 35.2636 55.7475 35.1376C56.5956 34.9554 57.4224 34.7943 58.2887 34.7179C61.0903 34.4709 63.7854 35.1218 66.3755 36.1558C68.4314 36.9764 71.4313 39.0264 72.7848 40.7745C75.4676 44.2393 77.2567 47.2649 77.2567 51.8129V52.2731L76.8084 52.3775Z" fill="#12AADA"/>
<path fill-rule="evenodd" clip-rule="evenodd" d="M98.2626 61.1855V49.1145C98.2626 47.7815 97.5504 46.2749 96.6445 45.3125C95.0005 43.5657 92.4147 43.0773 90.1832 43.8509C87.5952 44.748 86.1849 47.0114 86.1157 49.7007C86.0036 54.0654 86.1229 58.4339 86.1229 62.7993V63.8854L85.2205 63.2811C84.5462 62.8296 83.9921 62.2259 83.3142 61.7704C82.4021 61.1576 81.425 60.9081 80.3357 60.8339C78.528 60.7108 76.6056 61.308 75.2939 62.5841C72.693 65.1147 70.1334 67.6867 67.6107 70.2954C67.2122 70.7075 66.9099 70.9908 66.3313 71.0917C66.086 71.1345 65.8273 71.1505 65.5791 71.1763C65.1601 71.2198 64.7457 71.2795 64.3309 71.3534C59.5066 72.2127 55.8853 74.8229 52.961 78.6772C52.1852 79.6996 50.5386 82.1544 50.2575 83.3617L50.153 83.81H48.847L48.7426 83.3617C48.1902 80.9904 44.3459 76.3123 42.3824 74.8557C40.8714 73.7347 39.4291 72.7621 37.6287 72.1371C36.877 71.8761 36.1263 71.6469 35.3472 71.4825C34.5775 71.3202 33.7921 71.2154 33.0132 71.1068C32.7257 71.0667 32.3065 71.0484 32.0509 70.9169C31.8037 70.7897 31.584 70.4968 31.3892 70.2954C28.8666 67.6867 26.307 65.1147 23.7061 62.5841C21.6495 60.5832 18.4046 60.3064 15.9097 61.6362C15.4973 61.8559 15.173 62.0908 14.8298 62.4045C14.4811 62.7233 14.1768 63.0151 13.7796 63.2811L12.8772 63.8855V62.7993C12.8772 58.4987 13.0017 54.1945 12.8839 49.8948C12.8389 48.2504 12.2561 46.6124 11.1616 45.3726C10.1673 44.2463 8.80848 43.5265 7.28919 43.5265C5.21881 43.5265 3.84268 43.7323 2.35545 45.3125C1.44962 46.2749 0.737442 47.7815 0.737442 49.1145V61.8356C0.737442 66.0115 2.0826 70.3006 3.75941 74.0937L6.69358 78.9702C7.07164 79.4693 7.49567 79.9517 7.91183 80.4186C8.52594 81.1076 9.15674 81.7831 9.79176 82.453C11.4057 84.1555 13.0558 85.8274 14.7112 87.4897C17.8018 90.5932 20.9383 93.649 24.0342 96.746C24.391 97.1028 24.7206 97.541 25.0995 97.8637C25.4273 98.1428 25.742 98.2626 26.1781 98.2626C26.9408 98.2626 27.5257 97.6777 27.5257 96.9149C27.5257 95.8484 25.1064 93.8684 24.3707 93.1327C21.6826 90.4446 18.9589 87.7923 16.2742 85.0996C14.7962 83.6171 13.3226 82.1265 11.88 80.6095C11.3127 80.0129 10.7489 79.4114 10.1999 78.7979C9.81712 78.37 9.42536 77.9264 9.08111 77.4669C8.50882 76.703 7.97434 75.8905 7.47847 75.0752C6.98618 74.2657 6.49396 73.3989 6.12188 72.5271C4.58379 68.9237 3.78389 65.4132 3.51133 61.5165C3.38427 59.6996 3.36802 57.8766 3.3791 56.0559C3.39126 54.0632 3.43272 52.0712 3.43272 50.0783C3.43272 48.451 4.11102 46.8115 5.79832 46.3337C7.16701 45.9461 8.63086 46.5419 9.43003 47.6998C9.89937 48.3798 9.97325 49.8756 10.0081 50.6849C10.0746 52.2329 10.0385 53.805 10.0125 55.3545C9.98359 57.0815 9.94811 58.8118 9.98141 60.5389C10.0081 61.9283 10.0631 63.4637 10.3403 64.8266C11.3962 70.0172 15.6698 73.3476 19.2155 76.8933C19.7296 77.4073 20.2266 77.9497 20.7281 78.4767C21.445 79.2302 22.1684 79.9785 22.9119 80.7059C23.6061 81.385 24.3359 82.0756 25.102 82.6728C25.3147 82.8386 26.0978 83.4213 26.3708 83.4213C27.3608 83.4213 27.7184 82.8136 27.7184 81.8809C27.7184 81.1961 27.0229 80.7506 26.5874 80.3151L21.6723 75.4003C21.1889 74.9169 20.6795 74.45 20.1846 73.9777C19.4852 73.31 18.7919 72.6344 18.1228 71.9361C17.2901 71.067 15.3828 69.0715 15.3828 67.8107C15.3828 65.5448 16.6049 63.5687 19.0465 63.5687C20.2548 63.5687 21.2808 64.164 22.1671 64.9387C22.9246 65.6008 23.5246 66.3599 24.2272 67.0637L30.2934 73.1404C31.2032 74.0517 31.8877 73.9323 33.0798 73.9876C35.4084 74.0955 37.2942 74.9043 39.2827 76.0932C43.5945 78.6715 46.5012 83.8406 47.6023 88.6474C47.8708 89.8194 47.9347 91.071 48.0947 92.2644C48.2116 93.1355 48.2155 94.0017 48.1853 94.8781C48.1627 95.5347 48.1066 96.2334 48.1504 96.8873C48.2227 97.9665 48.5905 98.2626 49.6928 98.2626C50.1128 98.2626 50.4452 98.2117 50.6122 97.7981C50.8368 97.2423 50.8186 96.1463 50.8244 95.5447C50.8377 94.1507 50.8632 92.7989 51.0147 91.4092C51.2303 89.432 51.6632 87.506 52.2965 85.6207C53.4239 82.2642 56.5586 78.0325 59.5571 76.1441C61.5251 74.9046 63.3265 74.2202 65.6394 74.0389C66.2172 73.9936 66.8559 73.9868 67.421 73.869C67.8983 73.7694 68.2629 73.5881 68.6117 73.2385L74.6763 67.1602C74.9867 66.849 75.2808 66.5147 75.5799 66.192C75.9524 65.7901 76.3334 65.3948 76.7415 65.0285C77.5658 64.2888 78.609 63.5687 79.7608 63.5687C82.3393 63.5687 83.6172 65.3663 83.6172 67.8107C83.6172 69.4014 81.7462 70.9819 80.7008 72.0273L72.5091 80.2188C72.3024 80.4255 72.0877 80.6192 71.8738 80.8179C71.7489 80.9338 71.6128 81.0606 71.5122 81.1987C71.2948 81.4974 71.2816 81.9115 71.2816 82.2664C71.2816 82.9759 71.9746 83.4213 72.6292 83.4213C72.9026 83.4213 73.6725 82.8505 73.8853 82.6852C74.6413 82.0978 75.3612 81.4174 76.0454 80.7482C76.778 80.0317 77.4906 79.2943 78.1968 78.5517C78.6912 78.0318 79.1811 77.4966 79.6881 76.9897C80.9016 75.7761 82.1391 74.5894 83.3408 73.3629C83.9765 72.714 84.6064 72.0553 85.2095 71.3758C85.6671 70.8603 86.1463 70.3031 86.5279 69.7286C87.5523 68.1863 88.2711 66.7258 88.6304 64.9072C88.8135 63.9806 88.8979 63.0327 88.9454 62.0904C89.0079 60.8522 89.0109 59.6057 89.0109 58.3662C89.0109 57.6576 88.9832 56.9423 88.9667 56.2335C88.9421 55.1767 88.9229 54.1194 88.9242 53.0622C88.9257 51.9492 88.9071 48.7539 89.4781 47.838C90.2449 46.608 91.7215 45.946 93.1393 46.3224C94.8555 46.7781 95.5673 48.4289 95.5673 50.0783C95.5673 57.1472 96.1337 64.4328 93.4354 71.1411C93.1583 71.8301 91.829 74.2534 91.987 74.8821C92.2162 75.794 92.7864 75.9043 93.6383 75.9043C94.2091 75.9043 94.6956 75.1389 94.9396 74.7102C95.4237 73.8593 95.7682 72.8842 96.1303 71.9758C97.5136 68.5057 98.0715 64.8941 98.2626 61.1855Z" fill="#2B2A29"/>
</svg>
