<svg width="23" height="23" viewBox="0 0 23 23" fill="none" xmlns="http://www.w3.org/2000/svg">
<path fill-rule="evenodd" clip-rule="evenodd" d="M2.42446 11.1118C2.42446 9.69608 2.79124 8.22739 3.25306 7.27393C3.62756 6.50074 4.03111 5.76087 4.61628 5.10459C5.72157 3.86501 6.80169 3.02579 8.36771 2.40148C11.2937 1.23501 14.5131 1.64139 17.1041 3.36637C19.438 4.92018 21.2211 7.85168 21.2211 10.8065C21.2211 12.4271 20.9751 13.7433 20.3349 15.0228C19.7846 16.1226 19.2758 16.8292 18.4409 17.6644C16.8218 19.284 14.3911 20.3575 12.0627 20.3575C10.531 20.3575 8.84534 20.0608 7.54522 19.3362C6.87939 18.9651 7.15388 19.0756 6.04063 19.3072C5.69962 19.3781 5.38982 19.4608 5.04472 19.5324C4.71726 19.6003 4.40114 19.6834 4.04893 19.7577C3.79451 19.8114 3.32312 19.965 3.03502 19.965C3.05042 19.7801 3.12171 19.543 3.15494 19.3871L3.78512 16.5283C3.99585 15.6355 3.73522 15.9354 3.38971 15.0746C2.93536 13.9427 2.78161 13.8193 2.54887 12.4266C2.48997 12.0741 2.42446 11.5214 2.42446 11.1118ZM0.679993 10.6756C0.679993 12.0717 0.739129 12.9801 1.1761 14.2791C1.44107 15.0667 1.54931 15.3665 1.91687 16.0689C2.07135 16.3641 2.01167 16.3551 1.92771 16.7206C1.70952 17.6704 1.52514 18.5591 1.31561 19.5103C1.24594 19.8265 0.7236 22.0581 0.7236 22.32C1.21039 22.2795 6.48985 20.968 6.78563 20.968C6.93505 20.968 7.18387 21.1265 7.31501 21.18C7.51146 21.2603 7.66692 21.337 7.87038 21.4097C8.24407 21.5432 8.66815 21.681 9.06193 21.7882C10.7521 22.248 12.5921 22.2388 14.3055 21.8589C15.7015 21.5494 17.0478 20.946 18.1861 20.1572C19.9635 18.9256 21.4007 17.1619 22.2055 15.149C23.8591 11.0135 22.869 6.4142 19.8146 3.35979C19.2974 2.84256 19.3173 2.84888 18.7689 2.39941C18.1214 1.8688 17.4264 1.45417 16.6567 1.06621C15.6088 0.538011 13.7887 -0.00921631 12.2371 -0.00921631H11.4085C9.50649 -0.00921631 6.97046 0.851313 5.42686 1.99012C4.87689 2.39588 4.44253 2.7482 3.96177 3.22896C2.89014 4.30059 2.39153 5.04068 1.7265 6.35792C1.21228 7.37643 0.679993 9.14713 0.679993 10.6756Z" fill="#46BB60"/>
<path fill-rule="evenodd" clip-rule="evenodd" d="M6.742 8.36423C6.742 9.42778 6.92179 9.93145 7.4917 10.8418C7.87987 11.4618 8.38992 12.1491 8.8684 12.6924C8.9473 12.7819 9.02159 12.8463 9.10794 12.9325C9.27854 13.103 9.4174 13.2415 9.58765 13.4123C10.036 13.8621 10.6005 14.2726 11.1377 14.6098C11.3313 14.7313 11.5565 14.828 11.7714 14.9356C12.1628 15.1316 12.6519 15.2982 13.0928 15.4458C14.2924 15.8475 15.3383 16.0087 16.3876 15.175C16.5883 15.0155 16.8225 14.797 16.9212 14.5311C17.0426 14.2038 17.1216 13.8795 17.1216 13.4668C17.1216 13.1622 16.622 13.0207 16.1476 12.7835C14.1008 11.7601 14.6512 11.9144 13.6661 13.0205C13.2601 13.4763 13.2928 13.6909 11.9177 12.8703C11.4251 12.5763 11.3083 12.4653 10.8786 12.1213C10.4958 11.8149 9.35871 10.4364 9.35871 10.1087C9.35871 9.84779 10.2309 9.29895 10.2309 8.75673C10.2309 8.63077 9.54268 6.94805 9.40329 6.66238C9.12007 6.08192 9.04399 6.18364 8.18119 6.18364C7.81495 6.18364 7.37892 6.74229 7.20387 6.9944C6.97017 7.331 6.742 7.81991 6.742 8.36423Z" fill="#46BB60"/>
</svg>
